<svg version="1.1" xmlns="http://www.w3.org/2000/svg" viewBox="0 0 800.1780667971489 215.4312327117441" width="800.1780667971489" height="215.4312327117441">
  <!-- svg-source:excalidraw -->

  <defs>
    <style class="style-fonts">
      @font-face {
        font-family: "Virgil";
        src: url("https://excalidraw.com/Virgil.woff2");
      }
      @font-face {
        font-family: "Cascadia";
        src: url("https://excalidraw.com/Cascadia.woff2");
      }
    </style>
  </defs>
  <g stroke-linecap="round"><g transform="translate(491.65669327099477 133.58763018571244) rotate(0 80.08900321513465 0)"><path d="M0 0 C26.7 0, 133.48 0, 160.18 0 M0 0 C26.7 0, 133.48 0, 160.18 0" stroke="#000000" stroke-width="2" fill="none"></path></g><g transform="translate(491.65669327099477 133.58763018571244) rotate(0 80.08900321513465 0)"><path d="M28.19 -10.26 C19.01 -6.92, 9.83 -3.58, 0 0 M28.19 -10.26 C19.74 -7.18, 11.29 -4.11, 0 0" stroke="#000000" stroke-width="2" fill="none"></path></g><g transform="translate(491.65669327099477 133.58763018571244) rotate(0 80.08900321513465 0)"><path d="M28.19 10.26 C19.01 6.92, 9.83 3.58, 0 0 M28.19 10.26 C19.74 7.18, 11.29 4.11, 0 0" stroke="#000000" stroke-width="2" fill="none"></path></g></g><mask></mask><g stroke-linecap="round"><g transform="translate(491.6646839321538 53.68101885591568) rotate(0 79.55311771983133 -4.547473508864641e-13)"><path d="M0 0 C26.52 0, 132.59 0, 159.11 0 M0 0 C26.52 0, 132.59 0, 159.11 0" stroke="#000000" stroke-width="2" fill="none"></path></g><g transform="translate(491.6646839321538 53.68101885591568) rotate(0 79.55311771983133 -4.547473508864641e-13)"><path d="M130.92 10.26 C139.16 7.26, 147.41 4.26, 159.11 0 M130.92 10.26 C140.71 6.7, 150.51 3.13, 159.11 0" stroke="#000000" stroke-width="2" fill="none"></path></g><g transform="translate(491.6646839321538 53.68101885591568) rotate(0 79.55311771983133 -4.547473508864641e-13)"><path d="M130.92 -10.26 C139.16 -7.26, 147.41 -4.26, 159.11 0 M130.92 -10.26 C140.71 -6.7, 150.51 -3.13, 159.11 0" stroke="#000000" stroke-width="2" fill="none"></path></g></g><mask></mask><g stroke-linecap="round"><g transform="translate(235.34508870832178 54.84108188081609) rotate(0 82.59719155911262 -0.029368833121679927)"><path d="M0 0 C27.53 -0.01, 137.66 -0.05, 165.19 -0.06 M0 0 C27.53 -0.01, 137.66 -0.05, 165.19 -0.06" stroke="#000000" stroke-width="2" fill="none"></path></g><g transform="translate(235.34508870832178 54.84108188081609) rotate(0 82.59719155911262 -0.029368833121679927)"><path d="M137.01 10.21 C145.5 7.12, 153.99 4.02, 165.19 -0.06 M137.01 10.21 C145.6 7.08, 154.19 3.95, 165.19 -0.06" stroke="#000000" stroke-width="2" fill="none"></path></g><g transform="translate(235.34508870832178 54.84108188081609) rotate(0 82.59719155911262 -0.029368833121679927)"><path d="M137 -10.31 C145.49 -7.22, 153.99 -4.13, 165.19 -0.06 M137 -10.31 C145.59 -7.19, 154.19 -4.06, 165.19 -0.06" stroke="#000000" stroke-width="2" fill="none"></path></g></g><mask></mask><g stroke-linecap="round"><g transform="translate(235.3371866517964 133.86164687872315) rotate(0 82.59718880372884 -0.0018149947172787506)"><path d="M0 0 C27.53 0, 137.66 0, 165.19 0 M0 0 C27.53 0, 137.66 0, 165.19 0" stroke="#000000" stroke-width="2" fill="none"></path></g><g transform="translate(235.3371866517964 133.86164687872315) rotate(0 82.59718880372884 -0.0018149947172787506)"><path d="M28.19 -10.26 C19.38 -7.05, 10.57 -3.85, 0 0 M28.19 -10.26 C18.4 -6.7, 8.62 -3.14, 0 0" stroke="#000000" stroke-width="2" fill="none"></path></g><g transform="translate(235.3371866517964 133.86164687872315) rotate(0 82.59718880372884 -0.0018149947172787506)"><path d="M28.19 10.26 C19.38 7.05, 10.57 3.85, 0 0 M28.19 10.26 C18.4 6.7, 8.62 3.14, 0 0" stroke="#000000" stroke-width="2" fill="none"></path></g></g><mask></mask><g stroke-linecap="round" transform="translate(10.008131117794619 10.01552210727732) rotate(0.005729577951308233 111.66665395100927 81.31676141628122)"><path d="M0 0 L223.33 0 L223.33 162.63 L0 162.63" stroke="none" stroke-width="0" fill="#ffffff"></path><path d="M0 0 C68.14 0, 136.28 0, 223.33 0 M0 0 C56.89 0, 113.78 0, 223.33 0 M223.33 0 C223.33 40.84, 223.33 81.67, 223.33 162.63 M223.33 0 C223.33 48.92, 223.33 97.83, 223.33 162.63 M223.33 162.63 C135.56 162.63, 47.79 162.63, 0 162.63 M223.33 162.63 C162.5 162.63, 101.66 162.63, 0 162.63 M0 162.63 C0 126.19, 0 89.75, 0 0 M0 162.63 C0 102.8, 0 42.96, 0 0" stroke="#000000" stroke-width="2" fill="none"></path></g><g stroke-linecap="round" transform="translate(18.452517917924524 16.98235857934378) rotate(0 3.6666641235351562 3.8333282470703125)"><path d="M7.33 3.83 C7.33 4.06, 7.31 4.28, 7.28 4.5 C7.24 4.72, 7.18 4.94, 7.11 5.14 C7.04 5.35, 6.95 5.56, 6.84 5.75 C6.74 5.94, 6.61 6.13, 6.48 6.3 C6.34 6.47, 6.19 6.63, 6.02 6.77 C5.86 6.91, 5.68 7.04, 5.5 7.15 C5.32 7.26, 5.12 7.36, 4.92 7.44 C4.72 7.51, 4.51 7.57, 4.3 7.61 C4.09 7.65, 3.88 7.67, 3.67 7.67 C3.45 7.67, 3.24 7.65, 3.03 7.61 C2.82 7.57, 2.61 7.51, 2.41 7.44 C2.21 7.36, 2.02 7.26, 1.83 7.15 C1.65 7.04, 1.47 6.91, 1.31 6.77 C1.15 6.63, 0.99 6.47, 0.86 6.3 C0.72 6.13, 0.6 5.94, 0.49 5.75 C0.39 5.56, 0.29 5.35, 0.22 5.14 C0.15 4.94, 0.09 4.72, 0.06 4.5 C0.02 4.28, 0 4.06, 0 3.83 C0 3.61, 0.02 3.39, 0.06 3.17 C0.09 2.95, 0.15 2.73, 0.22 2.52 C0.29 2.31, 0.39 2.11, 0.49 1.92 C0.6 1.72, 0.72 1.54, 0.86 1.37 C0.99 1.2, 1.15 1.04, 1.31 0.9 C1.47 0.75, 1.65 0.62, 1.83 0.51 C2.02 0.4, 2.21 0.31, 2.41 0.23 C2.61 0.16, 2.82 0.1, 3.03 0.06 C3.24 0.02, 3.45 0, 3.67 0 C3.88 0, 4.09 0.02, 4.3 0.06 C4.51 0.1, 4.72 0.16, 4.92 0.23 C5.12 0.31, 5.32 0.4, 5.5 0.51 C5.68 0.62, 5.86 0.75, 6.02 0.9 C6.19 1.04, 6.34 1.2, 6.48 1.37 C6.61 1.54, 6.74 1.72, 6.84 1.92 C6.95 2.11, 7.04 2.31, 7.11 2.52 C7.18 2.73, 7.24 2.95, 7.28 3.17 C7.31 3.39, 7.32 3.72, 7.33 3.83 C7.34 3.94, 7.34 3.72, 7.33 3.83" stroke="none" stroke-width="0" fill="#fa5252"></path><path d="M7.33 3.83 C7.33 4.06, 7.31 4.28, 7.28 4.5 C7.24 4.72, 7.18 4.94, 7.11 5.14 C7.04 5.35, 6.95 5.56, 6.84 5.75 C6.74 5.94, 6.61 6.13, 6.48 6.3 C6.34 6.47, 6.19 6.63, 6.02 6.77 C5.86 6.91, 5.68 7.04, 5.5 7.15 C5.32 7.26, 5.12 7.36, 4.92 7.44 C4.72 7.51, 4.51 7.57, 4.3 7.61 C4.09 7.65, 3.88 7.67, 3.67 7.67 C3.45 7.67, 3.24 7.65, 3.03 7.61 C2.82 7.57, 2.61 7.51, 2.41 7.44 C2.21 7.36, 2.02 7.26, 1.83 7.15 C1.65 7.04, 1.47 6.91, 1.31 6.77 C1.15 6.63, 0.99 6.47, 0.86 6.3 C0.72 6.13, 0.6 5.94, 0.49 5.75 C0.39 5.56, 0.29 5.35, 0.22 5.14 C0.15 4.94, 0.09 4.72, 0.06 4.5 C0.02 4.28, 0 4.06, 0 3.83 C0 3.61, 0.02 3.39, 0.06 3.17 C0.09 2.95, 0.15 2.73, 0.22 2.52 C0.29 2.31, 0.39 2.11, 0.49 1.92 C0.6 1.72, 0.72 1.54, 0.86 1.37 C0.99 1.2, 1.15 1.04, 1.31 0.9 C1.47 0.75, 1.65 0.62, 1.83 0.51 C2.02 0.4, 2.21 0.31, 2.41 0.23 C2.61 0.16, 2.82 0.1, 3.03 0.06 C3.24 0.02, 3.45 0, 3.67 0 C3.88 0, 4.09 0.02, 4.3 0.06 C4.51 0.1, 4.72 0.16, 4.92 0.23 C5.12 0.31, 5.32 0.4, 5.5 0.51 C5.68 0.62, 5.86 0.75, 6.02 0.9 C6.19 1.04, 6.34 1.2, 6.48 1.37 C6.61 1.54, 6.74 1.72, 6.84 1.92 C6.95 2.11, 7.04 2.31, 7.11 2.52 C7.18 2.73, 7.24 2.95, 7.28 3.17 C7.31 3.39, 7.32 3.72, 7.33 3.83 C7.34 3.94, 7.34 3.72, 7.33 3.83" stroke="#000000" stroke-width="2" fill="none"></path></g><g stroke-linecap="round" transform="translate(41.45251028852999 16.98235857934378) rotate(0.005729577951308233 3.6666641235351562 3.8333282470703125)"><path d="M7.33 3.83 C7.33 4.06, 7.31 4.28, 7.28 4.5 C7.24 4.72, 7.18 4.94, 7.11 5.14 C7.04 5.35, 6.95 5.56, 6.84 5.75 C6.74 5.94, 6.61 6.13, 6.48 6.3 C6.34 6.47, 6.19 6.63, 6.02 6.77 C5.86 6.91, 5.68 7.04, 5.5 7.15 C5.32 7.26, 5.12 7.36, 4.92 7.44 C4.72 7.51, 4.51 7.57, 4.3 7.61 C4.09 7.65, 3.88 7.67, 3.67 7.67 C3.45 7.67, 3.24 7.65, 3.03 7.61 C2.82 7.57, 2.61 7.51, 2.41 7.44 C2.21 7.36, 2.02 7.26, 1.83 7.15 C1.65 7.04, 1.47 6.91, 1.31 6.77 C1.15 6.63, 0.99 6.47, 0.86 6.3 C0.72 6.13, 0.6 5.94, 0.49 5.75 C0.39 5.56, 0.29 5.35, 0.22 5.14 C0.15 4.94, 0.09 4.72, 0.06 4.5 C0.02 4.28, 0 4.06, 0 3.83 C0 3.61, 0.02 3.39, 0.06 3.17 C0.09 2.95, 0.15 2.73, 0.22 2.52 C0.29 2.31, 0.39 2.11, 0.49 1.92 C0.6 1.72, 0.72 1.54, 0.86 1.37 C0.99 1.2, 1.15 1.04, 1.31 0.9 C1.47 0.75, 1.65 0.62, 1.83 0.51 C2.02 0.4, 2.21 0.31, 2.41 0.23 C2.61 0.16, 2.82 0.1, 3.03 0.06 C3.24 0.02, 3.45 0, 3.67 0 C3.88 0, 4.09 0.02, 4.3 0.06 C4.51 0.1, 4.72 0.16, 4.92 0.23 C5.12 0.31, 5.32 0.4, 5.5 0.51 C5.68 0.62, 5.86 0.75, 6.02 0.9 C6.19 1.04, 6.34 1.2, 6.48 1.37 C6.61 1.54, 6.74 1.72, 6.84 1.92 C6.95 2.11, 7.04 2.31, 7.11 2.52 C7.18 2.73, 7.24 2.95, 7.28 3.17 C7.31 3.39, 7.32 3.72, 7.33 3.83 C7.34 3.94, 7.34 3.72, 7.33 3.83" stroke="none" stroke-width="0" fill="#40c057"></path><path d="M7.33 3.83 C7.33 4.06, 7.31 4.28, 7.28 4.5 C7.24 4.72, 7.18 4.94, 7.11 5.14 C7.04 5.35, 6.95 5.56, 6.84 5.75 C6.74 5.94, 6.61 6.13, 6.48 6.3 C6.34 6.47, 6.19 6.63, 6.02 6.77 C5.86 6.91, 5.68 7.04, 5.5 7.15 C5.32 7.26, 5.12 7.36, 4.92 7.44 C4.72 7.51, 4.51 7.57, 4.3 7.61 C4.09 7.65, 3.88 7.67, 3.67 7.67 C3.45 7.67, 3.24 7.65, 3.03 7.61 C2.82 7.57, 2.61 7.51, 2.41 7.44 C2.21 7.36, 2.02 7.26, 1.83 7.15 C1.65 7.04, 1.47 6.91, 1.31 6.77 C1.15 6.63, 0.99 6.47, 0.86 6.3 C0.72 6.13, 0.6 5.94, 0.49 5.75 C0.39 5.56, 0.29 5.35, 0.22 5.14 C0.15 4.94, 0.09 4.72, 0.06 4.5 C0.02 4.28, 0 4.06, 0 3.83 C0 3.61, 0.02 3.39, 0.06 3.17 C0.09 2.95, 0.15 2.73, 0.22 2.52 C0.29 2.31, 0.39 2.11, 0.49 1.92 C0.6 1.72, 0.72 1.54, 0.86 1.37 C0.99 1.2, 1.15 1.04, 1.31 0.9 C1.47 0.75, 1.65 0.62, 1.83 0.51 C2.02 0.4, 2.21 0.31, 2.41 0.23 C2.61 0.16, 2.82 0.1, 3.03 0.06 C3.24 0.02, 3.45 0, 3.67 0 C3.88 0, 4.09 0.02, 4.3 0.06 C4.51 0.1, 4.72 0.16, 4.92 0.23 C5.12 0.31, 5.32 0.4, 5.5 0.51 C5.68 0.62, 5.86 0.75, 6.02 0.9 C6.19 1.04, 6.34 1.2, 6.48 1.37 C6.61 1.54, 6.74 1.72, 6.84 1.92 C6.95 2.11, 7.04 2.31, 7.11 2.52 C7.18 2.73, 7.24 2.95, 7.28 3.17 C7.31 3.39, 7.32 3.72, 7.33 3.83 C7.34 3.94, 7.34 3.72, 7.33 3.83" stroke="#000000" stroke-width="2" fill="none"></path></g><g stroke-linecap="round" transform="translate(29.785838535600305 16.98235857934378) rotate(0 3.6666641235351562 3.8333282470703125)"><path d="M7.33 3.83 C7.33 4.06, 7.31 4.28, 7.28 4.5 C7.24 4.72, 7.18 4.94, 7.11 5.14 C7.04 5.35, 6.95 5.56, 6.84 5.75 C6.74 5.94, 6.61 6.13, 6.48 6.3 C6.34 6.47, 6.19 6.63, 6.02 6.77 C5.86 6.91, 5.68 7.04, 5.5 7.15 C5.32 7.26, 5.12 7.36, 4.92 7.44 C4.72 7.51, 4.51 7.57, 4.3 7.61 C4.09 7.65, 3.88 7.67, 3.67 7.67 C3.45 7.67, 3.24 7.65, 3.03 7.61 C2.82 7.57, 2.61 7.51, 2.41 7.44 C2.21 7.36, 2.02 7.26, 1.83 7.15 C1.65 7.04, 1.47 6.91, 1.31 6.77 C1.15 6.63, 0.99 6.47, 0.86 6.3 C0.72 6.13, 0.6 5.94, 0.49 5.75 C0.39 5.56, 0.29 5.35, 0.22 5.14 C0.15 4.94, 0.09 4.72, 0.06 4.5 C0.02 4.28, 0 4.06, 0 3.83 C0 3.61, 0.02 3.39, 0.06 3.17 C0.09 2.95, 0.15 2.73, 0.22 2.52 C0.29 2.31, 0.39 2.11, 0.49 1.92 C0.6 1.72, 0.72 1.54, 0.86 1.37 C0.99 1.2, 1.15 1.04, 1.31 0.9 C1.47 0.75, 1.65 0.62, 1.83 0.51 C2.02 0.4, 2.21 0.31, 2.41 0.23 C2.61 0.16, 2.82 0.1, 3.03 0.06 C3.24 0.02, 3.45 0, 3.67 0 C3.88 0, 4.09 0.02, 4.3 0.06 C4.51 0.1, 4.72 0.16, 4.92 0.23 C5.12 0.31, 5.32 0.4, 5.5 0.51 C5.68 0.62, 5.86 0.75, 6.02 0.9 C6.19 1.04, 6.34 1.2, 6.48 1.37 C6.61 1.54, 6.74 1.72, 6.84 1.92 C6.95 2.11, 7.04 2.31, 7.11 2.52 C7.18 2.73, 7.24 2.95, 7.28 3.17 C7.31 3.39, 7.32 3.72, 7.33 3.83 C7.34 3.94, 7.34 3.72, 7.33 3.83" stroke="none" stroke-width="0" fill="#fab005"></path><path d="M7.33 3.83 C7.33 4.06, 7.31 4.28, 7.28 4.5 C7.24 4.72, 7.18 4.94, 7.11 5.14 C7.04 5.35, 6.95 5.56, 6.84 5.75 C6.74 5.94, 6.61 6.13, 6.48 6.3 C6.34 6.47, 6.19 6.63, 6.02 6.77 C5.86 6.91, 5.68 7.04, 5.5 7.15 C5.32 7.26, 5.12 7.36, 4.92 7.44 C4.72 7.51, 4.51 7.57, 4.3 7.61 C4.09 7.65, 3.88 7.67, 3.67 7.67 C3.45 7.67, 3.24 7.65, 3.03 7.61 C2.82 7.57, 2.61 7.51, 2.41 7.44 C2.21 7.36, 2.02 7.26, 1.83 7.15 C1.65 7.04, 1.47 6.91, 1.31 6.77 C1.15 6.63, 0.99 6.47, 0.86 6.3 C0.72 6.13, 0.6 5.94, 0.49 5.75 C0.39 5.56, 0.29 5.35, 0.22 5.14 C0.15 4.94, 0.09 4.72, 0.06 4.5 C0.02 4.28, 0 4.06, 0 3.83 C0 3.61, 0.02 3.39, 0.06 3.17 C0.09 2.95, 0.15 2.73, 0.22 2.52 C0.29 2.31, 0.39 2.11, 0.49 1.92 C0.6 1.72, 0.72 1.54, 0.86 1.37 C0.99 1.2, 1.15 1.04, 1.31 0.9 C1.47 0.75, 1.65 0.62, 1.83 0.51 C2.02 0.4, 2.21 0.31, 2.41 0.23 C2.61 0.16, 2.82 0.1, 3.03 0.06 C3.24 0.02, 3.45 0, 3.67 0 C3.88 0, 4.09 0.02, 4.3 0.06 C4.51 0.1, 4.72 0.16, 4.92 0.23 C5.12 0.31, 5.32 0.4, 5.5 0.51 C5.68 0.62, 5.86 0.75, 6.02 0.9 C6.19 1.04, 6.34 1.2, 6.48 1.37 C6.61 1.54, 6.74 1.72, 6.84 1.92 C6.95 2.11, 7.04 2.31, 7.11 2.52 C7.18 2.73, 7.24 2.95, 7.28 3.17 C7.31 3.39, 7.32 3.72, 7.33 3.83 C7.34 3.94, 7.34 3.72, 7.33 3.83" stroke="#000000" stroke-width="2" fill="none"></path></g><g stroke-linecap="round"><g transform="translate(10.207026436402884 31.83445883489003) rotate(0 111.56720629170468 0)"><path d="M0 0 C71.17 0, 142.33 0, 223.13 0 M0 0 C53.31 0, 106.62 0, 223.13 0" stroke="#000000" stroke-width="2" fill="none"></path></g></g><mask></mask><g stroke-linecap="round" transform="translate(85.22535773668187 63.15922999108443) rotate(0.005729577951308233 36.44942733212201 36.42551194832231)"><path d="M72.9 36.43 C72.9 38.32, 72.75 40.25, 72.45 42.12 C72.15 44, 71.7 45.88, 71.11 47.68 C70.53 49.49, 69.79 51.27, 68.93 52.96 C68.06 54.65, 67.05 56.3, 65.94 57.84 C64.82 59.37, 63.57 60.84, 62.22 62.18 C60.88 63.53, 59.41 64.78, 57.87 65.89 C56.34 67.01, 54.69 68.02, 53 68.88 C51.3 69.74, 49.52 70.48, 47.71 71.07 C45.91 71.66, 44.03 72.11, 42.15 72.4 C40.27 72.7, 38.35 72.85, 36.45 72.85 C34.55 72.85, 32.62 72.7, 30.75 72.4 C28.87 72.11, 26.99 71.66, 25.19 71.07 C23.38 70.48, 21.6 69.74, 19.9 68.88 C18.21 68.02, 16.56 67.01, 15.02 65.89 C13.49 64.78, 12.02 63.53, 10.68 62.18 C9.33 60.84, 8.08 59.37, 6.96 57.84 C5.84 56.3, 4.84 54.65, 3.97 52.96 C3.11 51.27, 2.37 49.49, 1.78 47.68 C1.2 45.88, 0.75 44, 0.45 42.12 C0.15 40.25, 0 38.32, 0 36.43 C0 34.53, 0.15 32.6, 0.45 30.73 C0.75 28.85, 1.2 26.98, 1.78 25.17 C2.37 23.36, 3.11 21.58, 3.97 19.89 C4.84 18.2, 5.84 16.55, 6.96 15.02 C8.08 13.48, 9.33 12.01, 10.68 10.67 C12.02 9.33, 13.49 8.07, 15.02 6.96 C16.56 5.84, 18.21 4.83, 19.9 3.97 C21.6 3.11, 23.38 2.37, 25.19 1.78 C26.99 1.2, 28.87 0.75, 30.75 0.45 C32.62 0.15, 34.55 0, 36.45 0 C38.35 0, 40.27 0.15, 42.15 0.45 C44.03 0.75, 45.91 1.2, 47.71 1.78 C49.52 2.37, 51.3 3.11, 53 3.97 C54.69 4.83, 56.34 5.84, 57.87 6.96 C59.41 8.07, 60.88 9.33, 62.22 10.67 C63.57 12.01, 64.82 13.48, 65.94 15.02 C67.05 16.55, 68.06 18.2, 68.93 19.89 C69.79 21.58, 70.53 23.36, 71.11 25.17 C71.7 26.98, 72.15 28.85, 72.45 30.73 C72.75 32.6, 72.82 35.48, 72.9 36.43 C72.97 37.38, 72.97 35.48, 72.9 36.43" stroke="#000000" stroke-width="2" fill="none"></path></g><g stroke-linecap="round" transform="translate(114.5683834457559 63.15922999108443) rotate(0.005729577951308233 7.031064815276295 36.42551194832231)"><path d="M14.06 36.43 C14.06 38.53, 14.03 40.67, 13.96 42.75 C13.88 44.83, 13.78 46.9, 13.64 48.88 C13.5 50.87, 13.32 52.81, 13.12 54.64 C12.92 56.46, 12.68 58.22, 12.42 59.84 C12.16 61.45, 11.86 62.97, 11.55 64.33 C11.24 65.68, 10.9 66.92, 10.55 67.97 C10.19 69.03, 9.82 69.93, 9.44 70.65 C9.05 71.38, 8.65 71.93, 8.25 72.3 C7.85 72.66, 7.44 72.85, 7.03 72.85 C6.62 72.85, 6.21 72.66, 5.81 72.3 C5.41 71.93, 5.01 71.38, 4.63 70.65 C4.24 69.93, 3.87 69.03, 3.52 67.97 C3.16 66.92, 2.82 65.68, 2.51 64.33 C2.2 62.97, 1.91 61.45, 1.64 59.84 C1.38 58.22, 1.15 56.46, 0.94 54.64 C0.74 52.81, 0.56 50.87, 0.42 48.88 C0.28 46.9, 0.18 44.83, 0.11 42.75 C0.04 40.67, 0 38.53, 0 36.43 C0 34.32, 0.04 32.18, 0.11 30.1 C0.18 28.02, 0.28 25.95, 0.42 23.97 C0.56 21.99, 0.74 20.04, 0.94 18.21 C1.15 16.39, 1.38 14.63, 1.64 13.01 C1.91 11.4, 2.2 9.88, 2.51 8.52 C2.82 7.17, 3.16 5.93, 3.52 4.88 C3.87 3.83, 4.24 2.92, 4.63 2.2 C5.01 1.48, 5.41 0.92, 5.81 0.55 C6.21 0.19, 6.62 0, 7.03 0 C7.44 0, 7.85 0.19, 8.25 0.55 C8.65 0.92, 9.05 1.48, 9.44 2.2 C9.82 2.92, 10.19 3.83, 10.55 4.88 C10.9 5.93, 11.24 7.17, 11.55 8.52 C11.86 9.88, 12.16 11.4, 12.42 13.01 C12.68 14.63, 12.92 16.39, 13.12 18.21 C13.32 20.04, 13.5 21.99, 13.64 23.97 C13.78 25.95, 13.88 28.02, 13.96 30.1 C14.03 32.18, 14.04 35.37, 14.06 36.43 C14.08 37.48, 14.08 35.37, 14.06 36.43" stroke="#000000" stroke-width="2" fill="none"></path></g><g stroke-linecap="round" transform="translate(99.74073942611722 63.15868710519953) rotate(0.005729577951308233 21.858459585479068 36.42578344947333)"><path d="M43.72 36.43 C43.72 38.53, 43.6 40.67, 43.38 42.75 C43.17 44.83, 42.83 46.9, 42.4 48.88 C41.97 50.87, 41.42 52.81, 40.79 54.64 C40.16 56.46, 39.42 58.22, 38.6 59.84 C37.79 61.45, 36.88 62.97, 35.91 64.33 C34.94 65.68, 33.88 66.92, 32.79 67.97 C31.69 69.03, 30.52 69.93, 29.33 70.65 C28.15 71.38, 26.9 71.93, 25.65 72.3 C24.41 72.66, 23.12 72.85, 21.86 72.85 C20.59 72.85, 19.31 72.66, 18.06 72.3 C16.82 71.93, 15.57 71.38, 14.38 70.65 C13.19 69.93, 12.02 69.03, 10.93 67.97 C9.83 66.92, 8.78 65.68, 7.81 64.33 C6.84 62.97, 5.93 61.45, 5.11 59.84 C4.3 58.22, 3.56 56.46, 2.93 54.64 C2.3 52.81, 1.75 50.87, 1.32 48.88 C0.89 46.9, 0.55 44.83, 0.33 42.75 C0.11 40.67, 0 38.53, 0 36.43 C0 34.32, 0.11 32.18, 0.33 30.1 C0.55 28.02, 0.89 25.95, 1.32 23.97 C1.75 21.99, 2.3 20.04, 2.93 18.21 C3.56 16.39, 4.3 14.63, 5.11 13.01 C5.93 11.4, 6.84 9.88, 7.81 8.52 C8.78 7.17, 9.83 5.93, 10.93 4.88 C12.02 3.83, 13.19 2.92, 14.38 2.2 C15.57 1.48, 16.82 0.92, 18.06 0.55 C19.31 0.19, 20.59 0, 21.86 0 C23.12 0, 24.41 0.19, 25.65 0.55 C26.9 0.92, 28.15 1.48, 29.33 2.2 C30.52 2.92, 31.69 3.83, 32.79 4.88 C33.88 5.93, 34.94 7.17, 35.91 8.52 C36.88 9.88, 37.79 11.4, 38.6 13.01 C39.42 14.63, 40.16 16.39, 40.79 18.21 C41.42 20.04, 41.97 21.99, 42.4 23.97 C42.83 25.95, 43.17 28.02, 43.38 30.1 C43.6 32.18, 43.66 35.37, 43.72 36.43 C43.77 37.48, 43.77 35.37, 43.72 36.43" stroke="#000000" stroke-width="2" fill="none"></path></g><g stroke-linecap="round"><g transform="translate(85.22535791892915 99.58109699667784) rotate(0 36.44942714987428 0.0036449427279876545)"><path d="M0 0 C28.98 0, 57.96 0.01, 72.9 0.01 M0 0 C26.42 0, 52.84 0.01, 72.9 0.01" stroke="#000000" stroke-width="2" fill="none"></path></g></g><mask></mask><g stroke-linecap="round"><g transform="translate(121.59555643325712 136.01025382201806) rotate(0 0.00012463829307307606 -5.8208115660818294e-8)"><path d="M0 0 C0 0, 0 0, 0 0 M0 0 C0 0, 0 0, 0 0" stroke="#000000" stroke-width="2" fill="none"></path></g></g><mask></mask><g stroke-linecap="round"><g transform="translate(94.83339586993588 124.17873953003618) rotate(0 26.811537403805687 -5.542553110366498)"><path d="M0 0 C2.28 -1.86, 4.56 -3.72, 7.84 -6.4 M0 0 C2.94 -2.4, 5.87 -4.79, 7.84 -6.4 M7.84 -6.4 C11.11 -7.63, 14.39 -8.87, 20.28 -11.09 M7.84 -6.4 C10.72 -7.48, 13.61 -8.57, 20.28 -11.09 M20.28 -11.09 C23.57 -11.09, 26.86 -11.09, 33.26 -11.09 M20.28 -11.09 C22.91 -11.09, 25.55 -11.09, 33.26 -11.09 M33.26 -11.09 C36.02 -10.06, 38.79 -9.03, 45.69 -6.46 M33.26 -11.09 C36.3 -9.95, 39.34 -8.82, 45.69 -6.46 M45.69 -6.46 C47.62 -4.89, 49.55 -3.31, 53.62 0 M45.69 -6.46 C48.5 -4.17, 51.32 -1.88, 53.62 0" stroke="#000000" stroke-width="2" fill="none"></path></g></g><mask></mask><g stroke-linecap="round"><g transform="translate(94.85020384940344 74.94983877854429) rotate(0 26.820101130655075 5.43140924650379)"><path d="M0 0 C1.82 1.45, 3.65 2.9, 7.88 6.27 M0 0 C1.8 1.43, 3.6 2.87, 7.88 6.27 M7.88 6.27 C11.52 7.63, 15.15 8.98, 20.24 10.88 M7.88 6.27 C12.74 8.08, 17.61 9.9, 20.24 10.88 M20.24 10.88 C24.99 10.87, 29.73 10.86, 33.29 10.86 M20.24 10.88 C22.95 10.88, 25.66 10.87, 33.29 10.86 M33.29 10.86 C38.13 9.07, 42.97 7.29, 45.65 6.3 M33.29 10.86 C37.06 9.47, 40.83 8.08, 45.65 6.3 M45.65 6.3 C47.29 5, 48.93 3.7, 53.64 -0.02 M45.65 6.3 C47.25 5.04, 48.85 3.77, 53.64 -0.02" stroke="#000000" stroke-width="2" fill="none"></path></g></g><mask></mask><g transform="translate(83.89136990459974 182.1255374450784) rotate(0 36.6748046875 11.5)"><text x="36.6748046875" y="0" font-family="Helvetica, Segoe UI Emoji" font-size="20px" fill="#000000" text-anchor="middle" style="white-space: pre;" direction="ltr" dominant-baseline="text-before-edge">Browser</text></g><g stroke-linecap="round" transform="translate(402.53581817704344 10.00435584848492) rotate(0.005729577951308233 43.56255075872241 81.31676141628122)"><path d="M0 0 L87.13 0 L87.13 162.63 L0 162.63" stroke="none" stroke-width="0" fill="#ffffff"></path><path d="M0 0 C20.73 0, 41.46 0, 87.13 0 M0 0 C27.53 0, 55.06 0, 87.13 0 M87.13 0 C87.13 49.62, 87.13 99.24, 87.13 162.63 M87.13 0 C87.13 41.43, 87.13 82.85, 87.13 162.63 M87.13 162.63 C65.25 162.63, 43.37 162.63, 0 162.63 M87.13 162.63 C60.92 162.63, 34.72 162.63, 0 162.63 M0 162.63 C0 98.72, 0 34.8, 0 0 M0 162.63 C0 118.33, 0 74.03, 0 0" stroke="#000000" stroke-width="2" fill="none"></path></g><g stroke-linecap="round"><g transform="translate(413.0197115638657 27.995769559724067) rotate(0 33.3979555816868 4.547473508864641e-13)"><path d="M0 0 C11.13 0, 55.66 0, 66.8 0 M0 0 C11.13 0, 55.66 0, 66.8 0" stroke="#000000" stroke-width="2" fill="none"></path></g></g><mask></mask><g stroke-linecap="round"><g transform="translate(412.7004133540777 42.96641842962072) rotate(0 33.3979555816868 4.547473508864641e-13)"><path d="M0 0 C11.13 0, 55.66 0, 66.8 0 M0 0 C11.13 0, 55.66 0, 66.8 0" stroke="#000000" stroke-width="2" fill="none"></path></g></g><mask></mask><g stroke-linecap="round"><g transform="translate(412.62821034225544 57.937067299520095) rotate(0 33.3979555816868 4.547473508864641e-13)"><path d="M0 0 C11.13 0, 55.66 0, 66.8 0 M0 0 C11.13 0, 55.66 0, 66.8 0" stroke="#000000" stroke-width="2" fill="none"></path></g></g><mask></mask><g stroke-linecap="round"><g transform="translate(412.62821034225544 72.90771616941765) rotate(0 33.3979555816868 4.547473508864641e-13)"><path d="M0 0 C11.13 0, 55.66 0, 66.8 0 M0 0 C11.13 0, 55.66 0, 66.8 0" stroke="#000000" stroke-width="2" fill="none"></path></g></g><mask></mask><g transform="translate(419.08149175209564 182.4312327117441) rotate(0 29.453125 11.5)"><text x="29.453125" y="0" font-family="Helvetica, Segoe UI Emoji" font-size="20px" fill="#000000" text-anchor="middle" style="white-space: pre;" direction="ltr" dominant-baseline="text-before-edge">Server</text></g><g stroke-linecap="round" transform="translate(651.8346997012632 10.00435702647701) rotate(0.005729577951308233 69.17168370808804 18.80742656855682)"><path d="M138.34 18.81 C138.34 19.63, 138.14 20.45, 137.75 21.26 C137.36 22.07, 136.77 22.88, 135.99 23.68 C135.21 24.47, 134.23 25.25, 133.08 26 C131.93 26.76, 130.58 27.5, 129.08 28.21 C127.57 28.92, 125.88 29.61, 124.05 30.26 C122.22 30.91, 120.21 31.53, 118.08 32.11 C115.96 32.68, 113.67 33.23, 111.28 33.73 C108.89 34.23, 106.36 34.69, 103.76 35.1 C101.15 35.5, 98.42 35.87, 95.64 36.18 C92.86 36.5, 89.98 36.76, 87.07 36.97 C84.17 37.19, 81.18 37.35, 78.2 37.45 C75.22 37.56, 72.18 37.61, 69.17 37.61 C66.16 37.61, 63.13 37.56, 60.14 37.45 C57.16 37.35, 54.18 37.19, 51.27 36.97 C48.36 36.76, 45.48 36.5, 42.7 36.18 C39.92 35.87, 37.19 35.5, 34.59 35.1 C31.98 34.69, 29.45 34.23, 27.06 33.73 C24.67 33.23, 22.39 32.68, 20.26 32.11 C18.13 31.53, 16.13 30.91, 14.29 30.26 C12.46 29.61, 10.77 28.92, 9.27 28.21 C7.76 27.5, 6.42 26.76, 5.27 26 C4.11 25.25, 3.14 24.47, 2.36 23.68 C1.58 22.88, 0.98 22.07, 0.59 21.26 C0.2 20.45, 0 19.63, 0 18.81 C0 17.99, 0.2 17.16, 0.59 16.35 C0.98 15.54, 1.58 14.73, 2.36 13.94 C3.14 13.15, 4.11 12.37, 5.27 11.61 C6.42 10.85, 7.76 10.11, 9.27 9.4 C10.77 8.7, 12.46 8.01, 14.29 7.36 C16.13 6.71, 18.13 6.09, 20.26 5.51 C22.39 4.93, 24.67 4.38, 27.06 3.89 C29.45 3.39, 31.98 2.93, 34.59 2.52 C37.19 2.11, 39.92 1.74, 42.7 1.43 C45.48 1.12, 48.36 0.85, 51.27 0.64 C54.18 0.43, 57.16 0.27, 60.14 0.16 C63.13 0.05, 66.16 0, 69.17 0 C72.18 0, 75.22 0.05, 78.2 0.16 C81.18 0.27, 84.17 0.43, 87.07 0.64 C89.98 0.85, 92.86 1.12, 95.64 1.43 C98.42 1.74, 101.15 2.11, 103.76 2.52 C106.36 2.93, 108.89 3.39, 111.28 3.89 C113.67 4.38, 115.96 4.93, 118.08 5.51 C120.21 6.09, 122.22 6.71, 124.05 7.36 C125.88 8.01, 127.57 8.7, 129.08 9.4 C130.58 10.11, 131.93 10.85, 133.08 11.61 C134.23 12.37, 135.21 13.15, 135.99 13.94 C136.77 14.73, 137.36 15.54, 137.75 16.35 C138.14 17.16, 138.24 18.4, 138.34 18.81 C138.44 19.22, 138.44 18.4, 138.34 18.81" stroke="none" stroke-width="0" fill="#ffffff"></path><path d="M138.34 18.81 C138.34 19.63, 138.14 20.45, 137.75 21.26 C137.36 22.07, 136.77 22.88, 135.99 23.68 C135.21 24.47, 134.23 25.25, 133.08 26 C131.93 26.76, 130.58 27.5, 129.08 28.21 C127.57 28.92, 125.88 29.61, 124.05 30.26 C122.22 30.91, 120.21 31.53, 118.08 32.11 C115.96 32.68, 113.67 33.23, 111.28 33.73 C108.89 34.23, 106.36 34.69, 103.76 35.1 C101.15 35.5, 98.42 35.87, 95.64 36.18 C92.86 36.5, 89.98 36.76, 87.07 36.97 C84.17 37.19, 81.18 37.35, 78.2 37.45 C75.22 37.56, 72.18 37.61, 69.17 37.61 C66.16 37.61, 63.13 37.56, 60.14 37.45 C57.16 37.35, 54.18 37.19, 51.27 36.97 C48.36 36.76, 45.48 36.5, 42.7 36.18 C39.92 35.87, 37.19 35.5, 34.59 35.1 C31.98 34.69, 29.45 34.23, 27.06 33.73 C24.67 33.23, 22.39 32.68, 20.26 32.11 C18.13 31.53, 16.13 30.91, 14.29 30.26 C12.46 29.61, 10.77 28.92, 9.27 28.21 C7.76 27.5, 6.42 26.76, 5.27 26 C4.11 25.25, 3.14 24.47, 2.36 23.68 C1.58 22.88, 0.98 22.07, 0.59 21.26 C0.2 20.45, 0 19.63, 0 18.81 C0 17.99, 0.2 17.16, 0.59 16.35 C0.98 15.54, 1.58 14.73, 2.36 13.94 C3.14 13.15, 4.11 12.37, 5.27 11.61 C6.42 10.85, 7.76 10.11, 9.27 9.4 C10.77 8.7, 12.46 8.01, 14.29 7.36 C16.13 6.71, 18.13 6.09, 20.26 5.51 C22.39 4.93, 24.67 4.38, 27.06 3.89 C29.45 3.39, 31.98 2.93, 34.59 2.52 C37.19 2.11, 39.92 1.74, 42.7 1.43 C45.48 1.12, 48.36 0.85, 51.27 0.64 C54.18 0.43, 57.16 0.27, 60.14 0.16 C63.13 0.05, 66.16 0, 69.17 0 C72.18 0, 75.22 0.05, 78.2 0.16 C81.18 0.27, 84.17 0.43, 87.07 0.64 C89.98 0.85, 92.86 1.12, 95.64 1.43 C98.42 1.74, 101.15 2.11, 103.76 2.52 C106.36 2.93, 108.89 3.39, 111.28 3.89 C113.67 4.38, 115.96 4.93, 118.08 5.51 C120.21 6.09, 122.22 6.71, 124.05 7.36 C125.88 8.01, 127.57 8.7, 129.08 9.4 C130.58 10.11, 131.93 10.85, 133.08 11.61 C134.23 12.37, 135.21 13.15, 135.99 13.94 C136.77 14.73, 137.36 15.54, 137.75 16.35 C138.14 17.16, 138.24 18.4, 138.34 18.81 C138.44 19.22, 138.44 18.4, 138.34 18.81" stroke="#000000" stroke-width="2" fill="none"></path></g><g stroke-linecap="round" transform="translate(651.8346997012632 135.02302672192582) rotate(0.005729577951308233 69.17168370808804 18.80742656855682)"><path d="M138.34 18.81 C138.34 19.63, 138.14 20.45, 137.75 21.26 C137.36 22.07, 136.77 22.88, 135.99 23.68 C135.21 24.47, 134.23 25.25, 133.08 26 C131.93 26.76, 130.58 27.5, 129.08 28.21 C127.57 28.92, 125.88 29.61, 124.05 30.26 C122.22 30.91, 120.21 31.53, 118.08 32.11 C115.96 32.68, 113.67 33.23, 111.28 33.73 C108.89 34.23, 106.36 34.69, 103.76 35.1 C101.15 35.5, 98.42 35.87, 95.64 36.18 C92.86 36.5, 89.98 36.76, 87.07 36.97 C84.17 37.19, 81.18 37.35, 78.2 37.45 C75.22 37.56, 72.18 37.61, 69.17 37.61 C66.16 37.61, 63.13 37.56, 60.14 37.45 C57.16 37.35, 54.18 37.19, 51.27 36.97 C48.36 36.76, 45.48 36.5, 42.7 36.18 C39.92 35.87, 37.19 35.5, 34.59 35.1 C31.98 34.69, 29.45 34.23, 27.06 33.73 C24.67 33.23, 22.39 32.68, 20.26 32.11 C18.13 31.53, 16.13 30.91, 14.29 30.26 C12.46 29.61, 10.77 28.92, 9.27 28.21 C7.76 27.5, 6.42 26.76, 5.27 26 C4.11 25.25, 3.14 24.47, 2.36 23.68 C1.58 22.88, 0.98 22.07, 0.59 21.26 C0.2 20.45, 0 19.63, 0 18.81 C0 17.99, 0.2 17.16, 0.59 16.35 C0.98 15.54, 1.58 14.73, 2.36 13.94 C3.14 13.15, 4.11 12.37, 5.27 11.61 C6.42 10.85, 7.76 10.11, 9.27 9.4 C10.77 8.7, 12.46 8.01, 14.29 7.36 C16.13 6.71, 18.13 6.09, 20.26 5.51 C22.39 4.93, 24.67 4.38, 27.06 3.89 C29.45 3.39, 31.98 2.93, 34.59 2.52 C37.19 2.11, 39.92 1.74, 42.7 1.43 C45.48 1.12, 48.36 0.85, 51.27 0.64 C54.18 0.43, 57.16 0.27, 60.14 0.16 C63.13 0.05, 66.16 0, 69.17 0 C72.18 0, 75.22 0.05, 78.2 0.16 C81.18 0.27, 84.17 0.43, 87.07 0.64 C89.98 0.85, 92.86 1.12, 95.64 1.43 C98.42 1.74, 101.15 2.11, 103.76 2.52 C106.36 2.93, 108.89 3.39, 111.28 3.89 C113.67 4.38, 115.96 4.93, 118.08 5.51 C120.21 6.09, 122.22 6.71, 124.05 7.36 C125.88 8.01, 127.57 8.7, 129.08 9.4 C130.58 10.11, 131.93 10.85, 133.08 11.61 C134.23 12.37, 135.21 13.15, 135.99 13.94 C136.77 14.73, 137.36 15.54, 137.75 16.35 C138.14 17.16, 138.24 18.4, 138.34 18.81 C138.44 19.22, 138.44 18.4, 138.34 18.81" stroke="none" stroke-width="0" fill="#ffffff"></path><path d="M138.34 18.81 C138.34 19.63, 138.14 20.45, 137.75 21.26 C137.36 22.07, 136.77 22.88, 135.99 23.68 C135.21 24.47, 134.23 25.25, 133.08 26 C131.93 26.76, 130.58 27.5, 129.08 28.21 C127.57 28.92, 125.88 29.61, 124.05 30.26 C122.22 30.91, 120.21 31.53, 118.08 32.11 C115.96 32.68, 113.67 33.23, 111.28 33.73 C108.89 34.23, 106.36 34.69, 103.76 35.1 C101.15 35.5, 98.42 35.87, 95.64 36.18 C92.86 36.5, 89.98 36.76, 87.07 36.97 C84.17 37.19, 81.18 37.35, 78.2 37.45 C75.22 37.56, 72.18 37.61, 69.17 37.61 C66.16 37.61, 63.13 37.56, 60.14 37.45 C57.16 37.35, 54.18 37.19, 51.27 36.97 C48.36 36.76, 45.48 36.5, 42.7 36.18 C39.92 35.87, 37.19 35.5, 34.59 35.1 C31.98 34.69, 29.45 34.23, 27.06 33.73 C24.67 33.23, 22.39 32.68, 20.26 32.11 C18.13 31.53, 16.13 30.91, 14.29 30.26 C12.46 29.61, 10.77 28.92, 9.27 28.21 C7.76 27.5, 6.42 26.76, 5.27 26 C4.11 25.25, 3.14 24.47, 2.36 23.68 C1.58 22.88, 0.98 22.07, 0.59 21.26 C0.2 20.45, 0 19.63, 0 18.81 C0 17.99, 0.2 17.16, 0.59 16.35 C0.98 15.54, 1.58 14.73, 2.36 13.94 C3.14 13.15, 4.11 12.37, 5.27 11.61 C6.42 10.85, 7.76 10.11, 9.27 9.4 C10.77 8.7, 12.46 8.01, 14.29 7.36 C16.13 6.71, 18.13 6.09, 20.26 5.51 C22.39 4.93, 24.67 4.38, 27.06 3.89 C29.45 3.39, 31.98 2.93, 34.59 2.52 C37.19 2.11, 39.92 1.74, 42.7 1.43 C45.48 1.12, 48.36 0.85, 51.27 0.64 C54.18 0.43, 57.16 0.27, 60.14 0.16 C63.13 0.05, 66.16 0, 69.17 0 C72.18 0, 75.22 0.05, 78.2 0.16 C81.18 0.27, 84.17 0.43, 87.07 0.64 C89.98 0.85, 92.86 1.12, 95.64 1.43 C98.42 1.74, 101.15 2.11, 103.76 2.52 C106.36 2.93, 108.89 3.39, 111.28 3.89 C113.67 4.38, 115.96 4.93, 118.08 5.51 C120.21 6.09, 122.22 6.71, 124.05 7.36 C125.88 8.01, 127.57 8.7, 129.08 9.4 C130.58 10.11, 131.93 10.85, 133.08 11.61 C134.23 12.37, 135.21 13.15, 135.99 13.94 C136.77 14.73, 137.36 15.54, 137.75 16.35 C138.14 17.16, 138.24 18.4, 138.34 18.81 C138.44 19.22, 138.44 18.4, 138.34 18.81" stroke="#000000" stroke-width="2" fill="none"></path></g><g stroke-linecap="round"><g transform="translate(790.1780667715811 28.81870076339419) rotate(0 0 62.50933484772395)"><path d="M0 0 C0 44.46, 0 88.93, 0 125.02 M0 0 C0 27.81, 0 55.62, 0 125.02" stroke="#000000" stroke-width="2" fill="none"></path></g></g><mask></mask><g stroke-linecap="round"><g transform="translate(651.8347000471222 28.80486642667529) rotate(0 0 62.50933484772395)"><path d="M0 0 C0 48.8, 0 97.6, 0 125.02 M0 0 C0 48.6, 0 97.2, 0 125.02" stroke="#000000" stroke-width="2" fill="none"></path></g></g><mask></mask><g transform="translate(681.5767217363045 181.83259342106248) rotate(0 42.8076171875 11.5)"><text x="42.8076171875" y="0" font-family="Helvetica, Segoe UI Emoji" font-size="20px" fill="#000000" text-anchor="middle" style="white-space: pre;" direction="ltr" dominant-baseline="text-before-edge">Database</text></g><g transform="translate(278.77090606062393 29.649609940350274) rotate(0 37.24609375 11.5)"><text x="37.24609375" y="0" font-family="Helvetica, Segoe UI Emoji" font-size="20px" fill="#000000" text-anchor="middle" style="white-space: pre;" direction="ltr" dominant-baseline="text-before-edge">Request</text></g><g transform="translate(278.59162498232854 108.46725934999995) rotate(0 45.029296875 11.5)"><text x="45.029296875" y="0" font-family="Helvetica, Segoe UI Emoji" font-size="20px" fill="#000000" text-anchor="middle" style="white-space: pre;" direction="ltr" dominant-baseline="text-before-edge">Response</text></g><g transform="translate(538.5420381253989 27.772072508008932) rotate(0 27.2314453125 11.5)"><text x="27.2314453125" y="0" font-family="Helvetica, Segoe UI Emoji" font-size="20px" fill="#000000" text-anchor="middle" style="white-space: pre;" direction="ltr" dominant-baseline="text-before-edge">Query</text></g><g transform="translate(537.732940436541 107.75307812563369) rotate(0 28.3447265625 11.5)"><text x="28.3447265625" y="0" font-family="Helvetica, Segoe UI Emoji" font-size="20px" fill="#000000" text-anchor="middle" style="white-space: pre;" direction="ltr" dominant-baseline="text-before-edge">Result</text></g></svg>
