<svg version="1.1" xmlns="http://www.w3.org/2000/svg" viewBox="0 0 1471.6395812903575 509.8262505423836" width="1471.6395812903575" height="509.8262505423836">
  <!-- svg-source:excalidraw -->

  <defs>
    <style class="style-fonts">
      @font-face {
        font-family: "Virgil";
        src: url("https://excalidraw.com/Virgil.woff2");
      }
      @font-face {
        font-family: "Cascadia";
        src: url("https://excalidraw.com/Cascadia.woff2");
      }
    </style>
  </defs>
  <g stroke-linecap="round" transform="translate(184.69586833509652 191.70399695914057) rotate(0 60.628022321231356 16.5)"><path d="M8.25 0 M8.25 0 C43.56 0, 78.86 0, 113.01 0 M8.25 0 C39.39 0, 70.54 0, 113.01 0 M113.01 0 C118.51 0, 121.26 2.75, 121.26 8.25 M113.01 0 C118.51 0, 121.26 2.75, 121.26 8.25 M121.26 8.25 C121.26 11.74, 121.26 15.24, 121.26 24.75 M121.26 8.25 C121.26 14.12, 121.26 20, 121.26 24.75 M121.26 24.75 C121.26 30.25, 118.51 33, 113.01 33 M121.26 24.75 C121.26 30.25, 118.51 33, 113.01 33 M113.01 33 C78.97 33, 44.93 33, 8.25 33 M113.01 33 C81.07 33, 49.13 33, 8.25 33 M8.25 33 C2.75 33, 0 30.25, 0 24.75 M8.25 33 C2.75 33, 0 30.25, 0 24.75 M0 24.75 C0 18.98, 0 13.22, 0 8.25 M0 24.75 C0 18.65, 0 12.55, 0 8.25 M0 8.25 C0 2.75, 2.75 0, 8.25 0 M0 8.25 C0 2.75, 2.75 0, 8.25 0" stroke="#000000" stroke-width="2" fill="none"></path></g><g transform="translate(221.76139065632788 199.00399695914075) rotate(0 23.5625 9.199999999999818)"><text x="23.5625" y="0" font-family="Helvetica, Segoe UI Emoji" font-size="16px" fill="#000000" text-anchor="middle" style="white-space: pre;" direction="ltr" dominant-baseline="text-before-edge">Parser</text></g><g transform="translate(23.320720796873047 240.79071331626437) rotate(0 14.602449483071268 7.02932172690771)"><text x="0" y="0" font-family="Helvetica, Segoe UI Emoji" font-size="12.224907351143573px" fill="#000" text-anchor="start" style="white-space: pre;" direction="ltr" dominant-baseline="text-before-edge">Code</text></g><g stroke-linecap="round" transform="translate(10 160.52095829157588) rotate(0 26.851474472443783 36.593167249572616)"><path d="M0 0 L53.7 0 L53.7 73.19 L0 73.19" stroke="none" stroke-width="0" fill="#feeb9e"></path><path d="M0 0 C11.45 0, 22.89 0, 53.7 0 M0 0 C11.91 0, 23.82 0, 53.7 0 M53.7 0 C53.7 29.12, 53.7 58.25, 53.7 73.19 M53.7 0 C53.7 21.67, 53.7 43.34, 53.7 73.19 M53.7 73.19 C33.84 73.19, 13.97 73.19, 0 73.19 M53.7 73.19 C33.69 73.19, 13.67 73.19, 0 73.19 M0 73.19 C0 47.65, 0 22.12, 0 0 M0 73.19 C0 44.03, 0 14.88, 0 0" stroke="#000000" stroke-width="2" fill="none"></path></g><g stroke-linecap="round"><g transform="translate(46.23872561257258 160.47207122678628) rotate(0 8.867582961297103 8.756275975637436)" fill-rule="evenodd"><path d="M0 0 L0.17 17.51 L17.74 17.28 L0 0" stroke="none" stroke-width="0" fill="#e6c45f" fill-rule="evenodd"></path><path d="M0 0 C0.07 6.84, 0.13 13.67, 0.17 17.51 M0 0 C0.04 4.29, 0.08 8.59, 0.17 17.51 M0.17 17.51 C4.31 17.46, 8.46 17.4, 17.74 17.28 M0.17 17.51 C4.2 17.46, 8.23 17.41, 17.74 17.28 M17.74 17.28 C13.55 13.2, 9.36 9.12, 0 0 M17.74 17.28 C12 11.69, 6.26 6.1, 0 0 M0 0 C0 0, 0 0, 0 0 M0 0 C0 0, 0 0, 0 0" stroke="#000" stroke-width="2" fill="none"></path></g></g><mask></mask><g stroke-linecap="round"><g transform="translate(47.266864633233126 157.93722837219048) rotate(179.75453245381487 9.628942354217429 10.449816631109115)" fill-rule="evenodd"><path d="M0 0 L-0.15 22.02 L20.55 20.35 L-1.3 -1.12" stroke="none" stroke-width="0" fill="#fff" fill-rule="evenodd"></path><path d="M0 0 C-0.05 8.07, -0.11 16.14, -0.15 22.02 M0 0 C-0.04 6.36, -0.09 12.71, -0.15 22.02 M-0.15 22.02 C6.02 21.52, 12.2 21.02, 20.55 20.35 M-0.15 22.02 C6.21 21.51, 12.56 20.99, 20.55 20.35 M20.55 20.35 C12.37 12.31, 4.19 4.27, -1.3 -1.12 M20.55 20.35 C13.43 13.35, 6.31 6.35, -1.3 -1.12 M-1.3 -1.12 C-0.93 -0.8, -0.56 -0.48, 0 0 M-1.3 -1.12 C-0.83 -0.72, -0.36 -0.31, 0 0" stroke="transparent" stroke-width="2" fill="none"></path></g></g><mask></mask><g transform="translate(22.59317268775044 196.31177897097132) rotate(0 12.541537205707868 12.652779108433606)"><text x="0" y="0" font-family="Helvetica, Segoe UI Emoji" font-size="22.00483323205843px" fill="#000" text-anchor="start" style="white-space: pre;" direction="ltr" dominant-baseline="text-before-edge">&gt;_</text></g><g stroke-linecap="round" transform="translate(462.60051282850327 298.68773693987623) rotate(0 42.56290307814652 28)"><path d="M14 0 M14 0 C26.82 0, 39.64 0, 71.13 0 M14 0 C28.76 0, 43.53 0, 71.13 0 M71.13 0 C80.46 0, 85.13 4.67, 85.13 14 M71.13 0 C80.46 0, 85.13 4.67, 85.13 14 M85.13 14 C85.13 25.09, 85.13 36.17, 85.13 42 M85.13 14 C85.13 22.02, 85.13 30.04, 85.13 42 M85.13 42 C85.13 51.33, 80.46 56, 71.13 56 M85.13 42 C85.13 51.33, 80.46 56, 71.13 56 M71.13 56 C51.9 56, 32.67 56, 14 56 M71.13 56 C50.23 56, 29.34 56, 14 56 M14 56 C4.67 56, 0 51.33, 0 42 M14 56 C4.67 56, 0 51.33, 0 42 M0 42 C0 33.61, 0 25.23, 0 14 M0 42 C0 31.9, 0 21.79, 0 14 M0 14 C0 4.67, 4.67 0, 14 0 M0 14 C0 4.67, 4.67 0, 14 0" stroke="#000000" stroke-width="2" fill="none"></path></g><g transform="translate(475.3743534066498 308.2877369398766) rotate(0 29.7890625 18.40000000000009)"><text x="29.7890625" y="0" font-family="Helvetica, Segoe UI Emoji" font-size="16px" fill="#000000" text-anchor="middle" style="white-space: pre;" direction="ltr" dominant-baseline="text-before-edge">Type </text><text x="29.7890625" y="18.4" font-family="Helvetica, Segoe UI Emoji" font-size="16px" fill="#000000" text-anchor="middle" style="white-space: pre;" direction="ltr" dominant-baseline="text-before-edge">Checker</text></g><g stroke-linecap="round" transform="translate(432.38588897911814 57.5172332415259) rotate(0 71 28)"><path d="M14 0 M14 0 C41.55 0, 69.1 0, 128 0 M14 0 C43.16 0, 72.32 0, 128 0 M128 0 C137.33 0, 142 4.67, 142 14 M128 0 C137.33 0, 142 4.67, 142 14 M142 14 C142 21.81, 142 29.62, 142 42 M142 14 C142 22.08, 142 30.16, 142 42 M142 42 C142 51.33, 137.33 56, 128 56 M142 42 C142 51.33, 137.33 56, 128 56 M128 56 C102.3 56, 76.6 56, 14 56 M128 56 C90.7 56, 53.39 56, 14 56 M14 56 C4.67 56, 0 51.33, 0 42 M14 56 C4.67 56, 0 51.33, 0 42 M0 42 C0 35.8, 0 29.59, 0 14 M0 42 C0 34.52, 0 27.05, 0 14 M0 14 C0 4.67, 4.67 0, 14 0 M0 14 C0 4.67, 4.67 0, 14 0" stroke="#000000" stroke-width="2" fill="none"></path></g><g transform="translate(449.13979522911814 67.11723324152626) rotate(0 54.24609375 18.40000000000009)"><text x="54.24609375" y="0" font-family="Helvetica, Segoe UI Emoji" font-size="16px" fill="#000000" text-anchor="middle" style="white-space: pre;" direction="ltr" dominant-baseline="text-before-edge">Symbol Tables </text><text x="54.24609375" y="18.4" font-family="Helvetica, Segoe UI Emoji" font-size="16px" fill="#000000" text-anchor="middle" style="white-space: pre;" direction="ltr" dominant-baseline="text-before-edge">Builder</text></g><g stroke-linecap="round"><g transform="translate(505.2755290060045 114.5172332415259) rotate(0 0.27750272184289315 91.58525184917517)"><path d="M0 0 C0.21 70.06, 0.42 140.12, 0.56 183.17 M0 0 C0.15 47.94, 0.29 95.88, 0.56 183.17" stroke="#000000" stroke-width="2" fill="none"></path></g><g transform="translate(505.2755290060045 114.5172332415259) rotate(0 0.27750272184289315 91.58525184917517)"><path d="M-9.79 155.01 C-5.83 165.78, -1.88 176.55, 0.56 183.17 M-9.79 155.01 C-7.08 162.38, -4.38 169.75, 0.56 183.17" stroke="#000000" stroke-width="2" fill="none"></path></g><g transform="translate(505.2755290060045 114.5172332415259) rotate(0 0.27750272184289315 91.58525184917517)"><path d="M10.73 154.95 C6.84 165.74, 2.95 176.54, 0.56 183.17 M10.73 154.95 C8.07 162.34, 5.4 169.72, 0.56 183.17" stroke="#000000" stroke-width="2" fill="none"></path></g></g><mask></mask><g stroke-linecap="round"><g transform="translate(431.38588897911836 86.43911002932055) rotate(0 -13.924546580398328 119.82782204807972)"><path d="M0 0 C-17.34 0.08, -34.69 0.17, -57.84 0.28 M0 0 C-14.31 0.07, -28.61 0.14, -57.84 0.28 M-57.84 0.28 C-57.69 79.99, -57.54 159.7, -57.4 239.66 M-57.84 0.28 C-57.73 59.3, -57.62 118.33, -57.4 239.66 M-57.4 239.66 C-27.03 239.61, 3.35 239.56, 29.99 239.51 M-57.4 239.66 C-39.75 239.63, -22.09 239.6, 29.99 239.51" stroke="#000000" stroke-width="2" fill="none"></path></g><g transform="translate(431.38588897911836 86.43911002932055) rotate(0 -13.924546580398328 119.82782204807972)"><path d="M-28.14 10.4 C-19.7 7.28, -11.26 4.16, 0 0 M-28.14 10.4 C-21.18 7.82, -14.22 5.25, 0 0" stroke="#000000" stroke-width="2" fill="none"></path></g><g transform="translate(431.38588897911836 86.43911002932055) rotate(0 -13.924546580398328 119.82782204807972)"><path d="M-28.24 -10.13 C-19.77 -7.09, -11.3 -4.05, 0 0 M-28.24 -10.13 C-21.25 -7.62, -14.27 -5.12, 0 0" stroke="#000000" stroke-width="2" fill="none"></path></g><g transform="translate(431.38588897911836 86.43911002932055) rotate(0 -13.924546580398328 119.82782204807972)"><path d="M1.81 249.82 C10.26 246.73, 18.71 243.64, 29.99 239.51 M1.81 249.82 C8.78 247.27, 15.75 244.72, 29.99 239.51" stroke="#000000" stroke-width="2" fill="none"></path></g><g transform="translate(431.38588897911836 86.43911002932055) rotate(0 -13.924546580398328 119.82782204807972)"><path d="M1.78 229.3 C10.24 232.36, 18.7 235.42, 29.99 239.51 M1.78 229.3 C8.76 231.83, 15.73 234.35, 29.99 239.51" stroke="#000000" stroke-width="2" fill="none"></path></g></g><mask></mask><g transform="translate(321.9983003511916 187.65882607327967) rotate(359.6281236952367 15.55859375 9.199999999999818)"><text x="15.55859375" y="0" font-family="Helvetica, Segoe UI Emoji" font-size="16px" fill="#000000" text-anchor="middle" style="white-space: pre;" direction="ltr" dominant-baseline="text-before-edge">AST</text></g><g transform="translate(471.8091472798824 191.0190740004391) rotate(89.5507388674139 48.0234375 9.199999999999818)"><text x="48.0234375" y="0" font-family="Helvetica, Segoe UI Emoji" font-size="16px" fill="#000000" text-anchor="middle" style="white-space: pre;" direction="ltr" dominant-baseline="text-before-edge">Symbol Table</text></g><g stroke-linecap="round"><g transform="translate(306.2086897150532 208.63342708003074) rotate(0 33.257099233450845 -0.2579428933308918)"><path d="M0 0 C11.09 -0.09, 55.43 -0.43, 66.51 -0.52 M0 0 C11.09 -0.09, 55.43 -0.43, 66.51 -0.52" stroke="#000000" stroke-width="2" fill="none"></path></g></g><mask></mask><g stroke-linecap="round" transform="translate(160.4445038488011 34.135987379358085) rotate(0 219.37732835543625 171.51728572583534)"><path d="M32 0 M32 0 C119.71 0, 207.42 0, 406.75 0 M32 0 C134.71 0, 237.42 0, 406.75 0 M406.75 0 C428.09 0, 438.75 10.67, 438.75 32 M406.75 0 C428.09 0, 438.75 10.67, 438.75 32 M438.75 32 C438.75 92.1, 438.75 152.19, 438.75 311.03 M438.75 32 C438.75 95.36, 438.75 158.72, 438.75 311.03 M438.75 311.03 C438.75 332.37, 428.09 343.03, 406.75 343.03 M438.75 311.03 C438.75 332.37, 428.09 343.03, 406.75 343.03 M406.75 343.03 C261.08 343.03, 115.4 343.03, 32 343.03 M406.75 343.03 C312.51 343.03, 218.26 343.03, 32 343.03 M32 343.03 C10.67 343.03, 0 332.37, 0 311.03 M32 343.03 C10.67 343.03, 0 332.37, 0 311.03 M0 311.03 C0 252.37, 0 193.7, 0 32 M0 311.03 C0 233.77, 0 156.5, 0 32 M0 32 C0 10.67, 10.67 0, 32 0 M0 32 C0 10.67, 10.67 0, 32 0" stroke="#000000" stroke-width="2" fill="none"></path></g><g stroke-linecap="round"><g transform="translate(64.2269187880238 204.22651991418206) rotate(0 47.26212124294784 -0.12162279087806382)"><path d="M0 0 C15.75 -0.04, 78.77 -0.2, 94.52 -0.24 M0 0 C15.75 -0.04, 78.77 -0.2, 94.52 -0.24" stroke="#000000" stroke-width="2" fill="none"></path></g><g transform="translate(64.2269187880238 204.22651991418206) rotate(0 47.26212124294784 -0.12162279087806382)"><path d="M66.36 10.09 C72.93 7.68, 79.5 5.27, 94.52 -0.24 M66.36 10.09 C73.92 7.32, 81.49 4.54, 94.52 -0.24" stroke="#000000" stroke-width="2" fill="none"></path></g><g transform="translate(64.2269187880238 204.22651991418206) rotate(0 47.26212124294784 -0.12162279087806382)"><path d="M66.31 -10.43 C72.89 -8.05, 79.47 -5.68, 94.52 -0.24 M66.31 -10.43 C73.88 -7.7, 81.46 -4.96, 94.52 -0.24" stroke="#000000" stroke-width="2" fill="none"></path></g></g><mask></mask><g stroke-linecap="round"><g transform="translate(600.1991605596736 207.0452859869647) rotate(0 92.96827003695762 -0.32993115233557546)"><path d="M0 0 C30.99 -0.11, 154.95 -0.55, 185.94 -0.66 M0 0 C30.99 -0.11, 154.95 -0.55, 185.94 -0.66" stroke="#000000" stroke-width="2" fill="none"></path></g><g transform="translate(600.1991605596736 207.0452859869647) rotate(0 92.96827003695762 -0.32993115233557546)"><path d="M157.78 9.7 C166.92 6.34, 176.05 2.98, 185.94 -0.66 M157.78 9.7 C167.94 5.96, 178.09 2.23, 185.94 -0.66" stroke="#000000" stroke-width="2" fill="none"></path></g><g transform="translate(600.1991605596736 207.0452859869647) rotate(0 92.96827003695762 -0.32993115233557546)"><path d="M157.71 -10.82 C166.87 -7.52, 176.02 -4.23, 185.94 -0.66 M157.71 -10.82 C167.89 -7.16, 178.07 -3.49, 185.94 -0.66" stroke="#000000" stroke-width="2" fill="none"></path></g></g><mask></mask><g transform="translate(609.4214582495229 182.02894156932416) rotate(0 67.140625 9.199999999999818)"><text x="67.140625" y="0" font-family="Helvetica, Segoe UI Emoji" font-size="16px" fill="#000000" text-anchor="middle" style="white-space: pre;" direction="ltr" dominant-baseline="text-before-edge">AST, Symbol Table</text></g><g stroke-linecap="round" transform="translate(787.1739083003868 182.21759102385568) rotate(0 73.73138762756594 23.40000000000009)"><path d="M11.7 0 M11.7 0 C61.32 0, 110.94 0, 135.76 0 M11.7 0 C55.34 0, 98.99 0, 135.76 0 M135.76 0 C143.56 0, 147.46 3.9, 147.46 11.7 M135.76 0 C143.56 0, 147.46 3.9, 147.46 11.7 M147.46 11.7 C147.46 20.02, 147.46 28.34, 147.46 35.1 M147.46 11.7 C147.46 16.42, 147.46 21.13, 147.46 35.1 M147.46 35.1 C147.46 42.9, 143.56 46.8, 135.76 46.8 M147.46 35.1 C147.46 42.9, 143.56 46.8, 135.76 46.8 M135.76 46.8 C105.77 46.8, 75.78 46.8, 11.7 46.8 M135.76 46.8 C102.96 46.8, 70.16 46.8, 11.7 46.8 M11.7 46.8 C3.9 46.8, 0 42.9, 0 35.1 M11.7 46.8 C3.9 46.8, 0 42.9, 0 35.1 M0 35.1 C0 26.14, 0 17.18, 0 11.7 M0 35.1 C0 28.33, 0 21.56, 0 11.7 M0 11.7 C0 3.9, 3.9 0, 11.7 0 M0 11.7 C0 3.9, 3.9 0, 11.7 0" stroke="#000000" stroke-width="2" fill="none"></path></g><g transform="translate(822.2138896779534 187.21759102385568) rotate(0 38.69140625 18.40000000000009)"><text x="38.69140625" y="0" font-family="Helvetica, Segoe UI Emoji" font-size="16px" fill="#000000" text-anchor="middle" style="white-space: pre;" direction="ltr" dominant-baseline="text-before-edge">AppSepcs </text><text x="38.69140625" y="18.4" font-family="Helvetica, Segoe UI Emoji" font-size="16px" fill="#000000" text-anchor="middle" style="white-space: pre;" direction="ltr" dominant-baseline="text-before-edge">Generator</text></g><g stroke-linecap="round"><g transform="translate(935.6366835555186 205.1373000204303) rotate(0 67.44799390827757 -0.07067505267286833)"><path d="M0 0 C22.48 -0.02, 112.41 -0.12, 134.9 -0.14 M0 0 C22.48 -0.02, 112.41 -0.12, 134.9 -0.14" stroke="#000000" stroke-width="2" fill="none"></path></g><g transform="translate(935.6366835555186 205.1373000204303) rotate(0 67.44799390827757 -0.07067505267286833)"><path d="M106.72 10.15 C114.93 7.15, 123.15 4.15, 134.9 -0.14 M106.72 10.15 C112.78 7.93, 118.85 5.72, 134.9 -0.14" stroke="#000000" stroke-width="2" fill="none"></path></g><g transform="translate(935.6366835555186 205.1373000204303) rotate(0 67.44799390827757 -0.07067505267286833)"><path d="M106.69 -10.37 C114.92 -7.39, 123.14 -4.41, 134.9 -0.14 M106.69 -10.37 C112.76 -8.17, 118.83 -5.97, 134.9 -0.14" stroke="#000000" stroke-width="2" fill="none"></path></g></g><mask></mask><g transform="translate(952.9708766115182 181.5463813390188) rotate(0 36.46875 9.199999999999818)"><text x="36.46875" y="0" font-family="Helvetica, Segoe UI Emoji" font-size="16px" fill="#000000" text-anchor="middle" style="white-space: pre;" direction="ltr" dominant-baseline="text-before-edge">AppSpecs</text></g><g transform="translate(1152.6976028496197 485.7676070885682) rotate(0 27.847007751464844 7.02932172690771)"><text x="0" y="0" font-family="Helvetica, Segoe UI Emoji" font-size="12.224907351143573px" fill="#000" text-anchor="start" style="white-space: pre;" direction="ltr" dominant-baseline="text-before-edge">Templates</text></g><g stroke-linecap="round" transform="translate(1153.7857826500126 405.32141818552645) rotate(0 26.85147447244367 36.593167249572616)"><path d="M0 0 L53.7 0 L53.7 73.19 L0 73.19" stroke="none" stroke-width="0" fill="#feeb9e"></path><path d="M0 0 C18.42 0, 36.85 0, 53.7 0 M0 0 C20.74 0, 41.49 0, 53.7 0 M53.7 0 C53.7 28.41, 53.7 56.81, 53.7 73.19 M53.7 0 C53.7 26.72, 53.7 53.43, 53.7 73.19 M53.7 73.19 C38.46 73.19, 23.21 73.19, 0 73.19 M53.7 73.19 C34.42 73.19, 15.14 73.19, 0 73.19 M0 73.19 C0 45.95, 0 18.71, 0 0 M0 73.19 C0 55.38, 0 37.58, 0 0" stroke="#000000" stroke-width="2" fill="none"></path></g><g stroke-linecap="round"><g transform="translate(1190.0245082625852 405.27253112073686) rotate(0 8.867582961297103 8.756275975637436)" fill-rule="evenodd"><path d="M0 0 L0.17 17.51 L17.74 17.28 L0 0" stroke="none" stroke-width="0" fill="#e6c45f" fill-rule="evenodd"></path><path d="M0 0 C0.05 4.89, 0.09 9.77, 0.17 17.51 M0 0 C0.04 4.68, 0.09 9.36, 0.17 17.51 M0.17 17.51 C4.12 17.46, 8.07 17.41, 17.74 17.28 M0.17 17.51 C5.83 17.44, 11.5 17.36, 17.74 17.28 M17.74 17.28 C11.32 11.02, 4.9 4.77, 0 0 M17.74 17.28 C12.03 11.72, 6.32 6.16, 0 0 M0 0 C0 0, 0 0, 0 0 M0 0 C0 0, 0 0, 0 0" stroke="#000" stroke-width="2" fill="none"></path></g></g><mask></mask><g stroke-linecap="round"><g transform="translate(1191.0526472832457 402.73768826614014) rotate(179.75453245381487 9.628942354217315 10.449816631109115)" fill-rule="evenodd"><path d="M0 0 L-0.15 22.02 L20.55 20.35 L-1.3 -1.12" stroke="none" stroke-width="0" fill="#fff" fill-rule="evenodd"></path><path d="M0 0 C-0.05 6.88, -0.09 13.76, -0.15 22.02 M0 0 C-0.05 7.82, -0.11 15.65, -0.15 22.02 M-0.15 22.02 C4.44 21.65, 9.02 21.28, 20.55 20.35 M-0.15 22.02 C5.45 21.57, 11.05 21.11, 20.55 20.35 M20.55 20.35 C13.69 13.6, 6.83 6.86, -1.3 -1.12 M20.55 20.35 C14.16 14.06, 7.76 7.78, -1.3 -1.12 M-1.3 -1.12 C-0.88 -0.76, -0.46 -0.4, 0 0 M-1.3 -1.12 C-0.81 -0.7, -0.32 -0.28, 0 0" stroke="transparent" stroke-width="2" fill="none"></path></g></g><mask></mask><g transform="translate(1166.3789553377633 441.1122388649228) rotate(0 12.541537205707755 12.652779108433606)"><text x="0" y="0" font-family="Helvetica, Segoe UI Emoji" font-size="22.00483323205843px" fill="#000" text-anchor="start" style="white-space: pre;" direction="ltr" dominant-baseline="text-before-edge">&gt;_</text></g><g stroke-linecap="round" transform="translate(1071.5326713720738 72.6208660203365) rotate(0 112.73416979986928 131.92910676944211)"><path d="M32 0 M32 0 C96.02 0, 160.05 0, 193.47 0 M32 0 C66.76 0, 101.52 0, 193.47 0 M193.47 0 C214.8 0, 225.47 10.67, 225.47 32 M193.47 0 C214.8 0, 225.47 10.67, 225.47 32 M225.47 32 C225.47 76.81, 225.47 121.63, 225.47 231.86 M225.47 32 C225.47 94.24, 225.47 156.48, 225.47 231.86 M225.47 231.86 C225.47 253.19, 214.8 263.86, 193.47 263.86 M225.47 231.86 C225.47 253.19, 214.8 263.86, 193.47 263.86 M193.47 263.86 C150.85 263.86, 108.24 263.86, 32 263.86 M193.47 263.86 C128.96 263.86, 64.45 263.86, 32 263.86 M32 263.86 C10.67 263.86, 0 253.19, 0 231.86 M32 263.86 C10.67 263.86, 0 253.19, 0 231.86 M0 231.86 C0 178.41, 0 124.97, 0 32 M0 231.86 C0 175.47, 0 119.08, 0 32 M0 32 C0 10.67, 10.67 0, 32 0 M0 32 C0 10.67, 10.67 0, 32 0" stroke="#000000" stroke-width="2" fill="none"></path></g><g stroke-linecap="round" transform="translate(1098.932044745783 97.39837525906478) rotate(0 84.66117539059269 27.84908319788792)"><path d="M13.92 0 M13.92 0 C53.7 0, 93.47 0, 155.4 0 M13.92 0 C46.32 0, 78.72 0, 155.4 0 M155.4 0 C164.68 0, 169.32 4.64, 169.32 13.92 M155.4 0 C164.68 0, 169.32 4.64, 169.32 13.92 M169.32 13.92 C169.32 20.19, 169.32 26.45, 169.32 41.77 M169.32 13.92 C169.32 25.03, 169.32 36.13, 169.32 41.77 M169.32 41.77 C169.32 51.06, 164.68 55.7, 155.4 55.7 M169.32 41.77 C169.32 51.06, 164.68 55.7, 155.4 55.7 M155.4 55.7 C105.16 55.7, 54.91 55.7, 13.92 55.7 M155.4 55.7 C102.57 55.7, 49.75 55.7, 13.92 55.7 M13.92 55.7 C4.64 55.7, 0 51.06, 0 41.77 M13.92 55.7 C4.64 55.7, 0 51.06, 0 41.77 M0 41.77 C0 32.17, 0 22.56, 0 13.92 M0 41.77 C0 33.49, 0 25.21, 0 13.92 M0 13.92 C0 4.64, 4.64 0, 13.92 0 M0 13.92 C0 4.64, 4.64 0, 13.92 0" stroke="#000000" stroke-width="2" fill="none"></path></g><g transform="translate(1111.1049388863757 116.04745845695288) rotate(0 72.48828125 9.199999999999818)"><text x="72.48828125" y="0" font-family="Helvetica, Segoe UI Emoji" font-size="16px" fill="#000000" text-anchor="middle" style="white-space: pre;" direction="ltr" dominant-baseline="text-before-edge">Database Generator</text></g><g stroke-linecap="round" transform="translate(1099.3775212370879 175.6724815554362) rotate(0 84.66117539059269 27.84908319788792)"><path d="M13.92 0 M13.92 0 C66.75 0, 119.58 0, 155.4 0 M13.92 0 C54.09 0, 94.26 0, 155.4 0 M155.4 0 C164.68 0, 169.32 4.64, 169.32 13.92 M155.4 0 C164.68 0, 169.32 4.64, 169.32 13.92 M169.32 13.92 C169.32 22.21, 169.32 30.49, 169.32 41.77 M169.32 13.92 C169.32 20.27, 169.32 26.61, 169.32 41.77 M169.32 41.77 C169.32 51.06, 164.68 55.7, 155.4 55.7 M169.32 41.77 C169.32 51.06, 164.68 55.7, 155.4 55.7 M155.4 55.7 C126.61 55.7, 97.83 55.7, 13.92 55.7 M155.4 55.7 C122.22 55.7, 89.04 55.7, 13.92 55.7 M13.92 55.7 C4.64 55.7, 0 51.06, 0 41.77 M13.92 55.7 C4.64 55.7, 0 51.06, 0 41.77 M0 41.77 C0 36.2, 0 30.62, 0 13.92 M0 41.77 C0 32.88, 0 23.99, 0 13.92 M0 13.92 C0 4.64, 4.64 0, 13.92 0 M0 13.92 C0 4.64, 4.64 0, 13.92 0" stroke="#000000" stroke-width="2" fill="none"></path></g><g transform="translate(1122.2340091276806 194.3215647533243) rotate(0 61.8046875 9.199999999999818)"><text x="61.8046875" y="0" font-family="Helvetica, Segoe UI Emoji" font-size="16px" fill="#000000" text-anchor="middle" style="white-space: pre;" direction="ltr" dominant-baseline="text-before-edge">Server Generator</text></g><g stroke-linecap="round" transform="translate(1099.8231609065956 253.6724815554362) rotate(0 84.66117539059269 27.84908319788792)"><path d="M13.92 0 M13.92 0 C49.2 0, 84.48 0, 155.4 0 M13.92 0 C64.54 0, 115.16 0, 155.4 0 M155.4 0 C164.68 0, 169.32 4.64, 169.32 13.92 M155.4 0 C164.68 0, 169.32 4.64, 169.32 13.92 M169.32 13.92 C169.32 21.86, 169.32 29.79, 169.32 41.77 M169.32 13.92 C169.32 22.41, 169.32 30.89, 169.32 41.77 M169.32 41.77 C169.32 51.06, 164.68 55.7, 155.4 55.7 M169.32 41.77 C169.32 51.06, 164.68 55.7, 155.4 55.7 M155.4 55.7 C119.45 55.7, 83.5 55.7, 13.92 55.7 M155.4 55.7 C104.16 55.7, 52.93 55.7, 13.92 55.7 M13.92 55.7 C4.64 55.7, 0 51.06, 0 41.77 M13.92 55.7 C4.64 55.7, 0 51.06, 0 41.77 M0 41.77 C0 31.42, 0 21.06, 0 13.92 M0 41.77 C0 34.93, 0 28.1, 0 13.92 M0 13.92 C0 4.64, 4.64 0, 13.92 0 M0 13.92 C0 4.64, 4.64 0, 13.92 0" stroke="#000000" stroke-width="2" fill="none"></path></g><g transform="translate(1125.7890237971883 272.3215647533243) rotate(0 58.6953125 9.199999999999818)"><text x="58.6953125" y="0" font-family="Helvetica, Segoe UI Emoji" font-size="16px" fill="#000000" text-anchor="middle" style="white-space: pre;" direction="ltr" dominant-baseline="text-before-edge">Client Generator</text></g><g stroke-linecap="round"><g transform="translate(1177.9565580307421 404.32141818552645) rotate(0 0.37440855867475875 -33.249916631773885)"><path d="M0 0 C0.3 -26.51, 0.6 -53.02, 0.75 -66.5 M0 0 C0.29 -25.98, 0.58 -51.95, 0.75 -66.5" stroke="#000000" stroke-width="2" fill="none"></path></g><g transform="translate(1177.9565580307421 404.32141818552645) rotate(0 0.37440855867475875 -33.249916631773885)"><path d="M10.69 -38.2 C6.73 -49.48, 2.76 -60.76, 0.75 -66.5 M10.69 -38.2 C6.81 -49.25, 2.92 -60.31, 0.75 -66.5" stroke="#000000" stroke-width="2" fill="none"></path></g><g transform="translate(1177.9565580307421 404.32141818552645) rotate(0 0.37440855867475875 -33.249916631773885)"><path d="M-9.83 -38.43 C-5.61 -49.62, -1.4 -60.81, 0.75 -66.5 M-9.83 -38.43 C-5.7 -49.39, -1.57 -60.36, 0.75 -66.5" stroke="#000000" stroke-width="2" fill="none"></path></g></g><mask></mask><g stroke-linecap="round"><g transform="translate(1269.2543955269684 125.63689045016326) rotate(0 65.21091254998146 -35.12219345503945)"><path d="M0 0 C27.8 -14.97, 55.59 -29.94, 130.42 -70.24 M0 0 C39.17 -21.1, 78.34 -42.2, 130.42 -70.24" stroke="#000000" stroke-width="2" fill="none"></path></g><g transform="translate(1269.2543955269684 125.63689045016326) rotate(0 65.21091254998146 -35.12219345503945)"><path d="M110.47 -47.84 C114.72 -52.62, 118.97 -57.39, 130.42 -70.24 M110.47 -47.84 C116.46 -54.57, 122.45 -61.3, 130.42 -70.24" stroke="#000000" stroke-width="2" fill="none"></path></g><g transform="translate(1269.2543955269684 125.63689045016326) rotate(0 65.21091254998146 -35.12219345503945)"><path d="M100.74 -65.91 C107.06 -66.83, 113.39 -67.76, 130.42 -70.24 M100.74 -65.91 C109.65 -67.21, 118.57 -68.51, 130.42 -70.24" stroke="#000000" stroke-width="2" fill="none"></path></g></g><mask></mask><g transform="translate(1409.4602040761256 246.74261220173685) rotate(0 19.125 9.199999999999818)"><text x="0" y="0" font-family="Helvetica, Segoe UI Emoji" font-size="16px" fill="#000" text-anchor="start" style="white-space: pre;" direction="ltr" dominant-baseline="text-before-edge">Node</text></g><g stroke-linecap="round" transform="translate(1403.043947606011 168.16294008313616) rotate(0 26.349938458402676 35.90967438357302)"><path d="M0 0 L52.7 0 L52.7 71.82 L0 71.82" stroke="none" stroke-width="0" fill="#80bd00"></path><path d="M0 0 C19.98 0, 39.96 0, 52.7 0 M0 0 C11.4 0, 22.8 0, 52.7 0 M52.7 0 C52.7 27.88, 52.7 55.76, 52.7 71.82 M52.7 0 C52.7 24.3, 52.7 48.59, 52.7 71.82 M52.7 71.82 C33.98 71.82, 15.25 71.82, 0 71.82 M52.7 71.82 C37.15 71.82, 21.6 71.82, 0 71.82 M0 71.82 C0 57.24, 0 42.66, 0 0 M0 71.82 C0 45.83, 0 19.85, 0 0" stroke="#000000" stroke-width="2" fill="none"></path></g><g stroke-linecap="round" transform="translate(1426.6480273956372 176.84996926918302) rotate(0 17.495776947360127 8.99742647353196)"><path d="M0 0 L34.99 0 L34.99 17.99 L0 17.99" stroke="none" stroke-width="0" fill="#fff"></path><path d="M0 0 C8.45 0, 16.9 0, 34.99 0 M0 0 C8.77 0, 17.55 0, 34.99 0 M34.99 0 C34.99 5.86, 34.99 11.72, 34.99 17.99 M34.99 0 C34.99 6.36, 34.99 12.72, 34.99 17.99 M34.99 17.99 C24.74 17.99, 14.49 17.99, 0 17.99 M34.99 17.99 C23.3 17.99, 11.61 17.99, 0 17.99 M0 17.99 C0 13.14, 0 8.28, 0 0 M0 17.99 C0 12, 0 6, 0 0" stroke="#000000" stroke-width="2" fill="none"></path></g><g transform="translate(1430.4443018971629 180.13053924244014) rotate(0 11.471718753753294 5.51842157043302)"><text x="0" y="0" font-family="Helvetica, Segoe UI Emoji" font-size="9.597254905100703px" fill="#000000" text-anchor="start" style="white-space: pre;" direction="ltr" dominant-baseline="text-before-edge">Node</text></g><g stroke-linecap="round"><g transform="translate(1408.3870062753804 220.18117459089808) rotate(0 4.107275470685863 1.7230067563277771)" fill-rule="evenodd"><path d="M0 0 L-0.15 6 L2.6 4.55 L2.83 1.39 L4.11 0.4 L5.51 1.44 L5.58 4.48 L8.29 5.95 L8.36 -0.08 L3.99 -2.56" stroke="none" stroke-width="0" fill="#333333" fill-rule="evenodd"></path><path d="M0 0 C-0.06 2.24, -0.11 4.49, -0.15 6 M0 0 C-0.04 1.66, -0.08 3.32, -0.15 6 M-0.15 6 C0.64 5.59, 1.44 5.17, 2.6 4.55 M-0.15 6 C0.87 5.47, 1.89 4.93, 2.6 4.55 M2.6 4.55 C2.67 3.66, 2.73 2.77, 2.83 1.39 M2.6 4.55 C2.67 3.59, 2.74 2.64, 2.83 1.39 M2.83 1.39 C3.28 1.05, 3.72 0.7, 4.11 0.4 M2.83 1.39 C3.19 1.11, 3.56 0.83, 4.11 0.4 M4.11 0.4 C4.42 0.64, 4.74 0.87, 5.51 1.44 M4.11 0.4 C4.58 0.75, 5.05 1.1, 5.51 1.44 M5.51 1.44 C5.54 2.56, 5.56 3.68, 5.58 4.48 M5.51 1.44 C5.53 2.41, 5.56 3.38, 5.58 4.48 M5.58 4.48 C6.55 5, 7.52 5.53, 8.29 5.95 M5.58 4.48 C6.48 4.96, 7.37 5.45, 8.29 5.95 M8.29 5.95 C8.31 4.36, 8.33 2.78, 8.36 -0.08 M8.29 5.95 C8.31 4, 8.34 2.05, 8.36 -0.08 M8.36 -0.08 C7.27 -0.7, 6.17 -1.32, 3.99 -2.56 M8.36 -0.08 C6.97 -0.87, 5.57 -1.66, 3.99 -2.56 M3.99 -2.56 C2.55 -1.63, 1.11 -0.71, 0 0 M3.99 -2.56 C3.11 -1.99, 2.23 -1.43, 0 0" stroke="#333333" stroke-width="2" fill="none"></path></g></g><mask></mask><g stroke-linecap="round"><g transform="translate(1424.3777977367772 217.49014903264833) rotate(0 -0.21680164974941363 4.785289086661123)" fill-rule="evenodd"><path d="M0 0 L-4.3 2.2 L-4.47 7.16 L-0.4 9.57 L3.9 7.63 L4.03 2.35" stroke="none" stroke-width="0" fill="#fff" fill-rule="evenodd"></path><path d="M0 0 C-1.41 0.72, -2.82 1.45, -4.3 2.2 M0 0 C-1.61 0.82, -3.21 1.65, -4.3 2.2 M-4.3 2.2 C-4.34 3.44, -4.38 4.67, -4.47 7.16 M-4.3 2.2 C-4.34 3.52, -4.39 4.83, -4.47 7.16 M-4.47 7.16 C-3.47 7.74, -2.48 8.33, -0.4 9.57 M-4.47 7.16 C-2.89 8.09, -1.31 9.03, -0.4 9.57 M-0.4 9.57 C1.21 8.84, 2.81 8.12, 3.9 7.63 M-0.4 9.57 C1.12 8.88, 2.64 8.2, 3.9 7.63 M3.9 7.63 C3.95 5.51, 4.01 3.4, 4.03 2.35 M3.9 7.63 C3.93 6.42, 3.96 5.22, 4.03 2.35 M4.03 2.35 C2.52 1.46, 1 0.58, 0 0 M4.03 2.35 C2.64 1.54, 1.25 0.73, 0 0" stroke="#fff" stroke-width="2" fill="none"></path></g></g><mask></mask><g stroke-linecap="round"><g transform="translate(1437.338465483684 211.81144445793416) rotate(0 -1.5271198269106208 7.845807589658307)" fill-rule="evenodd"><path d="M0 0 L2.85 1.68 L2.8 12.86 L-1.28 15.69 L-5.83 13.22 L-5.91 8.19 L-1.58 5.82 L-0.24 6.7 L-0.12 0.06" stroke="none" stroke-width="0" fill="#333333" fill-rule="evenodd"></path><path d="M0 0 C0.95 0.56, 1.91 1.12, 2.85 1.68 M0 0 C0.82 0.48, 1.64 0.97, 2.85 1.68 M2.85 1.68 C2.84 4.69, 2.83 7.71, 2.8 12.86 M2.85 1.68 C2.84 4.54, 2.83 7.4, 2.8 12.86 M2.8 12.86 C1.9 13.48, 1 14.11, -1.28 15.69 M2.8 12.86 C1.55 13.73, 0.3 14.59, -1.28 15.69 M-1.28 15.69 C-2.2 15.19, -3.12 14.69, -5.83 13.22 M-1.28 15.69 C-2.94 14.79, -4.61 13.89, -5.83 13.22 M-5.83 13.22 C-5.85 11.74, -5.87 10.26, -5.91 8.19 M-5.83 13.22 C-5.85 11.95, -5.87 10.68, -5.91 8.19 M-5.91 8.19 C-4.93 7.65, -3.96 7.12, -1.58 5.82 M-5.91 8.19 C-4.64 7.5, -3.38 6.81, -1.58 5.82 M-1.58 5.82 C-1.09 6.14, -0.6 6.46, -0.24 6.7 M-1.58 5.82 C-1.15 6.11, -0.71 6.39, -0.24 6.7 M-0.24 6.7 C-0.2 4.66, -0.17 2.62, -0.12 0.06 M-0.24 6.7 C-0.2 4.56, -0.16 2.41, -0.12 0.06 M-0.12 0.06 C-0.09 0.05, -0.06 0.03, 0 0 M-0.12 0.06 C-0.1 0.05, -0.07 0.04, 0 0" stroke="#333333" stroke-width="2" fill="none"></path></g></g><mask></mask><g stroke-linecap="round"><g transform="translate(1435.790569302179 220.82281816780323) rotate(0 -0.09788234197935708 1.4923282319537066)" fill-rule="evenodd"><path d="M0 0 L-1.48 0.85 L-1.41 2.1 L0.02 2.98 L1.26 2.28 L1.29 0.74" stroke="none" stroke-width="0" fill="#80bd00" fill-rule="evenodd"></path><path d="M0 0 C-0.42 0.24, -0.85 0.49, -1.48 0.85 M0 0 C-0.54 0.31, -1.07 0.62, -1.48 0.85 M-1.48 0.85 C-1.46 1.27, -1.43 1.69, -1.41 2.1 M-1.48 0.85 C-1.47 1.12, -1.45 1.38, -1.41 2.1 M-1.41 2.1 C-0.9 2.41, -0.39 2.73, 0.02 2.98 M-1.41 2.1 C-0.85 2.44, -0.29 2.79, 0.02 2.98 M0.02 2.98 C0.52 2.7, 1.01 2.42, 1.26 2.28 M0.02 2.98 C0.34 2.81, 0.65 2.63, 1.26 2.28 M1.26 2.28 C1.27 1.74, 1.28 1.2, 1.29 0.74 M1.26 2.28 C1.27 1.85, 1.28 1.42, 1.29 0.74 M1.29 0.74 C0.89 0.51, 0.5 0.29, 0 0 M1.29 0.74 C0.9 0.51, 0.51 0.29, 0 0" stroke="#80bd00" stroke-width="2" fill="none"></path></g></g><mask></mask><g stroke-linecap="round"><g transform="translate(1447.5688521030947 217.34952645416706) rotate(0 -0.1992869652040099 4.964574814083335)" fill-rule="evenodd"><path d="M0 0 L3.99 2.53 L3.95 4.19 L1.55 5.62 L1.58 4.08 L-0.11 3.04 L-1.69 3.95 L-1.77 5.95 L2.18 8.38 L-0.29 9.93 L-4.38 7.57 L-4.39 2.57 L0 0" stroke="none" stroke-width="0" fill="#333333" fill-rule="evenodd"></path><path d="M0 0 C1.21 0.77, 2.43 1.54, 3.99 2.53 M0 0 C1.45 0.92, 2.91 1.84, 3.99 2.53 M3.99 2.53 C3.98 2.95, 3.97 3.37, 3.95 4.19 M3.99 2.53 C3.98 2.92, 3.97 3.31, 3.95 4.19 M3.95 4.19 C3 4.75, 2.05 5.32, 1.55 5.62 M3.95 4.19 C3.43 4.5, 2.91 4.81, 1.55 5.62 M1.55 5.62 C1.56 5.12, 1.57 4.63, 1.58 4.08 M1.55 5.62 C1.56 5.31, 1.56 5, 1.58 4.08 M1.58 4.08 C0.91 3.66, 0.23 3.25, -0.11 3.04 M1.58 4.08 C1.15 3.82, 0.73 3.56, -0.11 3.04 M-0.11 3.04 C-0.71 3.38, -1.3 3.72, -1.69 3.95 M-0.11 3.04 C-0.44 3.23, -0.76 3.41, -1.69 3.95 M-1.69 3.95 C-1.72 4.69, -1.75 5.44, -1.77 5.95 M-1.69 3.95 C-1.71 4.56, -1.74 5.17, -1.77 5.95 M-1.77 5.95 C-0.79 6.55, 0.19 7.16, 2.18 8.38 M-1.77 5.95 C-0.25 6.89, 1.28 7.83, 2.18 8.38 M2.18 8.38 C1.67 8.7, 1.16 9.02, -0.29 9.93 M2.18 8.38 C1.43 8.85, 0.67 9.33, -0.29 9.93 M-0.29 9.93 C-1.84 9.04, -3.38 8.15, -4.38 7.57 M-0.29 9.93 C-1.73 9.1, -3.16 8.27, -4.38 7.57 M-4.38 7.57 C-4.38 6.55, -4.38 5.53, -4.39 2.57 M-4.38 7.57 C-4.38 6.3, -4.38 5.03, -4.39 2.57 M-4.39 2.57 C-3.38 1.98, -2.37 1.39, 0 0 M-4.39 2.57 C-2.64 1.54, -0.89 0.52, 0 0 M0 0 C0 0, 0 0, 0 0 M0 0 C0 0, 0 0, 0 0" stroke="#333333" stroke-width="2" fill="none"></path></g></g><mask></mask><g stroke-linecap="round"><g transform="translate(1447.5240164630045 221.54174229782348) rotate(0 -0.061665463484587235 0.8485444639454727)" fill-rule="evenodd"><path d="M0 0 L0.65 0.48 L0.61 1.43 L-0.08 1.7 L-0.77 1.24 L-0.77 0.39" stroke="none" stroke-width="0" fill="#fff" fill-rule="evenodd"></path><path d="M0 0 C0.2 0.15, 0.4 0.3, 0.65 0.48 M0 0 C0.21 0.15, 0.42 0.31, 0.65 0.48 M0.65 0.48 C0.64 0.68, 0.63 0.88, 0.61 1.43 M0.65 0.48 C0.63 0.77, 0.62 1.07, 0.61 1.43 M0.61 1.43 C0.42 1.5, 0.24 1.57, -0.08 1.7 M0.61 1.43 C0.43 1.5, 0.26 1.57, -0.08 1.7 M-0.08 1.7 C-0.28 1.57, -0.47 1.44, -0.77 1.24 M-0.08 1.7 C-0.29 1.56, -0.5 1.42, -0.77 1.24 M-0.77 1.24 C-0.77 1.07, -0.77 0.9, -0.77 0.39 M-0.77 1.24 C-0.77 1.06, -0.77 0.88, -0.77 0.39 M-0.77 0.39 C-0.52 0.26, -0.27 0.14, 0 0 M-0.77 0.39 C-0.5 0.25, -0.22 0.11, 0 0" stroke="#fff" stroke-width="2" fill="none"></path></g></g><mask></mask><g transform="translate(1406.5331604597477 419.6442227745647) rotate(0 20.8984375 9.199999999999818)"><text x="0" y="0" font-family="Helvetica, Segoe UI Emoji" font-size="16px" fill="#000" text-anchor="start" style="white-space: pre;" direction="ltr" dominant-baseline="text-before-edge">React</text></g><g stroke-linecap="round" transform="translate(1401.8399055906434 340.8641028824313) rotate(0 26.2986580197246 35.8397894440659)"><path d="M0 0 L52.6 0 L52.6 71.68 L0 71.68" stroke="none" stroke-width="0" fill="#454c5a"></path><path d="M0 0 C10.56 0, 21.12 0, 52.6 0 M0 0 C14.24 0, 28.49 0, 52.6 0 M52.6 0 C52.6 24.4, 52.6 48.81, 52.6 71.68 M52.6 0 C52.6 24.81, 52.6 49.61, 52.6 71.68 M52.6 71.68 C35.14 71.68, 17.68 71.68, 0 71.68 M52.6 71.68 C39.85 71.68, 27.09 71.68, 0 71.68 M0 71.68 C0 51.52, 0 31.36, 0 0 M0 71.68 C0 52.75, 0 33.81, 0 0" stroke="#000000" stroke-width="2" fill="none"></path></g><g stroke-linecap="round" transform="translate(1416.74608600193 349.5342259695062) rotate(0 21.784095901613682 8.979916300699188)"><path d="M0 0 L43.57 0 L43.57 17.96 L0 17.96" stroke="none" stroke-width="0" fill="#fff"></path><path d="M0 0 C13.33 0, 26.66 0, 43.57 0 M0 0 C10.08 0, 20.16 0, 43.57 0 M43.57 0 C43.57 7.05, 43.57 14.09, 43.57 17.96 M43.57 0 C43.57 3.7, 43.57 7.4, 43.57 17.96 M43.57 17.96 C30.21 17.96, 16.84 17.96, 0 17.96 M43.57 17.96 C33.49 17.96, 23.41 17.96, 0 17.96 M0 17.96 C0 12.86, 0 7.77, 0 0 M0 17.96 C0 11.64, 0 5.31, 0 0" stroke="#000000" stroke-width="2" fill="none"></path></g><g transform="translate(1422.5203683250274 352.76961141731863) rotate(0 12.51108130435955 5.50768199776212)"><text x="0" y="0" font-family="Helvetica, Segoe UI Emoji" font-size="9.578577387412528px" fill="#000000" text-anchor="start" style="white-space: pre;" direction="ltr" dominant-baseline="text-before-edge">React</text></g><g stroke-linecap="round" transform="translate(1424.5150510300832 375.9965528995217) rotate(89.76620192223518 4.886639512070587 15.55537952319537)"><path d="M9.77 15.56 C9.77 16.46, 9.75 17.37, 9.7 18.26 C9.65 19.14, 9.58 20.03, 9.48 20.88 C9.38 21.72, 9.26 22.55, 9.12 23.33 C8.98 24.11, 8.81 24.86, 8.63 25.55 C8.45 26.24, 8.24 26.89, 8.03 27.47 C7.81 28.05, 7.57 28.58, 7.33 29.03 C7.09 29.48, 6.82 29.86, 6.56 30.17 C6.29 30.48, 6.01 30.72, 5.74 30.87 C5.46 31.03, 5.17 31.11, 4.89 31.11 C4.6 31.11, 4.32 31.03, 4.04 30.87 C3.76 30.72, 3.48 30.48, 3.22 30.17 C2.95 29.86, 2.69 29.48, 2.44 29.03 C2.2 28.58, 1.96 28.05, 1.75 27.47 C1.53 26.89, 1.33 26.24, 1.14 25.55 C0.96 24.86, 0.8 24.11, 0.65 23.33 C0.51 22.55, 0.39 21.72, 0.29 20.88 C0.2 20.03, 0.12 19.14, 0.07 18.26 C0.03 17.37, 0 16.46, 0 15.56 C0 14.65, 0.03 13.74, 0.07 12.85 C0.12 11.97, 0.2 11.08, 0.29 10.24 C0.39 9.39, 0.51 8.56, 0.65 7.78 C0.8 7, 0.96 6.25, 1.14 5.56 C1.33 4.87, 1.53 4.22, 1.75 3.64 C1.96 3.06, 2.2 2.53, 2.44 2.08 C2.69 1.63, 2.95 1.25, 3.22 0.94 C3.48 0.63, 3.76 0.39, 4.04 0.24 C4.32 0.08, 4.6 0, 4.89 0 C5.17 0, 5.46 0.08, 5.74 0.24 C6.01 0.39, 6.29 0.63, 6.56 0.94 C6.82 1.25, 7.09 1.63, 7.33 2.08 C7.57 2.53, 7.81 3.06, 8.03 3.64 C8.24 4.22, 8.45 4.87, 8.63 5.56 C8.81 6.25, 8.98 7, 9.12 7.78 C9.26 8.56, 9.38 9.39, 9.48 10.24 C9.58 11.08, 9.65 11.97, 9.7 12.85 C9.75 13.74, 9.76 15.11, 9.77 15.56 C9.79 16.01, 9.79 15.11, 9.77 15.56" stroke="#00bbd4" stroke-width="2" fill="none"></path></g><g stroke-linecap="round" transform="translate(1424.0890236368132 375.9836860043197) rotate(29.4102139279678 4.886639512070587 15.55537952319537)"><path d="M9.77 15.56 C9.77 16.46, 9.75 17.37, 9.7 18.26 C9.65 19.14, 9.58 20.03, 9.48 20.88 C9.38 21.72, 9.26 22.55, 9.12 23.33 C8.98 24.11, 8.81 24.86, 8.63 25.55 C8.45 26.24, 8.24 26.89, 8.03 27.47 C7.81 28.05, 7.57 28.58, 7.33 29.03 C7.09 29.48, 6.82 29.86, 6.56 30.17 C6.29 30.48, 6.01 30.72, 5.74 30.87 C5.46 31.03, 5.17 31.11, 4.89 31.11 C4.6 31.11, 4.32 31.03, 4.04 30.87 C3.76 30.72, 3.48 30.48, 3.22 30.17 C2.95 29.86, 2.69 29.48, 2.44 29.03 C2.2 28.58, 1.96 28.05, 1.75 27.47 C1.53 26.89, 1.33 26.24, 1.14 25.55 C0.96 24.86, 0.8 24.11, 0.65 23.33 C0.51 22.55, 0.39 21.72, 0.29 20.88 C0.2 20.03, 0.12 19.14, 0.07 18.26 C0.03 17.37, 0 16.46, 0 15.56 C0 14.65, 0.03 13.74, 0.07 12.85 C0.12 11.97, 0.2 11.08, 0.29 10.24 C0.39 9.39, 0.51 8.56, 0.65 7.78 C0.8 7, 0.96 6.25, 1.14 5.56 C1.33 4.87, 1.53 4.22, 1.75 3.64 C1.96 3.06, 2.2 2.53, 2.44 2.08 C2.69 1.63, 2.95 1.25, 3.22 0.94 C3.48 0.63, 3.76 0.39, 4.04 0.24 C4.32 0.08, 4.6 0, 4.89 0 C5.17 0, 5.46 0.08, 5.74 0.24 C6.01 0.39, 6.29 0.63, 6.56 0.94 C6.82 1.25, 7.09 1.63, 7.33 2.08 C7.57 2.53, 7.81 3.06, 8.03 3.64 C8.24 4.22, 8.45 4.87, 8.63 5.56 C8.81 6.25, 8.98 7, 9.12 7.78 C9.26 8.56, 9.38 9.39, 9.48 10.24 C9.58 11.08, 9.65 11.97, 9.7 12.85 C9.75 13.74, 9.76 15.11, 9.77 15.56 C9.79 16.01, 9.79 15.11, 9.77 15.56" stroke="#00bbd4" stroke-width="2" fill="none"></path></g><g stroke-linecap="round" transform="translate(1424.5417892951318 376.03663431216864) rotate(144.34903574615214 4.886639512070587 15.55537952319537)"><path d="M9.77 15.56 C9.77 16.46, 9.75 17.37, 9.7 18.26 C9.65 19.14, 9.58 20.03, 9.48 20.88 C9.38 21.72, 9.26 22.55, 9.12 23.33 C8.98 24.11, 8.81 24.86, 8.63 25.55 C8.45 26.24, 8.24 26.89, 8.03 27.47 C7.81 28.05, 7.57 28.58, 7.33 29.03 C7.09 29.48, 6.82 29.86, 6.56 30.17 C6.29 30.48, 6.01 30.72, 5.74 30.87 C5.46 31.03, 5.17 31.11, 4.89 31.11 C4.6 31.11, 4.32 31.03, 4.04 30.87 C3.76 30.72, 3.48 30.48, 3.22 30.17 C2.95 29.86, 2.69 29.48, 2.44 29.03 C2.2 28.58, 1.96 28.05, 1.75 27.47 C1.53 26.89, 1.33 26.24, 1.14 25.55 C0.96 24.86, 0.8 24.11, 0.65 23.33 C0.51 22.55, 0.39 21.72, 0.29 20.88 C0.2 20.03, 0.12 19.14, 0.07 18.26 C0.03 17.37, 0 16.46, 0 15.56 C0 14.65, 0.03 13.74, 0.07 12.85 C0.12 11.97, 0.2 11.08, 0.29 10.24 C0.39 9.39, 0.51 8.56, 0.65 7.78 C0.8 7, 0.96 6.25, 1.14 5.56 C1.33 4.87, 1.53 4.22, 1.75 3.64 C1.96 3.06, 2.2 2.53, 2.44 2.08 C2.69 1.63, 2.95 1.25, 3.22 0.94 C3.48 0.63, 3.76 0.39, 4.04 0.24 C4.32 0.08, 4.6 0, 4.89 0 C5.17 0, 5.46 0.08, 5.74 0.24 C6.01 0.39, 6.29 0.63, 6.56 0.94 C6.82 1.25, 7.09 1.63, 7.33 2.08 C7.57 2.53, 7.81 3.06, 8.03 3.64 C8.24 4.22, 8.45 4.87, 8.63 5.56 C8.81 6.25, 8.98 7, 9.12 7.78 C9.26 8.56, 9.38 9.39, 9.48 10.24 C9.58 11.08, 9.65 11.97, 9.7 12.85 C9.75 13.74, 9.76 15.11, 9.77 15.56 C9.79 16.01, 9.79 15.11, 9.77 15.56" stroke="#00bbd4" stroke-width="2" fill="none"></path></g><g stroke-linecap="round" transform="translate(1427.938500033883 390.3467564130042) rotate(0 1.1630783943915048 1.1630783943915048)"><path d="M2.33 1.16 C2.33 1.23, 2.32 1.3, 2.31 1.37 C2.3 1.43, 2.28 1.5, 2.26 1.56 C2.23 1.62, 2.2 1.69, 2.17 1.74 C2.14 1.8, 2.1 1.86, 2.05 1.91 C2.01 1.96, 1.96 2.01, 1.91 2.05 C1.86 2.1, 1.8 2.14, 1.74 2.17 C1.69 2.2, 1.62 2.23, 1.56 2.26 C1.5 2.28, 1.43 2.3, 1.37 2.31 C1.3 2.32, 1.23 2.33, 1.16 2.33 C1.1 2.33, 1.03 2.32, 0.96 2.31 C0.89 2.3, 0.83 2.28, 0.77 2.26 C0.7 2.23, 0.64 2.2, 0.58 2.17 C0.52 2.14, 0.47 2.1, 0.42 2.05 C0.36 2.01, 0.32 1.96, 0.27 1.91 C0.23 1.86, 0.19 1.8, 0.16 1.74 C0.12 1.69, 0.09 1.62, 0.07 1.56 C0.05 1.5, 0.03 1.43, 0.02 1.37 C0.01 1.3, 0 1.23, 0 1.16 C0 1.1, 0.01 1.03, 0.02 0.96 C0.03 0.89, 0.05 0.83, 0.07 0.77 C0.09 0.7, 0.12 0.64, 0.16 0.58 C0.19 0.52, 0.23 0.47, 0.27 0.42 C0.32 0.36, 0.36 0.32, 0.42 0.27 C0.47 0.23, 0.52 0.19, 0.58 0.16 C0.64 0.12, 0.7 0.09, 0.77 0.07 C0.83 0.05, 0.89 0.03, 0.96 0.02 C1.03 0.01, 1.1 0, 1.16 0 C1.23 0, 1.3 0.01, 1.37 0.02 C1.43 0.03, 1.5 0.05, 1.56 0.07 C1.62 0.09, 1.69 0.12, 1.74 0.16 C1.8 0.19, 1.86 0.23, 1.91 0.27 C1.96 0.32, 2.01 0.36, 2.05 0.42 C2.1 0.47, 2.14 0.52, 2.17 0.58 C2.2 0.64, 2.23 0.7, 2.26 0.77 C2.28 0.83, 2.3 0.89, 2.31 0.96 C2.32 1.03, 2.32 1.13, 2.33 1.16 C2.33 1.2, 2.33 1.13, 2.33 1.16" stroke="none" stroke-width="0" fill="#00bbd4"></path><path d="M2.33 1.16 C2.33 1.23, 2.32 1.3, 2.31 1.37 C2.3 1.43, 2.28 1.5, 2.26 1.56 C2.23 1.62, 2.2 1.69, 2.17 1.74 C2.14 1.8, 2.1 1.86, 2.05 1.91 C2.01 1.96, 1.96 2.01, 1.91 2.05 C1.86 2.1, 1.8 2.14, 1.74 2.17 C1.69 2.2, 1.62 2.23, 1.56 2.26 C1.5 2.28, 1.43 2.3, 1.37 2.31 C1.3 2.32, 1.23 2.33, 1.16 2.33 C1.1 2.33, 1.03 2.32, 0.96 2.31 C0.89 2.3, 0.83 2.28, 0.77 2.26 C0.7 2.23, 0.64 2.2, 0.58 2.17 C0.52 2.14, 0.47 2.1, 0.42 2.05 C0.36 2.01, 0.32 1.96, 0.27 1.91 C0.23 1.86, 0.19 1.8, 0.16 1.74 C0.12 1.69, 0.09 1.62, 0.07 1.56 C0.05 1.5, 0.03 1.43, 0.02 1.37 C0.01 1.3, 0 1.23, 0 1.16 C0 1.1, 0.01 1.03, 0.02 0.96 C0.03 0.89, 0.05 0.83, 0.07 0.77 C0.09 0.7, 0.12 0.64, 0.16 0.58 C0.19 0.52, 0.23 0.47, 0.27 0.42 C0.32 0.36, 0.36 0.32, 0.42 0.27 C0.47 0.23, 0.52 0.19, 0.58 0.16 C0.64 0.12, 0.7 0.09, 0.77 0.07 C0.83 0.05, 0.89 0.03, 0.96 0.02 C1.03 0.01, 1.1 0, 1.16 0 C1.23 0, 1.3 0.01, 1.37 0.02 C1.43 0.03, 1.5 0.05, 1.56 0.07 C1.62 0.09, 1.69 0.12, 1.74 0.16 C1.8 0.19, 1.86 0.23, 1.91 0.27 C1.96 0.32, 2.01 0.36, 2.05 0.42 C2.1 0.47, 2.14 0.52, 2.17 0.58 C2.2 0.64, 2.23 0.7, 2.26 0.77 C2.28 0.83, 2.3 0.89, 2.31 0.96 C2.32 1.03, 2.32 1.13, 2.33 1.16 C2.33 1.2, 2.33 1.13, 2.33 1.16" stroke="#00bbd4" stroke-width="2" fill="none"></path></g><g stroke-linecap="round"><g transform="translate(1270.145511687781 281.46505467885436) rotate(0 65.13237624821159 48.175922920466746)"><path d="M0 0 C48.39 35.79, 96.78 71.58, 130.26 96.35 M0 0 C46.72 34.56, 93.44 69.12, 130.26 96.35" stroke="#000000" stroke-width="2" fill="none"></path></g><g transform="translate(1270.145511687781 281.46505467885436) rotate(0 65.13237624821159 48.175922920466746)"><path d="M101.5 87.84 C112.18 91, 122.87 94.16, 130.26 96.35 M101.5 87.84 C111.82 90.89, 122.13 93.94, 130.26 96.35" stroke="#000000" stroke-width="2" fill="none"></path></g><g transform="translate(1270.145511687781 281.46505467885436) rotate(0 65.13237624821159 48.175922920466746)"><path d="M113.7 71.34 C119.85 80.63, 126.01 89.92, 130.26 96.35 M113.7 71.34 C119.64 80.31, 125.58 89.28, 130.26 96.35" stroke="#000000" stroke-width="2" fill="none"></path></g></g><mask></mask><g stroke-linecap="round"><g transform="translate(1268.7036538402795 202.76500641935763) rotate(0 66.67014688286554 -0.2813135963933746)"><path d="M0 0 C29.72 -0.13, 59.45 -0.25, 133.34 -0.56 M0 0 C46.41 -0.2, 92.82 -0.39, 133.34 -0.56" stroke="#000000" stroke-width="2" fill="none"></path></g><g transform="translate(1268.7036538402795 202.76500641935763) rotate(0 66.67014688286554 -0.2813135963933746)"><path d="M105.19 9.82 C111.47 7.5, 117.74 5.19, 133.34 -0.56 M105.19 9.82 C114.99 6.2, 124.79 2.59, 133.34 -0.56" stroke="#000000" stroke-width="2" fill="none"></path></g><g transform="translate(1268.7036538402795 202.76500641935763) rotate(0 66.67014688286554 -0.2813135963933746)"><path d="M105.11 -10.7 C111.4 -8.44, 117.69 -6.18, 133.34 -0.56 M105.11 -10.7 C114.93 -7.17, 124.76 -3.64, 133.34 -0.56" stroke="#000000" stroke-width="2" fill="none"></path></g></g><mask></mask><g transform="translate(1402.3360737145667 101.53549023743017) rotate(0 24.890625 9.199999999999818)"><text x="0" y="0" font-family="Helvetica, Segoe UI Emoji" font-size="16px" fill="#000" text-anchor="start" style="white-space: pre;" direction="ltr" dominant-baseline="text-before-edge">Prisma</text></g><g stroke-linecap="round" transform="translate(1400.6762206269314 22.366575703546914) rotate(0 26.331842340168805 35.88501300857888)"><path d="M0 0 L52.66 0 L52.66 71.77 L0 71.77" stroke="none" stroke-width="0" fill="#fff"></path><path d="M0 0 C20.44 0, 40.88 0, 52.66 0 M0 0 C20.74 0, 41.48 0, 52.66 0 M52.66 0 C52.66 15.06, 52.66 30.13, 52.66 71.77 M52.66 0 C52.66 21.87, 52.66 43.74, 52.66 71.77 M52.66 71.77 C37.58 71.77, 22.5 71.77, 0 71.77 M52.66 71.77 C38.23 71.77, 23.79 71.77, 0 71.77 M0 71.77 C0 55.01, 0 38.24, 0 0 M0 71.77 C0 52.73, 0 33.68, 0 0" stroke="#000000" stroke-width="2" fill="none"></path></g><g stroke-linecap="round" transform="translate(1424.3057568436707 31.0476389740561) rotate(0 17.483761524677675 8.991247389147247)"><path d="M0 0 L34.97 0 L34.97 17.98 L0 17.98" stroke="none" stroke-width="0" fill="#fff"></path><path d="M0 0 C9.42 0, 18.84 0, 34.97 0 M0 0 C9.65 0, 19.3 0, 34.97 0 M34.97 0 C34.97 5.31, 34.97 10.62, 34.97 17.98 M34.97 0 C34.97 4.94, 34.97 9.89, 34.97 17.98 M34.97 17.98 C26.88 17.98, 18.79 17.98, 0 17.98 M34.97 17.98 C21.35 17.98, 7.74 17.98, 0 17.98 M0 17.98 C0 12.41, 0 6.85, 0 0 M0 17.98 C0 13.76, 0 9.54, 0 0" stroke="#000000" stroke-width="2" fill="none"></path></g><g transform="translate(1426.8775588919025 34.5973546193718) rotate(0 14.919851136366105 5.514631732010457)"><text x="0" y="0" font-family="Helvetica, Segoe UI Emoji" font-size="9.590663881756985px" fill="#000000" text-anchor="start" style="white-space: pre;" direction="ltr" dominant-baseline="text-before-edge">Prisma</text></g><g stroke-linecap="round"><g transform="translate(1421.1502079112556 87.20631514293473) rotate(0 3.1885184897546424 -14.79623003678671)"><path d="M0 0 C2.15 -9.98, 4.3 -19.95, 6.38 -29.59 M0 0 C2.03 -9.43, 4.07 -18.87, 6.38 -29.59" stroke="#000000" stroke-width="2" fill="none"></path></g></g><mask></mask><g stroke-linecap="round"><g transform="translate(1427.5389585099992 57.63481942755152) rotate(0 5.914320734415696 12.24617453200608)"><path d="M0 0 C4.73 9.8, 9.46 19.59, 11.83 24.49 M0 0 C4 8.29, 8 16.57, 11.83 24.49" stroke="#000000" stroke-width="2" fill="none"></path></g></g><mask></mask><g stroke-linecap="round"><g transform="translate(1427.4609063968965 57.686548881310955) rotate(0 -6.439756378831362 10.260922041216418)"><path d="M0 0 C-2.63 4.18, -5.25 8.37, -12.88 20.52 M0 0 C-3.7 5.9, -7.4 11.8, -12.88 20.52" stroke="#000000" stroke-width="2" fill="none"></path></g></g><mask></mask><g stroke-linecap="round"><g transform="translate(1414.5765760930935 78.29962665299536) rotate(0 3.097943660173769 4.722930657634606)"><path d="M0 0 C1.95 2.97, 3.89 5.93, 6.2 9.45 M0 0 C1.94 2.96, 3.88 5.91, 6.2 9.45" stroke="#000000" stroke-width="2" fill="none"></path></g></g><mask></mask><g stroke-linecap="round"><g transform="translate(1420.8266191095004 87.75365959673672) rotate(0 9.293638137568905 -2.7738483118564545)"><path d="M0 0 C5.18 -1.55, 10.36 -3.09, 18.59 -5.55 M0 0 C6.22 -1.86, 12.45 -3.71, 18.59 -5.55" stroke="#000000" stroke-width="2" fill="none"></path></g></g><mask></mask><g stroke-linecap="round" transform="translate(1422.4784290216726 66.09298989982472) rotate(0 1.126964155406995 0.8741110231662788)"><path d="M0 0 L2.25 0 L2.25 1.75 L0 1.75" stroke="none" stroke-width="0" fill="#000"></path><path d="M0 0 C0.79 0, 1.59 0, 2.25 0 M0 0 C0.63 0, 1.26 0, 2.25 0 M2.25 0 C2.25 0.38, 2.25 0.75, 2.25 1.75 M2.25 0 C2.25 0.37, 2.25 0.75, 2.25 1.75 M2.25 1.75 C1.76 1.75, 1.27 1.75, 0 1.75 M2.25 1.75 C1.36 1.75, 0.46 1.75, 0 1.75 M0 1.75 C0 1.07, 0 0.4, 0 0 M0 1.75 C0 1.2, 0 0.65, 0 0" stroke="#000000" stroke-width="2" fill="none"></path></g><g stroke-linecap="round" transform="translate(1421.4959214672626 68.33611161146564) rotate(0 1.126964155406995 0.8741110231662788)"><path d="M0 0 L2.25 0 L2.25 1.75 L0 1.75" stroke="none" stroke-width="0" fill="#000"></path><path d="M0 0 C0.85 0, 1.71 0, 2.25 0 M0 0 C0.63 0, 1.27 0, 2.25 0 M2.25 0 C2.25 0.39, 2.25 0.77, 2.25 1.75 M2.25 0 C2.25 0.57, 2.25 1.14, 2.25 1.75 M2.25 1.75 C1.4 1.75, 0.54 1.75, 0 1.75 M2.25 1.75 C1.61 1.75, 0.97 1.75, 0 1.75 M0 1.75 C0 1.39, 0 1.03, 0 0 M0 1.75 C0 1.14, 0 0.53, 0 0" stroke="#000000" stroke-width="2" fill="none"></path></g><g stroke-linecap="round" transform="translate(1420.378640208689 69.22764864718829) rotate(0 1.3679726755040065 2.4045108231212)"><path d="M0 0 L2.74 0 L2.74 4.81 L0 4.81" stroke="none" stroke-width="0" fill="#000"></path><path d="M0 0 C0.63 0, 1.26 0, 2.74 0 M0 0 C0.72 0, 1.43 0, 2.74 0 M2.74 0 C2.74 1.24, 2.74 2.49, 2.74 4.81 M2.74 0 C2.74 1.02, 2.74 2.04, 2.74 4.81 M2.74 4.81 C1.82 4.81, 0.9 4.81, 0 4.81 M2.74 4.81 C2.01 4.81, 1.28 4.81, 0 4.81 M0 4.81 C0 3.72, 0 2.63, 0 0 M0 4.81 C0 3.48, 0 2.15, 0 0" stroke="#000000" stroke-width="2" fill="none"></path></g><g stroke-linecap="round" transform="translate(1420.3717681420203 69.92866131655956) rotate(0 1.6330805030659121 2.5732148013462393)"><path d="M0 0 L3.27 0 L3.27 5.15 L0 5.15" stroke="none" stroke-width="0" fill="#000"></path><path d="M0 0 C1.07 0, 2.14 0, 3.27 0 M0 0 C1.26 0, 2.53 0, 3.27 0 M3.27 0 C3.27 1.77, 3.27 3.55, 3.27 5.15 M3.27 0 C3.27 1.66, 3.27 3.32, 3.27 5.15 M3.27 5.15 C2.35 5.15, 1.43 5.15, 0 5.15 M3.27 5.15 C2.5 5.15, 1.74 5.15, 0 5.15 M0 5.15 C0 3.68, 0 2.21, 0 0 M0 5.15 C0 4.08, 0 3.02, 0 0" stroke="#000000" stroke-width="2" fill="none"></path></g><g stroke-linecap="round" transform="translate(1418.7741139769214 73.43948548586832) rotate(0 1.8258859952479725 2.922676824512564)"><path d="M0 0 L3.65 0 L3.65 5.85 L0 5.85" stroke="none" stroke-width="0" fill="#000"></path><path d="M0 0 C1.42 0, 2.84 0, 3.65 0 M0 0 C1.08 0, 2.16 0, 3.65 0 M3.65 0 C3.65 1.22, 3.65 2.45, 3.65 5.85 M3.65 0 C3.65 1.74, 3.65 3.48, 3.65 5.85 M3.65 5.85 C2.76 5.85, 1.87 5.85, 0 5.85 M3.65 5.85 C2.82 5.85, 1.99 5.85, 0 5.85 M0 5.85 C0 4.17, 0 2.5, 0 0 M0 5.85 C0 4.05, 0 2.26, 0 0" stroke="#000000" stroke-width="2" fill="none"></path></g><g stroke-linecap="round" transform="translate(1418.6539865954137 74.84294250845687) rotate(0 1.8258859952479725 2.922676824512564)"><path d="M0 0 L3.65 0 L3.65 5.85 L0 5.85" stroke="none" stroke-width="0" fill="#000"></path><path d="M0 0 C1.15 0, 2.31 0, 3.65 0 M0 0 C0.99 0, 1.99 0, 3.65 0 M3.65 0 C3.65 1.64, 3.65 3.28, 3.65 5.85 M3.65 0 C3.65 1.93, 3.65 3.86, 3.65 5.85 M3.65 5.85 C2.72 5.85, 1.78 5.85, 0 5.85 M3.65 5.85 C2.41 5.85, 1.17 5.85, 0 5.85 M0 5.85 C0 4.21, 0 2.57, 0 0 M0 5.85 C0 3.77, 0 1.7, 0 0" stroke="#000000" stroke-width="2" fill="none"></path></g><g stroke-linecap="round" transform="translate(1417.2802422231962 76.87945975931689) rotate(0 0.849804467620288 1.4525286029584095)"><path d="M0 0 L1.7 0 L1.7 2.91 L0 2.91" stroke="none" stroke-width="0" fill="#000"></path><path d="M0 0 C0.5 0, 1 0, 1.7 0 M0 0 C0.61 0, 1.21 0, 1.7 0 M1.7 0 C1.7 0.87, 1.7 1.75, 1.7 2.91 M1.7 0 C1.7 0.67, 1.7 1.35, 1.7 2.91 M1.7 2.91 C1.19 2.91, 0.69 2.91, 0 2.91 M1.7 2.91 C1.19 2.91, 0.68 2.91, 0 2.91 M0 2.91 C0 1.91, 0 0.91, 0 0 M0 2.91 C0 2.28, 0 1.66, 0 0" stroke="#000000" stroke-width="2" fill="none"></path></g><g stroke-linecap="round" transform="translate(1419.9305685439062 80.12524130323891) rotate(0 0.849804467620288 1.4525286029584095)"><path d="M0 0 L1.7 0 L1.7 2.91 L0 2.91" stroke="none" stroke-width="0" fill="#000"></path><path d="M0 0 C0.58 0, 1.16 0, 1.7 0 M0 0 C0.34 0, 0.69 0, 1.7 0 M1.7 0 C1.7 0.92, 1.7 1.84, 1.7 2.91 M1.7 0 C1.7 0.92, 1.7 1.84, 1.7 2.91 M1.7 2.91 C1.16 2.91, 0.61 2.91, 0 2.91 M1.7 2.91 C1.31 2.91, 0.92 2.91, 0 2.91 M0 2.91 C0 1.93, 0 0.96, 0 0 M0 2.91 C0 2.05, 0 1.19, 0 0" stroke="#000000" stroke-width="2" fill="none"></path></g><g stroke-linecap="round" transform="translate(1419.6784781271103 78.96221921478264) rotate(0 0.849804467620288 1.4525286029584095)"><path d="M0 0 L1.7 0 L1.7 2.91 L0 2.91" stroke="none" stroke-width="0" fill="#000"></path><path d="M0 0 C0.48 0, 0.97 0, 1.7 0 M0 0 C0.57 0, 1.15 0, 1.7 0 M1.7 0 C1.7 0.61, 1.7 1.22, 1.7 2.91 M1.7 0 C1.7 0.71, 1.7 1.42, 1.7 2.91 M1.7 2.91 C1.26 2.91, 0.81 2.91, 0 2.91 M1.7 2.91 C1.34 2.91, 0.99 2.91, 0 2.91 M0 2.91 C0 2.27, 0 1.63, 0 0 M0 2.91 C0 1.83, 0 0.76, 0 0" stroke="#000000" stroke-width="2" fill="none"></path></g><g stroke-linecap="round" transform="translate(1424.008022040835 63.31523443167316) rotate(0 0.6629366889224002 0.8503992522305452)"><path d="M0 0 L1.33 0 L1.33 1.7 L0 1.7" stroke="none" stroke-width="0" fill="#000"></path><path d="M0 0 C0.36 0, 0.72 0, 1.33 0 M0 0 C0.52 0, 1.04 0, 1.33 0 M1.33 0 C1.33 0.42, 1.33 0.84, 1.33 1.7 M1.33 0 C1.33 0.36, 1.33 0.72, 1.33 1.7 M1.33 1.7 C0.87 1.7, 0.41 1.7, 0 1.7 M1.33 1.7 C1.03 1.7, 0.73 1.7, 0 1.7 M0 1.7 C0 1.29, 0 0.88, 0 0 M0 1.7 C0 1.35, 0 1.01, 0 0" stroke="#000000" stroke-width="2" fill="none"></path></g><g stroke-linecap="round" transform="translate(1425.8347320135995 60.77375494629723) rotate(0 0.2892011315268519 0.9230698966480304)"><path d="M0 0 L0.58 0 L0.58 1.85 L0 1.85" stroke="none" stroke-width="0" fill="#000"></path><path d="M0 0 C0.18 0, 0.36 0, 0.58 0 M0 0 C0.14 0, 0.28 0, 0.58 0 M0.58 0 C0.58 0.59, 0.58 1.17, 0.58 1.85 M0.58 0 C0.58 0.73, 0.58 1.45, 0.58 1.85 M0.58 1.85 C0.44 1.85, 0.29 1.85, 0 1.85 M0.58 1.85 C0.44 1.85, 0.31 1.85, 0 1.85 M0 1.85 C0 1.31, 0 0.77, 0 0 M0 1.85 C0 1.25, 0 0.66, 0 0" stroke="#000000" stroke-width="2" fill="none"></path></g><g stroke-linecap="round" transform="translate(1416.3321742527123 75.91244549972271) rotate(0 0.849804467620288 1.4525286029584095)"><path d="M0 0 L1.7 0 L1.7 2.91 L0 2.91" stroke="none" stroke-width="0" fill="#000"></path><path d="M0 0 C0.4 0, 0.79 0, 1.7 0 M0 0 C0.6 0, 1.19 0, 1.7 0 M1.7 0 C1.7 1.15, 1.7 2.3, 1.7 2.91 M1.7 0 C1.7 0.9, 1.7 1.81, 1.7 2.91 M1.7 2.91 C1.15 2.91, 0.6 2.91, 0 2.91 M1.7 2.91 C1.09 2.91, 0.48 2.91, 0 2.91 M0 2.91 C0 2.17, 0 1.43, 0 0 M0 2.91 C0 2.24, 0 1.57, 0 0" stroke="#000000" stroke-width="2" fill="none"></path></g><g stroke-linecap="round" transform="translate(1419.4892436932678 82.17396735970578) rotate(0 0.849804467620288 1.4525286029584095)"><path d="M0 0 L1.7 0 L1.7 2.91 L0 2.91" stroke="none" stroke-width="0" fill="#000"></path><path d="M0 0 C0.55 0, 1.1 0, 1.7 0 M0 0 C0.44 0, 0.88 0, 1.7 0 M1.7 0 C1.7 1.06, 1.7 2.12, 1.7 2.91 M1.7 0 C1.7 0.85, 1.7 1.7, 1.7 2.91 M1.7 2.91 C1.12 2.91, 0.54 2.91, 0 2.91 M1.7 2.91 C1.11 2.91, 0.52 2.91, 0 2.91 M0 2.91 C0 1.76, 0 0.61, 0 0 M0 2.91 C0 1.97, 0 1.04, 0 0" stroke="#000000" stroke-width="2" fill="none"></path></g><g stroke-linecap="round" transform="translate(1417.779162807199 79.67462152215285) rotate(0 0.849804467620288 1.4525286029584095)"><path d="M0 0 L1.7 0 L1.7 2.91 L0 2.91" stroke="none" stroke-width="0" fill="#000"></path><path d="M0 0 C0.65 0, 1.31 0, 1.7 0 M0 0 C0.36 0, 0.72 0, 1.7 0 M1.7 0 C1.7 0.86, 1.7 1.71, 1.7 2.91 M1.7 0 C1.7 1.16, 1.7 2.32, 1.7 2.91 M1.7 2.91 C1.12 2.91, 0.54 2.91, 0 2.91 M1.7 2.91 C1.13 2.91, 0.57 2.91, 0 2.91 M0 2.91 C0 1.77, 0 0.64, 0 0 M0 2.91 C0 2.31, 0 1.72, 0 0" stroke="#000000" stroke-width="2" fill="none"></path></g><g transform="translate(176.07059043345816 10) rotate(0 32.01953125 9.199999999999818)"><text x="32.01953125" y="0" font-family="Helvetica, Segoe UI Emoji" font-size="16px" fill="#000000" text-anchor="middle" style="white-space: pre;" direction="ltr" dominant-baseline="text-before-edge">Frontend</text></g><g transform="translate(1086.7899877328687 48.386969839623816) rotate(0 57.3671875 9.199999999999818)"><text x="57.3671875" y="0" font-family="Helvetica, Segoe UI Emoji" font-size="16px" fill="#000000" text-anchor="middle" style="white-space: pre;" direction="ltr" dominant-baseline="text-before-edge">Code Generator</text></g></svg>
