<svg version="1.1" xmlns="http://www.w3.org/2000/svg" viewBox="0 0 684.235209894694 343.2348977220108" width="684.235209894694" height="343.2348977220108">
  <!-- svg-source:excalidraw -->

  <defs>
    <style class="style-fonts">
      @font-face {
        font-family: "Virgil";
        src: url("https://excalidraw.com/Virgil.woff2");
      }
      @font-face {
        font-family: "Cascadia";
        src: url("https://excalidraw.com/Cascadia.woff2");
      }
    </style>
  </defs>
  <g transform="translate(262.5678265728184 10) rotate(0 100.0244140625 57.5)"><text x="0" y="0" font-family="Helvetica, Segoe UI Emoji" font-size="20px" fill="#000000" text-anchor="start" style="white-space: pre;" direction="ltr" dominant-baseline="text-before-edge">HTTP: POST /api/user</text><text x="0" y="23" font-family="Helvetica, Segoe UI Emoji" font-size="20px" fill="#000000" text-anchor="start" style="white-space: pre;" direction="ltr" dominant-baseline="text-before-edge">body: {</text><text x="0" y="46" font-family="Helvetica, Segoe UI Emoji" font-size="20px" fill="#000000" text-anchor="start" style="white-space: pre;" direction="ltr" dominant-baseline="text-before-edge">  name: Bob,</text><text x="0" y="69" font-family="Helvetica, Segoe UI Emoji" font-size="20px" fill="#000000" text-anchor="start" style="white-space: pre;" direction="ltr" dominant-baseline="text-before-edge">  </text><text x="0" y="92" font-family="Helvetica, Segoe UI Emoji" font-size="20px" fill="#000000" text-anchor="start" style="white-space: pre;" direction="ltr" dominant-baseline="text-before-edge">}</text></g><g transform="translate(273.4052259147984 80.15400311421763) rotate(0 40.4638671875 11.5)"><text x="0" y="0" font-family="Helvetica, Segoe UI Emoji" font-size="20px" fill="#c92a2a" text-anchor="start" style="white-space: pre;" direction="ltr" dominant-baseline="text-before-edge">age: "25"</text></g><g transform="translate(527.516459894694 218.23489772201083) rotate(0 73.359375 57.5)"><text x="0" y="0" font-family="Helvetica, Segoe UI Emoji" font-size="20px" fill="#000000" text-anchor="start" style="white-space: pre;" direction="ltr" dominant-baseline="text-before-edge">POST /api/users</text><text x="0" y="23" font-family="Helvetica, Segoe UI Emoji" font-size="20px" fill="#000000" text-anchor="start" style="white-space: pre;" direction="ltr" dominant-baseline="text-before-edge">{</text><text x="0" y="46" font-family="Helvetica, Segoe UI Emoji" font-size="20px" fill="#000000" text-anchor="start" style="white-space: pre;" direction="ltr" dominant-baseline="text-before-edge">  name: String;</text><text x="0" y="69" font-family="Helvetica, Segoe UI Emoji" font-size="20px" fill="#000000" text-anchor="start" style="white-space: pre;" direction="ltr" dominant-baseline="text-before-edge">  </text><text x="0" y="92" font-family="Helvetica, Segoe UI Emoji" font-size="20px" fill="#000000" text-anchor="start" style="white-space: pre;" direction="ltr" dominant-baseline="text-before-edge">}</text></g><g transform="translate(538.9383735421043 288.0736850966132) rotate(0 36.1376953125 11.5)"><text x="0" y="0" font-family="Helvetica, Segoe UI Emoji" font-size="20px" fill="#c92a2a" text-anchor="start" style="white-space: pre;" direction="ltr" dominant-baseline="text-before-edge">age: Int;</text></g><g stroke-linecap="round" transform="translate(10.008131117794619 10.368891034447188) rotate(0.005729577951308233 111.66665395100927 81.31676141628122)"><path d="M0 0 L223.33 0 L223.33 162.63 L0 162.63" stroke="none" stroke-width="0" fill="#ffffff"></path><path d="M0 0 C83.88 0, 167.76 0, 223.33 0 M0 0 C74.49 0, 148.98 0, 223.33 0 M223.33 0 C223.33 44.53, 223.33 89.06, 223.33 162.63 M223.33 0 C223.33 35.04, 223.33 70.08, 223.33 162.63 M223.33 162.63 C159.72 162.63, 96.1 162.63, 0 162.63 M223.33 162.63 C164.79 162.63, 106.26 162.63, 0 162.63 M0 162.63 C0 108.9, 0 55.16, 0 0 M0 162.63 C0 111.87, 0 61.11, 0 0" stroke="#000000" stroke-width="2" fill="none"></path></g><g stroke-linecap="round" transform="translate(18.452517917924524 17.33572750651365) rotate(0 3.6666641235351562 3.8333282470703125)"><path d="M7.33 3.83 C7.33 4.06, 7.31 4.28, 7.28 4.5 C7.24 4.72, 7.18 4.94, 7.11 5.14 C7.04 5.35, 6.95 5.56, 6.84 5.75 C6.74 5.94, 6.61 6.13, 6.48 6.3 C6.34 6.47, 6.19 6.63, 6.02 6.77 C5.86 6.91, 5.68 7.04, 5.5 7.15 C5.32 7.26, 5.12 7.36, 4.92 7.44 C4.72 7.51, 4.51 7.57, 4.3 7.61 C4.09 7.65, 3.88 7.67, 3.67 7.67 C3.45 7.67, 3.24 7.65, 3.03 7.61 C2.82 7.57, 2.61 7.51, 2.41 7.44 C2.21 7.36, 2.02 7.26, 1.83 7.15 C1.65 7.04, 1.47 6.91, 1.31 6.77 C1.15 6.63, 0.99 6.47, 0.86 6.3 C0.72 6.13, 0.6 5.94, 0.49 5.75 C0.39 5.56, 0.29 5.35, 0.22 5.14 C0.15 4.94, 0.09 4.72, 0.06 4.5 C0.02 4.28, 0 4.06, 0 3.83 C0 3.61, 0.02 3.39, 0.06 3.17 C0.09 2.95, 0.15 2.73, 0.22 2.52 C0.29 2.31, 0.39 2.11, 0.49 1.92 C0.6 1.72, 0.72 1.54, 0.86 1.37 C0.99 1.2, 1.15 1.04, 1.31 0.9 C1.47 0.75, 1.65 0.62, 1.83 0.51 C2.02 0.4, 2.21 0.31, 2.41 0.23 C2.61 0.16, 2.82 0.1, 3.03 0.06 C3.24 0.02, 3.45 0, 3.67 0 C3.88 0, 4.09 0.02, 4.3 0.06 C4.51 0.1, 4.72 0.16, 4.92 0.23 C5.12 0.31, 5.32 0.4, 5.5 0.51 C5.68 0.62, 5.86 0.75, 6.02 0.9 C6.19 1.04, 6.34 1.2, 6.48 1.37 C6.61 1.54, 6.74 1.72, 6.84 1.92 C6.95 2.11, 7.04 2.31, 7.11 2.52 C7.18 2.73, 7.24 2.95, 7.28 3.17 C7.31 3.39, 7.32 3.72, 7.33 3.83 C7.34 3.94, 7.34 3.72, 7.33 3.83" stroke="none" stroke-width="0" fill="#fa5252"></path><path d="M7.33 3.83 C7.33 4.06, 7.31 4.28, 7.28 4.5 C7.24 4.72, 7.18 4.94, 7.11 5.14 C7.04 5.35, 6.95 5.56, 6.84 5.75 C6.74 5.94, 6.61 6.13, 6.48 6.3 C6.34 6.47, 6.19 6.63, 6.02 6.77 C5.86 6.91, 5.68 7.04, 5.5 7.15 C5.32 7.26, 5.12 7.36, 4.92 7.44 C4.72 7.51, 4.51 7.57, 4.3 7.61 C4.09 7.65, 3.88 7.67, 3.67 7.67 C3.45 7.67, 3.24 7.65, 3.03 7.61 C2.82 7.57, 2.61 7.51, 2.41 7.44 C2.21 7.36, 2.02 7.26, 1.83 7.15 C1.65 7.04, 1.47 6.91, 1.31 6.77 C1.15 6.63, 0.99 6.47, 0.86 6.3 C0.72 6.13, 0.6 5.94, 0.49 5.75 C0.39 5.56, 0.29 5.35, 0.22 5.14 C0.15 4.94, 0.09 4.72, 0.06 4.5 C0.02 4.28, 0 4.06, 0 3.83 C0 3.61, 0.02 3.39, 0.06 3.17 C0.09 2.95, 0.15 2.73, 0.22 2.52 C0.29 2.31, 0.39 2.11, 0.49 1.92 C0.6 1.72, 0.72 1.54, 0.86 1.37 C0.99 1.2, 1.15 1.04, 1.31 0.9 C1.47 0.75, 1.65 0.62, 1.83 0.51 C2.02 0.4, 2.21 0.31, 2.41 0.23 C2.61 0.16, 2.82 0.1, 3.03 0.06 C3.24 0.02, 3.45 0, 3.67 0 C3.88 0, 4.09 0.02, 4.3 0.06 C4.51 0.1, 4.72 0.16, 4.92 0.23 C5.12 0.31, 5.32 0.4, 5.5 0.51 C5.68 0.62, 5.86 0.75, 6.02 0.9 C6.19 1.04, 6.34 1.2, 6.48 1.37 C6.61 1.54, 6.74 1.72, 6.84 1.92 C6.95 2.11, 7.04 2.31, 7.11 2.52 C7.18 2.73, 7.24 2.95, 7.28 3.17 C7.31 3.39, 7.32 3.72, 7.33 3.83 C7.34 3.94, 7.34 3.72, 7.33 3.83" stroke="#000000" stroke-width="2" fill="none"></path></g><g stroke-linecap="round" transform="translate(41.45251028852999 17.33572750651365) rotate(0.005729577951308233 3.6666641235351562 3.8333282470703125)"><path d="M7.33 3.83 C7.33 4.06, 7.31 4.28, 7.28 4.5 C7.24 4.72, 7.18 4.94, 7.11 5.14 C7.04 5.35, 6.95 5.56, 6.84 5.75 C6.74 5.94, 6.61 6.13, 6.48 6.3 C6.34 6.47, 6.19 6.63, 6.02 6.77 C5.86 6.91, 5.68 7.04, 5.5 7.15 C5.32 7.26, 5.12 7.36, 4.92 7.44 C4.72 7.51, 4.51 7.57, 4.3 7.61 C4.09 7.65, 3.88 7.67, 3.67 7.67 C3.45 7.67, 3.24 7.65, 3.03 7.61 C2.82 7.57, 2.61 7.51, 2.41 7.44 C2.21 7.36, 2.02 7.26, 1.83 7.15 C1.65 7.04, 1.47 6.91, 1.31 6.77 C1.15 6.63, 0.99 6.47, 0.86 6.3 C0.72 6.13, 0.6 5.94, 0.49 5.75 C0.39 5.56, 0.29 5.35, 0.22 5.14 C0.15 4.94, 0.09 4.72, 0.06 4.5 C0.02 4.28, 0 4.06, 0 3.83 C0 3.61, 0.02 3.39, 0.06 3.17 C0.09 2.95, 0.15 2.73, 0.22 2.52 C0.29 2.31, 0.39 2.11, 0.49 1.92 C0.6 1.72, 0.72 1.54, 0.86 1.37 C0.99 1.2, 1.15 1.04, 1.31 0.9 C1.47 0.75, 1.65 0.62, 1.83 0.51 C2.02 0.4, 2.21 0.31, 2.41 0.23 C2.61 0.16, 2.82 0.1, 3.03 0.06 C3.24 0.02, 3.45 0, 3.67 0 C3.88 0, 4.09 0.02, 4.3 0.06 C4.51 0.1, 4.72 0.16, 4.92 0.23 C5.12 0.31, 5.32 0.4, 5.5 0.51 C5.68 0.62, 5.86 0.75, 6.02 0.9 C6.19 1.04, 6.34 1.2, 6.48 1.37 C6.61 1.54, 6.74 1.72, 6.84 1.92 C6.95 2.11, 7.04 2.31, 7.11 2.52 C7.18 2.73, 7.24 2.95, 7.28 3.17 C7.31 3.39, 7.32 3.72, 7.33 3.83 C7.34 3.94, 7.34 3.72, 7.33 3.83" stroke="none" stroke-width="0" fill="#40c057"></path><path d="M7.33 3.83 C7.33 4.06, 7.31 4.28, 7.28 4.5 C7.24 4.72, 7.18 4.94, 7.11 5.14 C7.04 5.35, 6.95 5.56, 6.84 5.75 C6.74 5.94, 6.61 6.13, 6.48 6.3 C6.34 6.47, 6.19 6.63, 6.02 6.77 C5.86 6.91, 5.68 7.04, 5.5 7.15 C5.32 7.26, 5.12 7.36, 4.92 7.44 C4.72 7.51, 4.51 7.57, 4.3 7.61 C4.09 7.65, 3.88 7.67, 3.67 7.67 C3.45 7.67, 3.24 7.65, 3.03 7.61 C2.82 7.57, 2.61 7.51, 2.41 7.44 C2.21 7.36, 2.02 7.26, 1.83 7.15 C1.65 7.04, 1.47 6.91, 1.31 6.77 C1.15 6.63, 0.99 6.47, 0.86 6.3 C0.72 6.13, 0.6 5.94, 0.49 5.75 C0.39 5.56, 0.29 5.35, 0.22 5.14 C0.15 4.94, 0.09 4.72, 0.06 4.5 C0.02 4.28, 0 4.06, 0 3.83 C0 3.61, 0.02 3.39, 0.06 3.17 C0.09 2.95, 0.15 2.73, 0.22 2.52 C0.29 2.31, 0.39 2.11, 0.49 1.92 C0.6 1.72, 0.72 1.54, 0.86 1.37 C0.99 1.2, 1.15 1.04, 1.31 0.9 C1.47 0.75, 1.65 0.62, 1.83 0.51 C2.02 0.4, 2.21 0.31, 2.41 0.23 C2.61 0.16, 2.82 0.1, 3.03 0.06 C3.24 0.02, 3.45 0, 3.67 0 C3.88 0, 4.09 0.02, 4.3 0.06 C4.51 0.1, 4.72 0.16, 4.92 0.23 C5.12 0.31, 5.32 0.4, 5.5 0.51 C5.68 0.62, 5.86 0.75, 6.02 0.9 C6.19 1.04, 6.34 1.2, 6.48 1.37 C6.61 1.54, 6.74 1.72, 6.84 1.92 C6.95 2.11, 7.04 2.31, 7.11 2.52 C7.18 2.73, 7.24 2.95, 7.28 3.17 C7.31 3.39, 7.32 3.72, 7.33 3.83 C7.34 3.94, 7.34 3.72, 7.33 3.83" stroke="#000000" stroke-width="2" fill="none"></path></g><g stroke-linecap="round" transform="translate(29.785838535600305 17.33572750651365) rotate(0 3.6666641235351562 3.8333282470703125)"><path d="M7.33 3.83 C7.33 4.06, 7.31 4.28, 7.28 4.5 C7.24 4.72, 7.18 4.94, 7.11 5.14 C7.04 5.35, 6.95 5.56, 6.84 5.75 C6.74 5.94, 6.61 6.13, 6.48 6.3 C6.34 6.47, 6.19 6.63, 6.02 6.77 C5.86 6.91, 5.68 7.04, 5.5 7.15 C5.32 7.26, 5.12 7.36, 4.92 7.44 C4.72 7.51, 4.51 7.57, 4.3 7.61 C4.09 7.65, 3.88 7.67, 3.67 7.67 C3.45 7.67, 3.24 7.65, 3.03 7.61 C2.82 7.57, 2.61 7.51, 2.41 7.44 C2.21 7.36, 2.02 7.26, 1.83 7.15 C1.65 7.04, 1.47 6.91, 1.31 6.77 C1.15 6.63, 0.99 6.47, 0.86 6.3 C0.72 6.13, 0.6 5.94, 0.49 5.75 C0.39 5.56, 0.29 5.35, 0.22 5.14 C0.15 4.94, 0.09 4.72, 0.06 4.5 C0.02 4.28, 0 4.06, 0 3.83 C0 3.61, 0.02 3.39, 0.06 3.17 C0.09 2.95, 0.15 2.73, 0.22 2.52 C0.29 2.31, 0.39 2.11, 0.49 1.92 C0.6 1.72, 0.72 1.54, 0.86 1.37 C0.99 1.2, 1.15 1.04, 1.31 0.9 C1.47 0.75, 1.65 0.62, 1.83 0.51 C2.02 0.4, 2.21 0.31, 2.41 0.23 C2.61 0.16, 2.82 0.1, 3.03 0.06 C3.24 0.02, 3.45 0, 3.67 0 C3.88 0, 4.09 0.02, 4.3 0.06 C4.51 0.1, 4.72 0.16, 4.92 0.23 C5.12 0.31, 5.32 0.4, 5.5 0.51 C5.68 0.62, 5.86 0.75, 6.02 0.9 C6.19 1.04, 6.34 1.2, 6.48 1.37 C6.61 1.54, 6.74 1.72, 6.84 1.92 C6.95 2.11, 7.04 2.31, 7.11 2.52 C7.18 2.73, 7.24 2.95, 7.28 3.17 C7.31 3.39, 7.32 3.72, 7.33 3.83 C7.34 3.94, 7.34 3.72, 7.33 3.83" stroke="none" stroke-width="0" fill="#fab005"></path><path d="M7.33 3.83 C7.33 4.06, 7.31 4.28, 7.28 4.5 C7.24 4.72, 7.18 4.94, 7.11 5.14 C7.04 5.35, 6.95 5.56, 6.84 5.75 C6.74 5.94, 6.61 6.13, 6.48 6.3 C6.34 6.47, 6.19 6.63, 6.02 6.77 C5.86 6.91, 5.68 7.04, 5.5 7.15 C5.32 7.26, 5.12 7.36, 4.92 7.44 C4.72 7.51, 4.51 7.57, 4.3 7.61 C4.09 7.65, 3.88 7.67, 3.67 7.67 C3.45 7.67, 3.24 7.65, 3.03 7.61 C2.82 7.57, 2.61 7.51, 2.41 7.44 C2.21 7.36, 2.02 7.26, 1.83 7.15 C1.65 7.04, 1.47 6.91, 1.31 6.77 C1.15 6.63, 0.99 6.47, 0.86 6.3 C0.72 6.13, 0.6 5.94, 0.49 5.75 C0.39 5.56, 0.29 5.35, 0.22 5.14 C0.15 4.94, 0.09 4.72, 0.06 4.5 C0.02 4.28, 0 4.06, 0 3.83 C0 3.61, 0.02 3.39, 0.06 3.17 C0.09 2.95, 0.15 2.73, 0.22 2.52 C0.29 2.31, 0.39 2.11, 0.49 1.92 C0.6 1.72, 0.72 1.54, 0.86 1.37 C0.99 1.2, 1.15 1.04, 1.31 0.9 C1.47 0.75, 1.65 0.62, 1.83 0.51 C2.02 0.4, 2.21 0.31, 2.41 0.23 C2.61 0.16, 2.82 0.1, 3.03 0.06 C3.24 0.02, 3.45 0, 3.67 0 C3.88 0, 4.09 0.02, 4.3 0.06 C4.51 0.1, 4.72 0.16, 4.92 0.23 C5.12 0.31, 5.32 0.4, 5.5 0.51 C5.68 0.62, 5.86 0.75, 6.02 0.9 C6.19 1.04, 6.34 1.2, 6.48 1.37 C6.61 1.54, 6.74 1.72, 6.84 1.92 C6.95 2.11, 7.04 2.31, 7.11 2.52 C7.18 2.73, 7.24 2.95, 7.28 3.17 C7.31 3.39, 7.32 3.72, 7.33 3.83 C7.34 3.94, 7.34 3.72, 7.33 3.83" stroke="#000000" stroke-width="2" fill="none"></path></g><g stroke-linecap="round"><g transform="translate(10.207026436402884 32.1878277620599) rotate(0 111.56720629170468 0)"><path d="M0 0 C55.81 0, 111.61 0, 223.13 0 M0 0 C45.99 0, 91.98 0, 223.13 0" stroke="#000000" stroke-width="2" fill="none"></path></g></g><mask></mask><g stroke-linecap="round" transform="translate(85.22535773668187 63.5125989182543) rotate(0.005729577951308233 36.44942733212201 36.42551194832231)"><path d="M72.9 36.43 C72.9 38.32, 72.75 40.25, 72.45 42.12 C72.15 44, 71.7 45.88, 71.11 47.68 C70.53 49.49, 69.79 51.27, 68.93 52.96 C68.06 54.65, 67.05 56.3, 65.94 57.84 C64.82 59.37, 63.57 60.84, 62.22 62.18 C60.88 63.53, 59.41 64.78, 57.87 65.89 C56.34 67.01, 54.69 68.02, 53 68.88 C51.3 69.74, 49.52 70.48, 47.71 71.07 C45.91 71.66, 44.03 72.11, 42.15 72.4 C40.27 72.7, 38.35 72.85, 36.45 72.85 C34.55 72.85, 32.62 72.7, 30.75 72.4 C28.87 72.11, 26.99 71.66, 25.19 71.07 C23.38 70.48, 21.6 69.74, 19.9 68.88 C18.21 68.02, 16.56 67.01, 15.02 65.89 C13.49 64.78, 12.02 63.53, 10.68 62.18 C9.33 60.84, 8.08 59.37, 6.96 57.84 C5.84 56.3, 4.84 54.65, 3.97 52.96 C3.11 51.27, 2.37 49.49, 1.78 47.68 C1.2 45.88, 0.75 44, 0.45 42.12 C0.15 40.25, 0 38.32, 0 36.43 C0 34.53, 0.15 32.6, 0.45 30.73 C0.75 28.85, 1.2 26.98, 1.78 25.17 C2.37 23.36, 3.11 21.58, 3.97 19.89 C4.84 18.2, 5.84 16.55, 6.96 15.02 C8.08 13.48, 9.33 12.01, 10.68 10.67 C12.02 9.33, 13.49 8.07, 15.02 6.96 C16.56 5.84, 18.21 4.83, 19.9 3.97 C21.6 3.11, 23.38 2.37, 25.19 1.78 C26.99 1.2, 28.87 0.75, 30.75 0.45 C32.62 0.15, 34.55 0, 36.45 0 C38.35 0, 40.27 0.15, 42.15 0.45 C44.03 0.75, 45.91 1.2, 47.71 1.78 C49.52 2.37, 51.3 3.11, 53 3.97 C54.69 4.83, 56.34 5.84, 57.87 6.96 C59.41 8.07, 60.88 9.33, 62.22 10.67 C63.57 12.01, 64.82 13.48, 65.94 15.02 C67.05 16.55, 68.06 18.2, 68.93 19.89 C69.79 21.58, 70.53 23.36, 71.11 25.17 C71.7 26.98, 72.15 28.85, 72.45 30.73 C72.75 32.6, 72.82 35.48, 72.9 36.43 C72.97 37.38, 72.97 35.48, 72.9 36.43" stroke="#000000" stroke-width="2" fill="none"></path></g><g stroke-linecap="round" transform="translate(114.5683834457559 63.5125989182543) rotate(0.005729577951308233 7.031064815276295 36.42551194832231)"><path d="M14.06 36.43 C14.06 38.53, 14.03 40.67, 13.96 42.75 C13.88 44.83, 13.78 46.9, 13.64 48.88 C13.5 50.87, 13.32 52.81, 13.12 54.64 C12.92 56.46, 12.68 58.22, 12.42 59.84 C12.16 61.45, 11.86 62.97, 11.55 64.33 C11.24 65.68, 10.9 66.92, 10.55 67.97 C10.19 69.03, 9.82 69.93, 9.44 70.65 C9.05 71.38, 8.65 71.93, 8.25 72.3 C7.85 72.66, 7.44 72.85, 7.03 72.85 C6.62 72.85, 6.21 72.66, 5.81 72.3 C5.41 71.93, 5.01 71.38, 4.63 70.65 C4.24 69.93, 3.87 69.03, 3.52 67.97 C3.16 66.92, 2.82 65.68, 2.51 64.33 C2.2 62.97, 1.91 61.45, 1.64 59.84 C1.38 58.22, 1.15 56.46, 0.94 54.64 C0.74 52.81, 0.56 50.87, 0.42 48.88 C0.28 46.9, 0.18 44.83, 0.11 42.75 C0.04 40.67, 0 38.53, 0 36.43 C0 34.32, 0.04 32.18, 0.11 30.1 C0.18 28.02, 0.28 25.95, 0.42 23.97 C0.56 21.99, 0.74 20.04, 0.94 18.21 C1.15 16.39, 1.38 14.63, 1.64 13.01 C1.91 11.4, 2.2 9.88, 2.51 8.52 C2.82 7.17, 3.16 5.93, 3.52 4.88 C3.87 3.83, 4.24 2.92, 4.63 2.2 C5.01 1.48, 5.41 0.92, 5.81 0.55 C6.21 0.19, 6.62 0, 7.03 0 C7.44 0, 7.85 0.19, 8.25 0.55 C8.65 0.92, 9.05 1.48, 9.44 2.2 C9.82 2.92, 10.19 3.83, 10.55 4.88 C10.9 5.93, 11.24 7.17, 11.55 8.52 C11.86 9.88, 12.16 11.4, 12.42 13.01 C12.68 14.63, 12.92 16.39, 13.12 18.21 C13.32 20.04, 13.5 21.99, 13.64 23.97 C13.78 25.95, 13.88 28.02, 13.96 30.1 C14.03 32.18, 14.04 35.37, 14.06 36.43 C14.08 37.48, 14.08 35.37, 14.06 36.43" stroke="#000000" stroke-width="2" fill="none"></path></g><g stroke-linecap="round" transform="translate(99.74073942611722 63.5120560323694) rotate(0.005729577951308233 21.858459585479068 36.42578344947333)"><path d="M43.72 36.43 C43.72 38.53, 43.6 40.67, 43.38 42.75 C43.17 44.83, 42.83 46.9, 42.4 48.88 C41.97 50.87, 41.42 52.81, 40.79 54.64 C40.16 56.46, 39.42 58.22, 38.6 59.84 C37.79 61.45, 36.88 62.97, 35.91 64.33 C34.94 65.68, 33.88 66.92, 32.79 67.97 C31.69 69.03, 30.52 69.93, 29.33 70.65 C28.15 71.38, 26.9 71.93, 25.65 72.3 C24.41 72.66, 23.12 72.85, 21.86 72.85 C20.59 72.85, 19.31 72.66, 18.06 72.3 C16.82 71.93, 15.57 71.38, 14.38 70.65 C13.19 69.93, 12.02 69.03, 10.93 67.97 C9.83 66.92, 8.78 65.68, 7.81 64.33 C6.84 62.97, 5.93 61.45, 5.11 59.84 C4.3 58.22, 3.56 56.46, 2.93 54.64 C2.3 52.81, 1.75 50.87, 1.32 48.88 C0.89 46.9, 0.55 44.83, 0.33 42.75 C0.11 40.67, 0 38.53, 0 36.43 C0 34.32, 0.11 32.18, 0.33 30.1 C0.55 28.02, 0.89 25.95, 1.32 23.97 C1.75 21.99, 2.3 20.04, 2.93 18.21 C3.56 16.39, 4.3 14.63, 5.11 13.01 C5.93 11.4, 6.84 9.88, 7.81 8.52 C8.78 7.17, 9.83 5.93, 10.93 4.88 C12.02 3.83, 13.19 2.92, 14.38 2.2 C15.57 1.48, 16.82 0.92, 18.06 0.55 C19.31 0.19, 20.59 0, 21.86 0 C23.12 0, 24.41 0.19, 25.65 0.55 C26.9 0.92, 28.15 1.48, 29.33 2.2 C30.52 2.92, 31.69 3.83, 32.79 4.88 C33.88 5.93, 34.94 7.17, 35.91 8.52 C36.88 9.88, 37.79 11.4, 38.6 13.01 C39.42 14.63, 40.16 16.39, 40.79 18.21 C41.42 20.04, 41.97 21.99, 42.4 23.97 C42.83 25.95, 43.17 28.02, 43.38 30.1 C43.6 32.18, 43.66 35.37, 43.72 36.43 C43.77 37.48, 43.77 35.37, 43.72 36.43" stroke="#000000" stroke-width="2" fill="none"></path></g><g stroke-linecap="round"><g transform="translate(85.22535791892915 99.93446592384771) rotate(0 36.44942714987428 0.0036449427279876545)"><path d="M0 0 C26.89 0, 53.78 0.01, 72.9 0.01 M0 0 C25.99 0, 51.98 0.01, 72.9 0.01" stroke="#000000" stroke-width="2" fill="none"></path></g></g><mask></mask><g stroke-linecap="round"><g transform="translate(121.59555643325712 136.36362274918793) rotate(0 0.00012463829307307606 -5.8208115660818294e-8)"><path d="M0 0 C0 0, 0 0, 0 0 M0 0 C0 0, 0 0, 0 0" stroke="#000000" stroke-width="2" fill="none"></path></g></g><mask></mask><g stroke-linecap="round"><g transform="translate(94.83339586993588 124.53210845720605) rotate(0 26.811537403805687 -5.542553110366498)"><path d="M0 0 C1.69 -1.38, 3.39 -2.77, 7.84 -6.4 M0 0 C2.37 -1.93, 4.73 -3.86, 7.84 -6.4 M7.84 -6.4 C11.35 -7.72, 14.86 -9.05, 20.28 -11.09 M7.84 -6.4 C10.76 -7.5, 13.68 -8.6, 20.28 -11.09 M20.28 -11.09 C24.92 -11.09, 29.55 -11.09, 33.26 -11.09 M20.28 -11.09 C25.2 -11.09, 30.12 -11.09, 33.26 -11.09 M33.26 -11.09 C37.99 -9.32, 42.72 -7.56, 45.69 -6.46 M33.26 -11.09 C36.98 -9.7, 40.71 -8.31, 45.69 -6.46 M45.69 -6.46 C47.51 -4.97, 49.34 -3.49, 53.62 0 M45.69 -6.46 C48.7 -4.01, 51.71 -1.56, 53.62 0" stroke="#000000" stroke-width="2" fill="none"></path></g></g><mask></mask><g stroke-linecap="round"><g transform="translate(94.85020384940344 75.30320770571416) rotate(0 26.820101130655075 5.43140924650379)"><path d="M0 0 C2.63 2.09, 5.26 4.18, 7.88 6.27 M0 0 C2.16 1.72, 4.32 3.43, 7.88 6.27 M7.88 6.27 C10.55 7.26, 13.21 8.26, 20.24 10.88 M7.88 6.27 C11.4 7.58, 14.93 8.9, 20.24 10.88 M20.24 10.88 C23.66 10.88, 27.08 10.87, 33.29 10.86 M20.24 10.88 C24.55 10.87, 28.86 10.87, 33.29 10.86 M33.29 10.86 C37.15 9.44, 41 8.01, 45.65 6.3 M33.29 10.86 C36.48 9.68, 39.68 8.5, 45.65 6.3 M45.65 6.3 C47.52 4.82, 49.39 3.34, 53.64 -0.02 M45.65 6.3 C47.49 4.84, 49.33 3.39, 53.64 -0.02" stroke="#000000" stroke-width="2" fill="none"></path></g></g><mask></mask><g transform="translate(83.89136990459974 182.47890637224828) rotate(0 36.6748046875 11.5)"><text x="36.6748046875" y="0" font-family="Helvetica, Segoe UI Emoji" font-size="20px" fill="#000000" text-anchor="middle" style="white-space: pre;" direction="ltr" dominant-baseline="text-before-edge">Browser</text></g><g stroke-linecap="round"><g transform="translate(232.81795223501194 134.62741222529075) rotate(0 138.23160131201803 0.24032267469465296)"><path d="M0 0 C67.04 0.12, 134.08 0.23, 276.46 0.48 M0 0 C87.25 0.15, 174.49 0.3, 276.46 0.48" stroke="#000000" stroke-width="2" fill="none"></path></g><g transform="translate(232.81795223501194 134.62741222529075) rotate(0 138.23160131201803 0.24032267469465296)"><path d="M248.25 10.69 C255.1 8.22, 261.94 5.74, 276.46 0.48 M248.25 10.69 C257.16 7.47, 266.06 4.25, 276.46 0.48" stroke="#000000" stroke-width="2" fill="none"></path></g><g transform="translate(232.81795223501194 134.62741222529075) rotate(0 138.23160131201803 0.24032267469465296)"><path d="M248.29 -9.83 C255.12 -7.33, 261.95 -4.83, 276.46 0.48 M248.29 -9.83 C257.18 -6.58, 266.07 -3.32, 276.46 0.48" stroke="#000000" stroke-width="2" fill="none"></path></g></g><mask></mask><g stroke-linecap="round" transform="translate(511.3660265585231 10.388261111994325) rotate(0.005729577951308233 43.56255075872241 81.31676141628122)"><path d="M0 0 L87.13 0 L87.13 162.63 L0 162.63" stroke="none" stroke-width="0" fill="#ffffff"></path><path d="M0 0 C19.03 0, 38.07 0, 87.13 0 M0 0 C24.38 0, 48.75 0, 87.13 0 M87.13 0 C87.13 48.27, 87.13 96.54, 87.13 162.63 M87.13 0 C87.13 47.26, 87.13 94.52, 87.13 162.63 M87.13 162.63 C68.3 162.63, 49.47 162.63, 0 162.63 M87.13 162.63 C57.7 162.63, 28.26 162.63, 0 162.63 M0 162.63 C0 107.48, 0 52.32, 0 0 M0 162.63 C0 115.85, 0 69.06, 0 0" stroke="#000000" stroke-width="2" fill="none"></path></g><g stroke-linecap="round"><g transform="translate(521.8499199453454 28.379674823233472) rotate(0 33.3979555816868 4.547473508864641e-13)"><path d="M0 0 C11.13 0, 55.66 0, 66.8 0 M0 0 C11.13 0, 55.66 0, 66.8 0" stroke="#000000" stroke-width="2" fill="none"></path></g></g><mask></mask><g stroke-linecap="round"><g transform="translate(521.5306217355574 43.35032369313012) rotate(0 33.3979555816868 4.547473508864641e-13)"><path d="M0 0 C11.13 0, 55.66 0, 66.8 0 M0 0 C11.13 0, 55.66 0, 66.8 0" stroke="#000000" stroke-width="2" fill="none"></path></g></g><mask></mask><g stroke-linecap="round"><g transform="translate(521.4584187237351 58.3209725630295) rotate(0 33.3979555816868 4.547473508864641e-13)"><path d="M0 0 C11.13 0, 55.66 0, 66.8 0 M0 0 C11.13 0, 55.66 0, 66.8 0" stroke="#000000" stroke-width="2" fill="none"></path></g></g><mask></mask><g stroke-linecap="round"><g transform="translate(521.4584187237351 73.29162143292706) rotate(0 33.3979555816868 4.547473508864641e-13)"><path d="M0 0 C11.13 0, 55.66 0, 66.8 0 M0 0 C11.13 0, 55.66 0, 66.8 0" stroke="#000000" stroke-width="2" fill="none"></path></g></g><mask></mask><g transform="translate(527.9117001335753 182.8151379752535) rotate(0 29.453125 11.5)"><text x="29.453125" y="0" font-family="Helvetica, Segoe UI Emoji" font-size="20px" fill="#000000" text-anchor="middle" style="white-space: pre;" direction="ltr" dominant-baseline="text-before-edge">Server</text></g></svg>
