<svg version="1.1" xmlns="http://www.w3.org/2000/svg" viewBox="0 0 517.7263629924682 342.2795802390747" width="517.7263629924682" height="342.2795802390747">
  <!-- svg-source:excalidraw -->

  <defs>
    <style class="style-fonts">
      @font-face {
        font-family: "Virgil";
        src: url("https://excalidraw.com/Virgil.woff2");
      }
      @font-face {
        font-family: "Cascadia";
        src: url("https://excalidraw.com/Cascadia.woff2");
      }
    </style>
  </defs>
  <g transform="translate(377.66776924246824 217.27958023907468) rotate(0 65.029296875 57.5)"><text x="0" y="0" font-family="Helvetica, Segoe UI Emoji" font-size="20px" fill="#000000" text-anchor="start" style="white-space: pre;" direction="ltr" dominant-baseline="text-before-edge">TABLE user {</text><text x="0" y="23" font-family="Helvetica, Segoe UI Emoji" font-size="20px" fill="#000000" text-anchor="start" style="white-space: pre;" direction="ltr" dominant-baseline="text-before-edge">  id: Int;</text><text x="0" y="46" font-family="Helvetica, Segoe UI Emoji" font-size="20px" fill="#000000" text-anchor="start" style="white-space: pre;" direction="ltr" dominant-baseline="text-before-edge">  name: String;</text><text x="0" y="69" font-family="Helvetica, Segoe UI Emoji" font-size="20px" fill="#000000" text-anchor="start" style="white-space: pre;" direction="ltr" dominant-baseline="text-before-edge">  age: Int;</text><text x="0" y="92" font-family="Helvetica, Segoe UI Emoji" font-size="20px" fill="#000000" text-anchor="start" style="white-space: pre;" direction="ltr" dominant-baseline="text-before-edge">}</text></g><g stroke-linecap="round"><g transform="translate(97.21033491987419 99.54644349892533) rotate(0 124.00763411148137 0.1224108065512155)"><path d="M0 0 C41.34 0.04, 206.68 0.2, 248.02 0.24 M0 0 C41.34 0.04, 206.68 0.2, 248.02 0.24" stroke="#000000" stroke-width="2" fill="none"></path></g><g transform="translate(97.21033491987419 99.54644349892533) rotate(0 124.00763411148137 0.1224108065512155)"><path d="M219.81 10.48 C229.95 6.8, 240.08 3.12, 248.02 0.24 M219.81 10.48 C230.11 6.74, 240.41 3, 248.02 0.24" stroke="#000000" stroke-width="2" fill="none"></path></g><g transform="translate(97.21033491987419 99.54644349892533) rotate(0 124.00763411148137 0.1224108065512155)"><path d="M219.83 -10.04 C229.96 -6.35, 240.09 -2.65, 248.02 0.24 M219.83 -10.04 C230.13 -6.29, 240.42 -2.53, 248.02 0.24" stroke="#000000" stroke-width="2" fill="none"></path></g></g><mask></mask><g transform="translate(110.21151248133901 22.05271967473891) rotate(0 89.19921875 34.5)"><text x="0" y="0" font-family="Helvetica, Segoe UI Emoji" font-size="20px" fill="#000000" text-anchor="start" style="white-space: pre;" direction="ltr" dominant-baseline="text-before-edge">SELECT name, </text><text x="0" y="23" font-family="Helvetica, Segoe UI Emoji" font-size="20px" fill="#000000" text-anchor="start" style="white-space: pre;" direction="ltr" dominant-baseline="text-before-edge">FROM user</text><text x="0" y="46" font-family="Helvetica, Segoe UI Emoji" font-size="20px" fill="#000000" text-anchor="start" style="white-space: pre;" direction="ltr" dominant-baseline="text-before-edge">WHERE user.id = 1;</text></g><g transform="translate(254.40414014044563 21.408252392575378) rotate(0 23.896484375 11.5)"><text x="0" y="0" font-family="Helvetica, Segoe UI Emoji" font-size="20px" fill="#c92a2a" text-anchor="start" style="white-space: pre;" direction="ltr" dominant-baseline="text-before-edge">email</text></g><g stroke-linecap="round" transform="translate(346.5446301593702 14.42799657640262) rotate(0.005729577951308233 69.17168370808804 18.80742656855682)"><path d="M138.34 18.81 C138.34 19.63, 138.14 20.45, 137.75 21.26 C137.36 22.07, 136.77 22.88, 135.99 23.68 C135.21 24.47, 134.23 25.25, 133.08 26 C131.93 26.76, 130.58 27.5, 129.08 28.21 C127.57 28.92, 125.88 29.61, 124.05 30.26 C122.22 30.91, 120.21 31.53, 118.08 32.11 C115.96 32.68, 113.67 33.23, 111.28 33.73 C108.89 34.23, 106.36 34.69, 103.76 35.1 C101.15 35.5, 98.42 35.87, 95.64 36.18 C92.86 36.5, 89.98 36.76, 87.07 36.97 C84.17 37.19, 81.18 37.35, 78.2 37.45 C75.22 37.56, 72.18 37.61, 69.17 37.61 C66.16 37.61, 63.13 37.56, 60.14 37.45 C57.16 37.35, 54.18 37.19, 51.27 36.97 C48.36 36.76, 45.48 36.5, 42.7 36.18 C39.92 35.87, 37.19 35.5, 34.59 35.1 C31.98 34.69, 29.45 34.23, 27.06 33.73 C24.67 33.23, 22.39 32.68, 20.26 32.11 C18.13 31.53, 16.13 30.91, 14.29 30.26 C12.46 29.61, 10.77 28.92, 9.27 28.21 C7.76 27.5, 6.42 26.76, 5.27 26 C4.11 25.25, 3.14 24.47, 2.36 23.68 C1.58 22.88, 0.98 22.07, 0.59 21.26 C0.2 20.45, 0 19.63, 0 18.81 C0 17.99, 0.2 17.16, 0.59 16.35 C0.98 15.54, 1.58 14.73, 2.36 13.94 C3.14 13.15, 4.11 12.37, 5.27 11.61 C6.42 10.85, 7.76 10.11, 9.27 9.4 C10.77 8.7, 12.46 8.01, 14.29 7.36 C16.13 6.71, 18.13 6.09, 20.26 5.51 C22.39 4.93, 24.67 4.38, 27.06 3.89 C29.45 3.39, 31.98 2.93, 34.59 2.52 C37.19 2.11, 39.92 1.74, 42.7 1.43 C45.48 1.12, 48.36 0.85, 51.27 0.64 C54.18 0.43, 57.16 0.27, 60.14 0.16 C63.13 0.05, 66.16 0, 69.17 0 C72.18 0, 75.22 0.05, 78.2 0.16 C81.18 0.27, 84.17 0.43, 87.07 0.64 C89.98 0.85, 92.86 1.12, 95.64 1.43 C98.42 1.74, 101.15 2.11, 103.76 2.52 C106.36 2.93, 108.89 3.39, 111.28 3.89 C113.67 4.38, 115.96 4.93, 118.08 5.51 C120.21 6.09, 122.22 6.71, 124.05 7.36 C125.88 8.01, 127.57 8.7, 129.08 9.4 C130.58 10.11, 131.93 10.85, 133.08 11.61 C134.23 12.37, 135.21 13.15, 135.99 13.94 C136.77 14.73, 137.36 15.54, 137.75 16.35 C138.14 17.16, 138.24 18.4, 138.34 18.81 C138.44 19.22, 138.44 18.4, 138.34 18.81" stroke="none" stroke-width="0" fill="#ffffff"></path><path d="M138.34 18.81 C138.34 19.63, 138.14 20.45, 137.75 21.26 C137.36 22.07, 136.77 22.88, 135.99 23.68 C135.21 24.47, 134.23 25.25, 133.08 26 C131.93 26.76, 130.58 27.5, 129.08 28.21 C127.57 28.92, 125.88 29.61, 124.05 30.26 C122.22 30.91, 120.21 31.53, 118.08 32.11 C115.96 32.68, 113.67 33.23, 111.28 33.73 C108.89 34.23, 106.36 34.69, 103.76 35.1 C101.15 35.5, 98.42 35.87, 95.64 36.18 C92.86 36.5, 89.98 36.76, 87.07 36.97 C84.17 37.19, 81.18 37.35, 78.2 37.45 C75.22 37.56, 72.18 37.61, 69.17 37.61 C66.16 37.61, 63.13 37.56, 60.14 37.45 C57.16 37.35, 54.18 37.19, 51.27 36.97 C48.36 36.76, 45.48 36.5, 42.7 36.18 C39.92 35.87, 37.19 35.5, 34.59 35.1 C31.98 34.69, 29.45 34.23, 27.06 33.73 C24.67 33.23, 22.39 32.68, 20.26 32.11 C18.13 31.53, 16.13 30.91, 14.29 30.26 C12.46 29.61, 10.77 28.92, 9.27 28.21 C7.76 27.5, 6.42 26.76, 5.27 26 C4.11 25.25, 3.14 24.47, 2.36 23.68 C1.58 22.88, 0.98 22.07, 0.59 21.26 C0.2 20.45, 0 19.63, 0 18.81 C0 17.99, 0.2 17.16, 0.59 16.35 C0.98 15.54, 1.58 14.73, 2.36 13.94 C3.14 13.15, 4.11 12.37, 5.27 11.61 C6.42 10.85, 7.76 10.11, 9.27 9.4 C10.77 8.7, 12.46 8.01, 14.29 7.36 C16.13 6.71, 18.13 6.09, 20.26 5.51 C22.39 4.93, 24.67 4.38, 27.06 3.89 C29.45 3.39, 31.98 2.93, 34.59 2.52 C37.19 2.11, 39.92 1.74, 42.7 1.43 C45.48 1.12, 48.36 0.85, 51.27 0.64 C54.18 0.43, 57.16 0.27, 60.14 0.16 C63.13 0.05, 66.16 0, 69.17 0 C72.18 0, 75.22 0.05, 78.2 0.16 C81.18 0.27, 84.17 0.43, 87.07 0.64 C89.98 0.85, 92.86 1.12, 95.64 1.43 C98.42 1.74, 101.15 2.11, 103.76 2.52 C106.36 2.93, 108.89 3.39, 111.28 3.89 C113.67 4.38, 115.96 4.93, 118.08 5.51 C120.21 6.09, 122.22 6.71, 124.05 7.36 C125.88 8.01, 127.57 8.7, 129.08 9.4 C130.58 10.11, 131.93 10.85, 133.08 11.61 C134.23 12.37, 135.21 13.15, 135.99 13.94 C136.77 14.73, 137.36 15.54, 137.75 16.35 C138.14 17.16, 138.24 18.4, 138.34 18.81 C138.44 19.22, 138.44 18.4, 138.34 18.81" stroke="#000000" stroke-width="2" fill="none"></path></g><g stroke-linecap="round" transform="translate(346.5446301593702 139.44666627185143) rotate(0.005729577951308233 69.17168370808804 18.80742656855682)"><path d="M138.34 18.81 C138.34 19.63, 138.14 20.45, 137.75 21.26 C137.36 22.07, 136.77 22.88, 135.99 23.68 C135.21 24.47, 134.23 25.25, 133.08 26 C131.93 26.76, 130.58 27.5, 129.08 28.21 C127.57 28.92, 125.88 29.61, 124.05 30.26 C122.22 30.91, 120.21 31.53, 118.08 32.11 C115.96 32.68, 113.67 33.23, 111.28 33.73 C108.89 34.23, 106.36 34.69, 103.76 35.1 C101.15 35.5, 98.42 35.87, 95.64 36.18 C92.86 36.5, 89.98 36.76, 87.07 36.97 C84.17 37.19, 81.18 37.35, 78.2 37.45 C75.22 37.56, 72.18 37.61, 69.17 37.61 C66.16 37.61, 63.13 37.56, 60.14 37.45 C57.16 37.35, 54.18 37.19, 51.27 36.97 C48.36 36.76, 45.48 36.5, 42.7 36.18 C39.92 35.87, 37.19 35.5, 34.59 35.1 C31.98 34.69, 29.45 34.23, 27.06 33.73 C24.67 33.23, 22.39 32.68, 20.26 32.11 C18.13 31.53, 16.13 30.91, 14.29 30.26 C12.46 29.61, 10.77 28.92, 9.27 28.21 C7.76 27.5, 6.42 26.76, 5.27 26 C4.11 25.25, 3.14 24.47, 2.36 23.68 C1.58 22.88, 0.98 22.07, 0.59 21.26 C0.2 20.45, 0 19.63, 0 18.81 C0 17.99, 0.2 17.16, 0.59 16.35 C0.98 15.54, 1.58 14.73, 2.36 13.94 C3.14 13.15, 4.11 12.37, 5.27 11.61 C6.42 10.85, 7.76 10.11, 9.27 9.4 C10.77 8.7, 12.46 8.01, 14.29 7.36 C16.13 6.71, 18.13 6.09, 20.26 5.51 C22.39 4.93, 24.67 4.38, 27.06 3.89 C29.45 3.39, 31.98 2.93, 34.59 2.52 C37.19 2.11, 39.92 1.74, 42.7 1.43 C45.48 1.12, 48.36 0.85, 51.27 0.64 C54.18 0.43, 57.16 0.27, 60.14 0.16 C63.13 0.05, 66.16 0, 69.17 0 C72.18 0, 75.22 0.05, 78.2 0.16 C81.18 0.27, 84.17 0.43, 87.07 0.64 C89.98 0.85, 92.86 1.12, 95.64 1.43 C98.42 1.74, 101.15 2.11, 103.76 2.52 C106.36 2.93, 108.89 3.39, 111.28 3.89 C113.67 4.38, 115.96 4.93, 118.08 5.51 C120.21 6.09, 122.22 6.71, 124.05 7.36 C125.88 8.01, 127.57 8.7, 129.08 9.4 C130.58 10.11, 131.93 10.85, 133.08 11.61 C134.23 12.37, 135.21 13.15, 135.99 13.94 C136.77 14.73, 137.36 15.54, 137.75 16.35 C138.14 17.16, 138.24 18.4, 138.34 18.81 C138.44 19.22, 138.44 18.4, 138.34 18.81" stroke="none" stroke-width="0" fill="#ffffff"></path><path d="M138.34 18.81 C138.34 19.63, 138.14 20.45, 137.75 21.26 C137.36 22.07, 136.77 22.88, 135.99 23.68 C135.21 24.47, 134.23 25.25, 133.08 26 C131.93 26.76, 130.58 27.5, 129.08 28.21 C127.57 28.92, 125.88 29.61, 124.05 30.26 C122.22 30.91, 120.21 31.53, 118.08 32.11 C115.96 32.68, 113.67 33.23, 111.28 33.73 C108.89 34.23, 106.36 34.69, 103.76 35.1 C101.15 35.5, 98.42 35.87, 95.64 36.18 C92.86 36.5, 89.98 36.76, 87.07 36.97 C84.17 37.19, 81.18 37.35, 78.2 37.45 C75.22 37.56, 72.18 37.61, 69.17 37.61 C66.16 37.61, 63.13 37.56, 60.14 37.45 C57.16 37.35, 54.18 37.19, 51.27 36.97 C48.36 36.76, 45.48 36.5, 42.7 36.18 C39.92 35.87, 37.19 35.5, 34.59 35.1 C31.98 34.69, 29.45 34.23, 27.06 33.73 C24.67 33.23, 22.39 32.68, 20.26 32.11 C18.13 31.53, 16.13 30.91, 14.29 30.26 C12.46 29.61, 10.77 28.92, 9.27 28.21 C7.76 27.5, 6.42 26.76, 5.27 26 C4.11 25.25, 3.14 24.47, 2.36 23.68 C1.58 22.88, 0.98 22.07, 0.59 21.26 C0.2 20.45, 0 19.63, 0 18.81 C0 17.99, 0.2 17.16, 0.59 16.35 C0.98 15.54, 1.58 14.73, 2.36 13.94 C3.14 13.15, 4.11 12.37, 5.27 11.61 C6.42 10.85, 7.76 10.11, 9.27 9.4 C10.77 8.7, 12.46 8.01, 14.29 7.36 C16.13 6.71, 18.13 6.09, 20.26 5.51 C22.39 4.93, 24.67 4.38, 27.06 3.89 C29.45 3.39, 31.98 2.93, 34.59 2.52 C37.19 2.11, 39.92 1.74, 42.7 1.43 C45.48 1.12, 48.36 0.85, 51.27 0.64 C54.18 0.43, 57.16 0.27, 60.14 0.16 C63.13 0.05, 66.16 0, 69.17 0 C72.18 0, 75.22 0.05, 78.2 0.16 C81.18 0.27, 84.17 0.43, 87.07 0.64 C89.98 0.85, 92.86 1.12, 95.64 1.43 C98.42 1.74, 101.15 2.11, 103.76 2.52 C106.36 2.93, 108.89 3.39, 111.28 3.89 C113.67 4.38, 115.96 4.93, 118.08 5.51 C120.21 6.09, 122.22 6.71, 124.05 7.36 C125.88 8.01, 127.57 8.7, 129.08 9.4 C130.58 10.11, 131.93 10.85, 133.08 11.61 C134.23 12.37, 135.21 13.15, 135.99 13.94 C136.77 14.73, 137.36 15.54, 137.75 16.35 C138.14 17.16, 138.24 18.4, 138.34 18.81 C138.44 19.22, 138.44 18.4, 138.34 18.81" stroke="#000000" stroke-width="2" fill="none"></path></g><g stroke-linecap="round"><g transform="translate(484.88799722968815 33.2423403133198) rotate(0 0 62.50933484772395)"><path d="M0 0 C0 46.16, 0 92.33, 0 125.02 M0 0 C0 49.24, 0 98.49, 0 125.02" stroke="#000000" stroke-width="2" fill="none"></path></g></g><mask></mask><g stroke-linecap="round"><g transform="translate(346.5446305052292 33.2285059766009) rotate(0 0 62.50933484772395)"><path d="M0 0 C0 38.76, 0 77.51, 0 125.02 M0 0 C0 30.11, 0 60.22, 0 125.02" stroke="#000000" stroke-width="2" fill="none"></path></g></g><mask></mask><g transform="translate(376.28665219441154 186.2562329709881) rotate(0 42.8076171875 11.5)"><text x="42.8076171875" y="0" font-family="Helvetica, Segoe UI Emoji" font-size="20px" fill="#000000" text-anchor="middle" style="white-space: pre;" direction="ltr" dominant-baseline="text-before-edge">Database</text></g><g stroke-linecap="round" transform="translate(10.008131458314892 10.00435584848492) rotate(0.005729577951308233 43.56255075872241 81.31676141628122)"><path d="M0 0 L87.13 0 L87.13 162.63 L0 162.63" stroke="none" stroke-width="0" fill="#ffffff"></path><path d="M0 0 C28.31 0, 56.62 0, 87.13 0 M0 0 C28.27 0, 56.55 0, 87.13 0 M87.13 0 C87.13 38.19, 87.13 76.38, 87.13 162.63 M87.13 0 C87.13 55.66, 87.13 111.31, 87.13 162.63 M87.13 162.63 C63.1 162.63, 39.07 162.63, 0 162.63 M87.13 162.63 C66.4 162.63, 45.68 162.63, 0 162.63 M0 162.63 C0 103.1, 0 43.56, 0 0 M0 162.63 C0 100.06, 0 37.49, 0 0" stroke="#000000" stroke-width="2" fill="none"></path></g><g stroke-linecap="round"><g transform="translate(20.492024845137166 27.995769559724067) rotate(0 33.3979555816868 4.547473508864641e-13)"><path d="M0 0 C11.13 0, 55.66 0, 66.8 0 M0 0 C11.13 0, 55.66 0, 66.8 0" stroke="#000000" stroke-width="2" fill="none"></path></g></g><mask></mask><g stroke-linecap="round"><g transform="translate(20.172726635349136 42.96641842962072) rotate(0 33.3979555816868 4.547473508864641e-13)"><path d="M0 0 C11.13 0, 55.66 0, 66.8 0 M0 0 C11.13 0, 55.66 0, 66.8 0" stroke="#000000" stroke-width="2" fill="none"></path></g></g><mask></mask><g stroke-linecap="round"><g transform="translate(20.100523623526897 57.937067299520095) rotate(0 33.3979555816868 4.547473508864641e-13)"><path d="M0 0 C11.13 0, 55.66 0, 66.8 0 M0 0 C11.13 0, 55.66 0, 66.8 0" stroke="#000000" stroke-width="2" fill="none"></path></g></g><mask></mask><g stroke-linecap="round"><g transform="translate(20.100523623526897 72.90771616941765) rotate(0 33.3979555816868 4.547473508864641e-13)"><path d="M0 0 C11.13 0, 55.66 0, 66.8 0 M0 0 C11.13 0, 55.66 0, 66.8 0" stroke="#000000" stroke-width="2" fill="none"></path></g></g><mask></mask><g transform="translate(26.553805033367098 182.4312327117441) rotate(0 29.453125 11.5)"><text x="29.453125" y="0" font-family="Helvetica, Segoe UI Emoji" font-size="20px" fill="#000000" text-anchor="middle" style="white-space: pre;" direction="ltr" dominant-baseline="text-before-edge">Server</text></g></svg>
