<svg version="1.1" xmlns="http://www.w3.org/2000/svg" viewBox="0 0 697.0936985834514 487.29377881988785" width="697.0936985834514" height="487.29377881988785">
  <!-- svg-source:excalidraw -->

  <defs>
    <style class="style-fonts">
      @font-face {
        font-family: "Virgil";
        src: url("https://excalidraw.com/Virgil.woff2");
      }
      @font-face {
        font-family: "Cascadia";
        src: url("https://excalidraw.com/Cascadia.woff2");
      }
    </style>
  </defs>
  <g stroke-linecap="round" transform="translate(599.9604656076917 150.67054610443938) rotate(0.005729577951308233 43.56255075872218 81.31676141628122)"><path d="M0 0 L87.13 0 L87.13 162.63 L0 162.63" stroke="none" stroke-width="0" fill="#ffffff"></path><path d="M0 0 C21.84 0, 43.68 0, 87.13 0 M0 0 C26.18 0, 52.36 0, 87.13 0 M87.13 0 C87.13 45.88, 87.13 91.77, 87.13 162.63 M87.13 0 C87.13 61.23, 87.13 122.46, 87.13 162.63 M87.13 162.63 C68.86 162.63, 50.6 162.63, 0 162.63 M87.13 162.63 C52.5 162.63, 17.88 162.63, 0 162.63 M0 162.63 C0 126.06, 0 89.49, 0 0 M0 162.63 C0 99.5, 0 36.37, 0 0" stroke="#000000" stroke-width="2" fill="none"></path></g><g stroke-linecap="round"><g transform="translate(610.444358994514 168.66195981567853) rotate(0 33.3979555816868 4.547473508864641e-13)"><path d="M0 0 C11.13 0, 55.66 0, 66.8 0 M0 0 C11.13 0, 55.66 0, 66.8 0" stroke="#000000" stroke-width="2" fill="none"></path></g></g><mask></mask><g stroke-linecap="round"><g transform="translate(610.125060784726 183.63260868557518) rotate(0 33.3979555816868 4.547473508864641e-13)"><path d="M0 0 C11.13 0, 55.66 0, 66.8 0 M0 0 C11.13 0, 55.66 0, 66.8 0" stroke="#000000" stroke-width="2" fill="none"></path></g></g><mask></mask><g stroke-linecap="round"><g transform="translate(610.0528577729037 198.60325755547456) rotate(0 33.3979555816868 4.547473508864641e-13)"><path d="M0 0 C11.13 0, 55.66 0, 66.8 0 M0 0 C11.13 0, 55.66 0, 66.8 0" stroke="#000000" stroke-width="2" fill="none"></path></g></g><mask></mask><g stroke-linecap="round"><g transform="translate(610.0528577729037 213.57390642537212) rotate(0 33.3979555816868 4.547473508864641e-13)"><path d="M0 0 C11.13 0, 55.66 0, 66.8 0 M0 0 C11.13 0, 55.66 0, 66.8 0" stroke="#000000" stroke-width="2" fill="none"></path></g></g><mask></mask><g transform="translate(616.5061391827439 323.09742296769855) rotate(0 29.453125 11.5)"><text x="29.453125" y="0" font-family="Helvetica, Segoe UI Emoji" font-size="20px" fill="#000000" text-anchor="middle" style="white-space: pre;" direction="ltr" dominant-baseline="text-before-edge">Server</text></g><g stroke-linecap="round" transform="translate(10.008131117794619 22.965420610704314) rotate(0.005729577951308233 111.66665395100904 81.31676141628122)"><path d="M0 0 L223.33 0 L223.33 162.63 L0 162.63" stroke="none" stroke-width="0" fill="#ffffff"></path><path d="M0 0 C61.76 0, 123.53 0, 223.33 0 M0 0 C76.6 0, 153.2 0, 223.33 0 M223.33 0 C223.33 40.3, 223.33 80.59, 223.33 162.63 M223.33 0 C223.33 32.7, 223.33 65.4, 223.33 162.63 M223.33 162.63 C138.53 162.63, 53.74 162.63, 0 162.63 M223.33 162.63 C138.3 162.63, 53.27 162.63, 0 162.63 M0 162.63 C0 117.21, 0 71.8, 0 0 M0 162.63 C0 106.88, 0 51.12, 0 0" stroke="#000000" stroke-width="2" fill="none"></path></g><g stroke-linecap="round" transform="translate(18.452517917924524 29.932257082770775) rotate(0 3.6666641235351562 3.8333282470703125)"><path d="M7.33 3.83 C7.33 4.06, 7.31 4.28, 7.28 4.5 C7.24 4.72, 7.18 4.94, 7.11 5.14 C7.04 5.35, 6.95 5.56, 6.84 5.75 C6.74 5.94, 6.61 6.13, 6.48 6.3 C6.34 6.47, 6.19 6.63, 6.02 6.77 C5.86 6.91, 5.68 7.04, 5.5 7.15 C5.32 7.26, 5.12 7.36, 4.92 7.44 C4.72 7.51, 4.51 7.57, 4.3 7.61 C4.09 7.65, 3.88 7.67, 3.67 7.67 C3.45 7.67, 3.24 7.65, 3.03 7.61 C2.82 7.57, 2.61 7.51, 2.41 7.44 C2.21 7.36, 2.02 7.26, 1.83 7.15 C1.65 7.04, 1.47 6.91, 1.31 6.77 C1.15 6.63, 0.99 6.47, 0.86 6.3 C0.72 6.13, 0.6 5.94, 0.49 5.75 C0.39 5.56, 0.29 5.35, 0.22 5.14 C0.15 4.94, 0.09 4.72, 0.06 4.5 C0.02 4.28, 0 4.06, 0 3.83 C0 3.61, 0.02 3.39, 0.06 3.17 C0.09 2.95, 0.15 2.73, 0.22 2.52 C0.29 2.31, 0.39 2.11, 0.49 1.92 C0.6 1.72, 0.72 1.54, 0.86 1.37 C0.99 1.2, 1.15 1.04, 1.31 0.9 C1.47 0.75, 1.65 0.62, 1.83 0.51 C2.02 0.4, 2.21 0.31, 2.41 0.23 C2.61 0.16, 2.82 0.1, 3.03 0.06 C3.24 0.02, 3.45 0, 3.67 0 C3.88 0, 4.09 0.02, 4.3 0.06 C4.51 0.1, 4.72 0.16, 4.92 0.23 C5.12 0.31, 5.32 0.4, 5.5 0.51 C5.68 0.62, 5.86 0.75, 6.02 0.9 C6.19 1.04, 6.34 1.2, 6.48 1.37 C6.61 1.54, 6.74 1.72, 6.84 1.92 C6.95 2.11, 7.04 2.31, 7.11 2.52 C7.18 2.73, 7.24 2.95, 7.28 3.17 C7.31 3.39, 7.32 3.72, 7.33 3.83 C7.34 3.94, 7.34 3.72, 7.33 3.83" stroke="none" stroke-width="0" fill="#fa5252"></path><path d="M7.33 3.83 C7.33 4.06, 7.31 4.28, 7.28 4.5 C7.24 4.72, 7.18 4.94, 7.11 5.14 C7.04 5.35, 6.95 5.56, 6.84 5.75 C6.74 5.94, 6.61 6.13, 6.48 6.3 C6.34 6.47, 6.19 6.63, 6.02 6.77 C5.86 6.91, 5.68 7.04, 5.5 7.15 C5.32 7.26, 5.12 7.36, 4.92 7.44 C4.72 7.51, 4.51 7.57, 4.3 7.61 C4.09 7.65, 3.88 7.67, 3.67 7.67 C3.45 7.67, 3.24 7.65, 3.03 7.61 C2.82 7.57, 2.61 7.51, 2.41 7.44 C2.21 7.36, 2.02 7.26, 1.83 7.15 C1.65 7.04, 1.47 6.91, 1.31 6.77 C1.15 6.63, 0.99 6.47, 0.86 6.3 C0.72 6.13, 0.6 5.94, 0.49 5.75 C0.39 5.56, 0.29 5.35, 0.22 5.14 C0.15 4.94, 0.09 4.72, 0.06 4.5 C0.02 4.28, 0 4.06, 0 3.83 C0 3.61, 0.02 3.39, 0.06 3.17 C0.09 2.95, 0.15 2.73, 0.22 2.52 C0.29 2.31, 0.39 2.11, 0.49 1.92 C0.6 1.72, 0.72 1.54, 0.86 1.37 C0.99 1.2, 1.15 1.04, 1.31 0.9 C1.47 0.75, 1.65 0.62, 1.83 0.51 C2.02 0.4, 2.21 0.31, 2.41 0.23 C2.61 0.16, 2.82 0.1, 3.03 0.06 C3.24 0.02, 3.45 0, 3.67 0 C3.88 0, 4.09 0.02, 4.3 0.06 C4.51 0.1, 4.72 0.16, 4.92 0.23 C5.12 0.31, 5.32 0.4, 5.5 0.51 C5.68 0.62, 5.86 0.75, 6.02 0.9 C6.19 1.04, 6.34 1.2, 6.48 1.37 C6.61 1.54, 6.74 1.72, 6.84 1.92 C6.95 2.11, 7.04 2.31, 7.11 2.52 C7.18 2.73, 7.24 2.95, 7.28 3.17 C7.31 3.39, 7.32 3.72, 7.33 3.83 C7.34 3.94, 7.34 3.72, 7.33 3.83" stroke="#000000" stroke-width="2" fill="none"></path></g><g stroke-linecap="round" transform="translate(41.45251028852999 29.932257082770775) rotate(0.005729577951308233 3.6666641235351562 3.8333282470703125)"><path d="M7.33 3.83 C7.33 4.06, 7.31 4.28, 7.28 4.5 C7.24 4.72, 7.18 4.94, 7.11 5.14 C7.04 5.35, 6.95 5.56, 6.84 5.75 C6.74 5.94, 6.61 6.13, 6.48 6.3 C6.34 6.47, 6.19 6.63, 6.02 6.77 C5.86 6.91, 5.68 7.04, 5.5 7.15 C5.32 7.26, 5.12 7.36, 4.92 7.44 C4.72 7.51, 4.51 7.57, 4.3 7.61 C4.09 7.65, 3.88 7.67, 3.67 7.67 C3.45 7.67, 3.24 7.65, 3.03 7.61 C2.82 7.57, 2.61 7.51, 2.41 7.44 C2.21 7.36, 2.02 7.26, 1.83 7.15 C1.65 7.04, 1.47 6.91, 1.31 6.77 C1.15 6.63, 0.99 6.47, 0.86 6.3 C0.72 6.13, 0.6 5.94, 0.49 5.75 C0.39 5.56, 0.29 5.35, 0.22 5.14 C0.15 4.94, 0.09 4.72, 0.06 4.5 C0.02 4.28, 0 4.06, 0 3.83 C0 3.61, 0.02 3.39, 0.06 3.17 C0.09 2.95, 0.15 2.73, 0.22 2.52 C0.29 2.31, 0.39 2.11, 0.49 1.92 C0.6 1.72, 0.72 1.54, 0.86 1.37 C0.99 1.2, 1.15 1.04, 1.31 0.9 C1.47 0.75, 1.65 0.62, 1.83 0.51 C2.02 0.4, 2.21 0.31, 2.41 0.23 C2.61 0.16, 2.82 0.1, 3.03 0.06 C3.24 0.02, 3.45 0, 3.67 0 C3.88 0, 4.09 0.02, 4.3 0.06 C4.51 0.1, 4.72 0.16, 4.92 0.23 C5.12 0.31, 5.32 0.4, 5.5 0.51 C5.68 0.62, 5.86 0.75, 6.02 0.9 C6.19 1.04, 6.34 1.2, 6.48 1.37 C6.61 1.54, 6.74 1.72, 6.84 1.92 C6.95 2.11, 7.04 2.31, 7.11 2.52 C7.18 2.73, 7.24 2.95, 7.28 3.17 C7.31 3.39, 7.32 3.72, 7.33 3.83 C7.34 3.94, 7.34 3.72, 7.33 3.83" stroke="none" stroke-width="0" fill="#40c057"></path><path d="M7.33 3.83 C7.33 4.06, 7.31 4.28, 7.28 4.5 C7.24 4.72, 7.18 4.94, 7.11 5.14 C7.04 5.35, 6.95 5.56, 6.84 5.75 C6.74 5.94, 6.61 6.13, 6.48 6.3 C6.34 6.47, 6.19 6.63, 6.02 6.77 C5.86 6.91, 5.68 7.04, 5.5 7.15 C5.32 7.26, 5.12 7.36, 4.92 7.44 C4.72 7.51, 4.51 7.57, 4.3 7.61 C4.09 7.65, 3.88 7.67, 3.67 7.67 C3.45 7.67, 3.24 7.65, 3.03 7.61 C2.82 7.57, 2.61 7.51, 2.41 7.44 C2.21 7.36, 2.02 7.26, 1.83 7.15 C1.65 7.04, 1.47 6.91, 1.31 6.77 C1.15 6.63, 0.99 6.47, 0.86 6.3 C0.72 6.13, 0.6 5.94, 0.49 5.75 C0.39 5.56, 0.29 5.35, 0.22 5.14 C0.15 4.94, 0.09 4.72, 0.06 4.5 C0.02 4.28, 0 4.06, 0 3.83 C0 3.61, 0.02 3.39, 0.06 3.17 C0.09 2.95, 0.15 2.73, 0.22 2.52 C0.29 2.31, 0.39 2.11, 0.49 1.92 C0.6 1.72, 0.72 1.54, 0.86 1.37 C0.99 1.2, 1.15 1.04, 1.31 0.9 C1.47 0.75, 1.65 0.62, 1.83 0.51 C2.02 0.4, 2.21 0.31, 2.41 0.23 C2.61 0.16, 2.82 0.1, 3.03 0.06 C3.24 0.02, 3.45 0, 3.67 0 C3.88 0, 4.09 0.02, 4.3 0.06 C4.51 0.1, 4.72 0.16, 4.92 0.23 C5.12 0.31, 5.32 0.4, 5.5 0.51 C5.68 0.62, 5.86 0.75, 6.02 0.9 C6.19 1.04, 6.34 1.2, 6.48 1.37 C6.61 1.54, 6.74 1.72, 6.84 1.92 C6.95 2.11, 7.04 2.31, 7.11 2.52 C7.18 2.73, 7.24 2.95, 7.28 3.17 C7.31 3.39, 7.32 3.72, 7.33 3.83 C7.34 3.94, 7.34 3.72, 7.33 3.83" stroke="#000000" stroke-width="2" fill="none"></path></g><g stroke-linecap="round" transform="translate(29.785838535600305 29.932257082770775) rotate(0 3.6666641235351562 3.8333282470703125)"><path d="M7.33 3.83 C7.33 4.06, 7.31 4.28, 7.28 4.5 C7.24 4.72, 7.18 4.94, 7.11 5.14 C7.04 5.35, 6.95 5.56, 6.84 5.75 C6.74 5.94, 6.61 6.13, 6.48 6.3 C6.34 6.47, 6.19 6.63, 6.02 6.77 C5.86 6.91, 5.68 7.04, 5.5 7.15 C5.32 7.26, 5.12 7.36, 4.92 7.44 C4.72 7.51, 4.51 7.57, 4.3 7.61 C4.09 7.65, 3.88 7.67, 3.67 7.67 C3.45 7.67, 3.24 7.65, 3.03 7.61 C2.82 7.57, 2.61 7.51, 2.41 7.44 C2.21 7.36, 2.02 7.26, 1.83 7.15 C1.65 7.04, 1.47 6.91, 1.31 6.77 C1.15 6.63, 0.99 6.47, 0.86 6.3 C0.72 6.13, 0.6 5.94, 0.49 5.75 C0.39 5.56, 0.29 5.35, 0.22 5.14 C0.15 4.94, 0.09 4.72, 0.06 4.5 C0.02 4.28, 0 4.06, 0 3.83 C0 3.61, 0.02 3.39, 0.06 3.17 C0.09 2.95, 0.15 2.73, 0.22 2.52 C0.29 2.31, 0.39 2.11, 0.49 1.92 C0.6 1.72, 0.72 1.54, 0.86 1.37 C0.99 1.2, 1.15 1.04, 1.31 0.9 C1.47 0.75, 1.65 0.62, 1.83 0.51 C2.02 0.4, 2.21 0.31, 2.41 0.23 C2.61 0.16, 2.82 0.1, 3.03 0.06 C3.24 0.02, 3.45 0, 3.67 0 C3.88 0, 4.09 0.02, 4.3 0.06 C4.51 0.1, 4.72 0.16, 4.92 0.23 C5.12 0.31, 5.32 0.4, 5.5 0.51 C5.68 0.62, 5.86 0.75, 6.02 0.9 C6.19 1.04, 6.34 1.2, 6.48 1.37 C6.61 1.54, 6.74 1.72, 6.84 1.92 C6.95 2.11, 7.04 2.31, 7.11 2.52 C7.18 2.73, 7.24 2.95, 7.28 3.17 C7.31 3.39, 7.32 3.72, 7.33 3.83 C7.34 3.94, 7.34 3.72, 7.33 3.83" stroke="none" stroke-width="0" fill="#fab005"></path><path d="M7.33 3.83 C7.33 4.06, 7.31 4.28, 7.28 4.5 C7.24 4.72, 7.18 4.94, 7.11 5.14 C7.04 5.35, 6.95 5.56, 6.84 5.75 C6.74 5.94, 6.61 6.13, 6.48 6.3 C6.34 6.47, 6.19 6.63, 6.02 6.77 C5.86 6.91, 5.68 7.04, 5.5 7.15 C5.32 7.26, 5.12 7.36, 4.92 7.44 C4.72 7.51, 4.51 7.57, 4.3 7.61 C4.09 7.65, 3.88 7.67, 3.67 7.67 C3.45 7.67, 3.24 7.65, 3.03 7.61 C2.82 7.57, 2.61 7.51, 2.41 7.44 C2.21 7.36, 2.02 7.26, 1.83 7.15 C1.65 7.04, 1.47 6.91, 1.31 6.77 C1.15 6.63, 0.99 6.47, 0.86 6.3 C0.72 6.13, 0.6 5.94, 0.49 5.75 C0.39 5.56, 0.29 5.35, 0.22 5.14 C0.15 4.94, 0.09 4.72, 0.06 4.5 C0.02 4.28, 0 4.06, 0 3.83 C0 3.61, 0.02 3.39, 0.06 3.17 C0.09 2.95, 0.15 2.73, 0.22 2.52 C0.29 2.31, 0.39 2.11, 0.49 1.92 C0.6 1.72, 0.72 1.54, 0.86 1.37 C0.99 1.2, 1.15 1.04, 1.31 0.9 C1.47 0.75, 1.65 0.62, 1.83 0.51 C2.02 0.4, 2.21 0.31, 2.41 0.23 C2.61 0.16, 2.82 0.1, 3.03 0.06 C3.24 0.02, 3.45 0, 3.67 0 C3.88 0, 4.09 0.02, 4.3 0.06 C4.51 0.1, 4.72 0.16, 4.92 0.23 C5.12 0.31, 5.32 0.4, 5.5 0.51 C5.68 0.62, 5.86 0.75, 6.02 0.9 C6.19 1.04, 6.34 1.2, 6.48 1.37 C6.61 1.54, 6.74 1.72, 6.84 1.92 C6.95 2.11, 7.04 2.31, 7.11 2.52 C7.18 2.73, 7.24 2.95, 7.28 3.17 C7.31 3.39, 7.32 3.72, 7.33 3.83 C7.34 3.94, 7.34 3.72, 7.33 3.83" stroke="#000000" stroke-width="2" fill="none"></path></g><g stroke-linecap="round"><g transform="translate(10.207026436402884 44.78435733831702) rotate(0 111.56720629170468 0)"><path d="M0 0 C67.05 0, 134.11 0, 223.13 0 M0 0 C62.95 0, 125.9 0, 223.13 0" stroke="#000000" stroke-width="2" fill="none"></path></g></g><mask></mask><g stroke-linecap="round" transform="translate(85.22535773668187 76.10912849451142) rotate(0.005729577951308233 36.44942733212201 36.42551194832231)"><path d="M72.9 36.43 C72.9 38.32, 72.75 40.25, 72.45 42.12 C72.15 44, 71.7 45.88, 71.11 47.68 C70.53 49.49, 69.79 51.27, 68.93 52.96 C68.06 54.65, 67.05 56.3, 65.94 57.84 C64.82 59.37, 63.57 60.84, 62.22 62.18 C60.88 63.53, 59.41 64.78, 57.87 65.89 C56.34 67.01, 54.69 68.02, 53 68.88 C51.3 69.74, 49.52 70.48, 47.71 71.07 C45.91 71.66, 44.03 72.11, 42.15 72.4 C40.27 72.7, 38.35 72.85, 36.45 72.85 C34.55 72.85, 32.62 72.7, 30.75 72.4 C28.87 72.11, 26.99 71.66, 25.19 71.07 C23.38 70.48, 21.6 69.74, 19.9 68.88 C18.21 68.02, 16.56 67.01, 15.02 65.89 C13.49 64.78, 12.02 63.53, 10.68 62.18 C9.33 60.84, 8.08 59.37, 6.96 57.84 C5.84 56.3, 4.84 54.65, 3.97 52.96 C3.11 51.27, 2.37 49.49, 1.78 47.68 C1.2 45.88, 0.75 44, 0.45 42.12 C0.15 40.25, 0 38.32, 0 36.43 C0 34.53, 0.15 32.6, 0.45 30.73 C0.75 28.85, 1.2 26.98, 1.78 25.17 C2.37 23.36, 3.11 21.58, 3.97 19.89 C4.84 18.2, 5.84 16.55, 6.96 15.02 C8.08 13.48, 9.33 12.01, 10.68 10.67 C12.02 9.33, 13.49 8.07, 15.02 6.96 C16.56 5.84, 18.21 4.83, 19.9 3.97 C21.6 3.11, 23.38 2.37, 25.19 1.78 C26.99 1.2, 28.87 0.75, 30.75 0.45 C32.62 0.15, 34.55 0, 36.45 0 C38.35 0, 40.27 0.15, 42.15 0.45 C44.03 0.75, 45.91 1.2, 47.71 1.78 C49.52 2.37, 51.3 3.11, 53 3.97 C54.69 4.83, 56.34 5.84, 57.87 6.96 C59.41 8.07, 60.88 9.33, 62.22 10.67 C63.57 12.01, 64.82 13.48, 65.94 15.02 C67.05 16.55, 68.06 18.2, 68.93 19.89 C69.79 21.58, 70.53 23.36, 71.11 25.17 C71.7 26.98, 72.15 28.85, 72.45 30.73 C72.75 32.6, 72.82 35.48, 72.9 36.43 C72.97 37.38, 72.97 35.48, 72.9 36.43" stroke="#000000" stroke-width="2" fill="none"></path></g><g stroke-linecap="round" transform="translate(114.5683834457559 76.10912849451142) rotate(0.005729577951308233 7.0310648152765225 36.42551194832231)"><path d="M14.06 36.43 C14.06 38.53, 14.03 40.67, 13.96 42.75 C13.88 44.83, 13.78 46.9, 13.64 48.88 C13.5 50.87, 13.32 52.81, 13.12 54.64 C12.92 56.46, 12.68 58.22, 12.42 59.84 C12.16 61.45, 11.86 62.97, 11.55 64.33 C11.24 65.68, 10.9 66.92, 10.55 67.97 C10.19 69.03, 9.82 69.93, 9.44 70.65 C9.05 71.38, 8.65 71.93, 8.25 72.3 C7.85 72.66, 7.44 72.85, 7.03 72.85 C6.62 72.85, 6.21 72.66, 5.81 72.3 C5.41 71.93, 5.01 71.38, 4.63 70.65 C4.24 69.93, 3.87 69.03, 3.52 67.97 C3.16 66.92, 2.82 65.68, 2.51 64.33 C2.2 62.97, 1.91 61.45, 1.64 59.84 C1.38 58.22, 1.15 56.46, 0.94 54.64 C0.74 52.81, 0.56 50.87, 0.42 48.88 C0.28 46.9, 0.18 44.83, 0.11 42.75 C0.04 40.67, 0 38.53, 0 36.43 C0 34.32, 0.04 32.18, 0.11 30.1 C0.18 28.02, 0.28 25.95, 0.42 23.97 C0.56 21.99, 0.74 20.04, 0.94 18.21 C1.15 16.39, 1.38 14.63, 1.64 13.01 C1.91 11.4, 2.2 9.88, 2.51 8.52 C2.82 7.17, 3.16 5.93, 3.52 4.88 C3.87 3.83, 4.24 2.92, 4.63 2.2 C5.01 1.48, 5.41 0.92, 5.81 0.55 C6.21 0.19, 6.62 0, 7.03 0 C7.44 0, 7.85 0.19, 8.25 0.55 C8.65 0.92, 9.05 1.48, 9.44 2.2 C9.82 2.92, 10.19 3.83, 10.55 4.88 C10.9 5.93, 11.24 7.17, 11.55 8.52 C11.86 9.88, 12.16 11.4, 12.42 13.01 C12.68 14.63, 12.92 16.39, 13.12 18.21 C13.32 20.04, 13.5 21.99, 13.64 23.97 C13.78 25.95, 13.88 28.02, 13.96 30.1 C14.03 32.18, 14.04 35.37, 14.06 36.43 C14.08 37.48, 14.08 35.37, 14.06 36.43" stroke="#000000" stroke-width="2" fill="none"></path></g><g stroke-linecap="round" transform="translate(99.74073942611722 76.10858560862653) rotate(0.005729577951308233 21.858459585479068 36.42578344947333)"><path d="M43.72 36.43 C43.72 38.53, 43.6 40.67, 43.38 42.75 C43.17 44.83, 42.83 46.9, 42.4 48.88 C41.97 50.87, 41.42 52.81, 40.79 54.64 C40.16 56.46, 39.42 58.22, 38.6 59.84 C37.79 61.45, 36.88 62.97, 35.91 64.33 C34.94 65.68, 33.88 66.92, 32.79 67.97 C31.69 69.03, 30.52 69.93, 29.33 70.65 C28.15 71.38, 26.9 71.93, 25.65 72.3 C24.41 72.66, 23.12 72.85, 21.86 72.85 C20.59 72.85, 19.31 72.66, 18.06 72.3 C16.82 71.93, 15.57 71.38, 14.38 70.65 C13.19 69.93, 12.02 69.03, 10.93 67.97 C9.83 66.92, 8.78 65.68, 7.81 64.33 C6.84 62.97, 5.93 61.45, 5.11 59.84 C4.3 58.22, 3.56 56.46, 2.93 54.64 C2.3 52.81, 1.75 50.87, 1.32 48.88 C0.89 46.9, 0.55 44.83, 0.33 42.75 C0.11 40.67, 0 38.53, 0 36.43 C0 34.32, 0.11 32.18, 0.33 30.1 C0.55 28.02, 0.89 25.95, 1.32 23.97 C1.75 21.99, 2.3 20.04, 2.93 18.21 C3.56 16.39, 4.3 14.63, 5.11 13.01 C5.93 11.4, 6.84 9.88, 7.81 8.52 C8.78 7.17, 9.83 5.93, 10.93 4.88 C12.02 3.83, 13.19 2.92, 14.38 2.2 C15.57 1.48, 16.82 0.92, 18.06 0.55 C19.31 0.19, 20.59 0, 21.86 0 C23.12 0, 24.41 0.19, 25.65 0.55 C26.9 0.92, 28.15 1.48, 29.33 2.2 C30.52 2.92, 31.69 3.83, 32.79 4.88 C33.88 5.93, 34.94 7.17, 35.91 8.52 C36.88 9.88, 37.79 11.4, 38.6 13.01 C39.42 14.63, 40.16 16.39, 40.79 18.21 C41.42 20.04, 41.97 21.99, 42.4 23.97 C42.83 25.95, 43.17 28.02, 43.38 30.1 C43.6 32.18, 43.66 35.37, 43.72 36.43 C43.77 37.48, 43.77 35.37, 43.72 36.43" stroke="#000000" stroke-width="2" fill="none"></path></g><g stroke-linecap="round"><g transform="translate(85.22535791892915 112.53099550010484) rotate(0 36.44942714987451 0.0036449427279876545)"><path d="M0 0 C22.87 0, 45.75 0, 72.9 0.01 M0 0 C22.05 0, 44.1 0, 72.9 0.01" stroke="#000000" stroke-width="2" fill="none"></path></g></g><mask></mask><g stroke-linecap="round"><g transform="translate(121.59555643325712 148.96015232544505) rotate(0 0.00012463829330044973 -5.8208115660818294e-8)"><path d="M0 0 C0 0, 0 0, 0 0 M0 0 C0 0, 0 0, 0 0" stroke="#000000" stroke-width="2" fill="none"></path></g></g><mask></mask><g stroke-linecap="round"><g transform="translate(94.83339586993588 137.12863803346318) rotate(0 26.811537403805914 -5.542553110366498)"><path d="M0 0 C1.97 -1.61, 3.94 -3.21, 7.84 -6.4 M0 0 C2.8 -2.29, 5.6 -4.57, 7.84 -6.4 M7.84 -6.4 C12.63 -8.2, 17.42 -10.01, 20.28 -11.09 M7.84 -6.4 C11.57 -7.81, 15.31 -9.21, 20.28 -11.09 M20.28 -11.09 C23.87 -11.09, 27.46 -11.09, 33.26 -11.09 M20.28 -11.09 C23.48 -11.09, 26.68 -11.09, 33.26 -11.09 M33.26 -11.09 C37.26 -9.59, 41.27 -8.1, 45.69 -6.46 M33.26 -11.09 C36.06 -10.04, 38.86 -9, 45.69 -6.46 M45.69 -6.46 C47.85 -4.7, 50 -2.95, 53.62 0 M45.69 -6.46 C47.7 -4.83, 49.7 -3.19, 53.62 0" stroke="#000000" stroke-width="2" fill="none"></path></g></g><mask></mask><g stroke-linecap="round"><g transform="translate(94.85020384940344 87.89973728197128) rotate(0 26.820101130654848 5.43140924650379)"><path d="M0 0 C2.7 2.15, 5.41 4.3, 7.88 6.27 M0 0 C1.95 1.55, 3.91 3.11, 7.88 6.27 M7.88 6.27 C10.37 7.2, 12.85 8.13, 20.24 10.88 M7.88 6.27 C12.58 8.02, 17.27 9.77, 20.24 10.88 M20.24 10.88 C25.21 10.87, 30.18 10.86, 33.29 10.86 M20.24 10.88 C23.89 10.88, 27.53 10.87, 33.29 10.86 M33.29 10.86 C37.53 9.3, 41.76 7.73, 45.65 6.3 M33.29 10.86 C37.26 9.39, 41.22 7.93, 45.65 6.3 M45.65 6.3 C48.24 4.25, 50.83 2.2, 53.64 -0.02 M45.65 6.3 C47.72 4.66, 49.8 3.02, 53.64 -0.02" stroke="#000000" stroke-width="2" fill="none"></path></g></g><mask></mask><g transform="translate(83.89136990459974 195.0754359485054) rotate(0 36.6748046875 11.5)"><text x="36.6748046875" y="0" font-family="Helvetica, Segoe UI Emoji" font-size="20px" fill="#000000" text-anchor="middle" style="white-space: pre;" direction="ltr" dominant-baseline="text-before-edge">Browser</text></g><g stroke-linecap="round" transform="translate(10.264935080661871 273.8077325987997) rotate(0.005729577951308233 111.66665395100904 81.31676141628122)"><path d="M0 0 L223.33 0 L223.33 162.63 L0 162.63" stroke="none" stroke-width="0" fill="#ffffff"></path><path d="M0 0 C72.85 0, 145.71 0, 223.33 0 M0 0 C72.74 0, 145.48 0, 223.33 0 M223.33 0 C223.33 43.74, 223.33 87.49, 223.33 162.63 M223.33 0 C223.33 54.66, 223.33 109.33, 223.33 162.63 M223.33 162.63 C173.49 162.63, 123.65 162.63, 0 162.63 M223.33 162.63 C173.08 162.63, 122.83 162.63, 0 162.63 M0 162.63 C0 98.2, 0 33.77, 0 0 M0 162.63 C0 102.2, 0 41.76, 0 0" stroke="#000000" stroke-width="2" fill="none"></path></g><g stroke-linecap="round" transform="translate(18.709321880791776 280.7745690708671) rotate(0 3.6666641235351562 3.8333282470703125)"><path d="M7.33 3.83 C7.33 4.06, 7.31 4.28, 7.28 4.5 C7.24 4.72, 7.18 4.94, 7.11 5.14 C7.04 5.35, 6.95 5.56, 6.84 5.75 C6.74 5.94, 6.61 6.13, 6.48 6.3 C6.34 6.47, 6.19 6.63, 6.02 6.77 C5.86 6.91, 5.68 7.04, 5.5 7.15 C5.32 7.26, 5.12 7.36, 4.92 7.44 C4.72 7.51, 4.51 7.57, 4.3 7.61 C4.09 7.65, 3.88 7.67, 3.67 7.67 C3.45 7.67, 3.24 7.65, 3.03 7.61 C2.82 7.57, 2.61 7.51, 2.41 7.44 C2.21 7.36, 2.02 7.26, 1.83 7.15 C1.65 7.04, 1.47 6.91, 1.31 6.77 C1.15 6.63, 0.99 6.47, 0.86 6.3 C0.72 6.13, 0.6 5.94, 0.49 5.75 C0.39 5.56, 0.29 5.35, 0.22 5.14 C0.15 4.94, 0.09 4.72, 0.06 4.5 C0.02 4.28, 0 4.06, 0 3.83 C0 3.61, 0.02 3.39, 0.06 3.17 C0.09 2.95, 0.15 2.73, 0.22 2.52 C0.29 2.31, 0.39 2.11, 0.49 1.92 C0.6 1.72, 0.72 1.54, 0.86 1.37 C0.99 1.2, 1.15 1.04, 1.31 0.9 C1.47 0.75, 1.65 0.62, 1.83 0.51 C2.02 0.4, 2.21 0.31, 2.41 0.23 C2.61 0.16, 2.82 0.1, 3.03 0.06 C3.24 0.02, 3.45 0, 3.67 0 C3.88 0, 4.09 0.02, 4.3 0.06 C4.51 0.1, 4.72 0.16, 4.92 0.23 C5.12 0.31, 5.32 0.4, 5.5 0.51 C5.68 0.62, 5.86 0.75, 6.02 0.9 C6.19 1.04, 6.34 1.2, 6.48 1.37 C6.61 1.54, 6.74 1.72, 6.84 1.92 C6.95 2.11, 7.04 2.31, 7.11 2.52 C7.18 2.73, 7.24 2.95, 7.28 3.17 C7.31 3.39, 7.32 3.72, 7.33 3.83 C7.34 3.94, 7.34 3.72, 7.33 3.83" stroke="none" stroke-width="0" fill="#fa5252"></path><path d="M7.33 3.83 C7.33 4.06, 7.31 4.28, 7.28 4.5 C7.24 4.72, 7.18 4.94, 7.11 5.14 C7.04 5.35, 6.95 5.56, 6.84 5.75 C6.74 5.94, 6.61 6.13, 6.48 6.3 C6.34 6.47, 6.19 6.63, 6.02 6.77 C5.86 6.91, 5.68 7.04, 5.5 7.15 C5.32 7.26, 5.12 7.36, 4.92 7.44 C4.72 7.51, 4.51 7.57, 4.3 7.61 C4.09 7.65, 3.88 7.67, 3.67 7.67 C3.45 7.67, 3.24 7.65, 3.03 7.61 C2.82 7.57, 2.61 7.51, 2.41 7.44 C2.21 7.36, 2.02 7.26, 1.83 7.15 C1.65 7.04, 1.47 6.91, 1.31 6.77 C1.15 6.63, 0.99 6.47, 0.86 6.3 C0.72 6.13, 0.6 5.94, 0.49 5.75 C0.39 5.56, 0.29 5.35, 0.22 5.14 C0.15 4.94, 0.09 4.72, 0.06 4.5 C0.02 4.28, 0 4.06, 0 3.83 C0 3.61, 0.02 3.39, 0.06 3.17 C0.09 2.95, 0.15 2.73, 0.22 2.52 C0.29 2.31, 0.39 2.11, 0.49 1.92 C0.6 1.72, 0.72 1.54, 0.86 1.37 C0.99 1.2, 1.15 1.04, 1.31 0.9 C1.47 0.75, 1.65 0.62, 1.83 0.51 C2.02 0.4, 2.21 0.31, 2.41 0.23 C2.61 0.16, 2.82 0.1, 3.03 0.06 C3.24 0.02, 3.45 0, 3.67 0 C3.88 0, 4.09 0.02, 4.3 0.06 C4.51 0.1, 4.72 0.16, 4.92 0.23 C5.12 0.31, 5.32 0.4, 5.5 0.51 C5.68 0.62, 5.86 0.75, 6.02 0.9 C6.19 1.04, 6.34 1.2, 6.48 1.37 C6.61 1.54, 6.74 1.72, 6.84 1.92 C6.95 2.11, 7.04 2.31, 7.11 2.52 C7.18 2.73, 7.24 2.95, 7.28 3.17 C7.31 3.39, 7.32 3.72, 7.33 3.83 C7.34 3.94, 7.34 3.72, 7.33 3.83" stroke="#000000" stroke-width="2" fill="none"></path></g><g stroke-linecap="round" transform="translate(41.709314251397245 280.7745690708671) rotate(0.005729577951308233 3.6666641235351562 3.8333282470703125)"><path d="M7.33 3.83 C7.33 4.06, 7.31 4.28, 7.28 4.5 C7.24 4.72, 7.18 4.94, 7.11 5.14 C7.04 5.35, 6.95 5.56, 6.84 5.75 C6.74 5.94, 6.61 6.13, 6.48 6.3 C6.34 6.47, 6.19 6.63, 6.02 6.77 C5.86 6.91, 5.68 7.04, 5.5 7.15 C5.32 7.26, 5.12 7.36, 4.92 7.44 C4.72 7.51, 4.51 7.57, 4.3 7.61 C4.09 7.65, 3.88 7.67, 3.67 7.67 C3.45 7.67, 3.24 7.65, 3.03 7.61 C2.82 7.57, 2.61 7.51, 2.41 7.44 C2.21 7.36, 2.02 7.26, 1.83 7.15 C1.65 7.04, 1.47 6.91, 1.31 6.77 C1.15 6.63, 0.99 6.47, 0.86 6.3 C0.72 6.13, 0.6 5.94, 0.49 5.75 C0.39 5.56, 0.29 5.35, 0.22 5.14 C0.15 4.94, 0.09 4.72, 0.06 4.5 C0.02 4.28, 0 4.06, 0 3.83 C0 3.61, 0.02 3.39, 0.06 3.17 C0.09 2.95, 0.15 2.73, 0.22 2.52 C0.29 2.31, 0.39 2.11, 0.49 1.92 C0.6 1.72, 0.72 1.54, 0.86 1.37 C0.99 1.2, 1.15 1.04, 1.31 0.9 C1.47 0.75, 1.65 0.62, 1.83 0.51 C2.02 0.4, 2.21 0.31, 2.41 0.23 C2.61 0.16, 2.82 0.1, 3.03 0.06 C3.24 0.02, 3.45 0, 3.67 0 C3.88 0, 4.09 0.02, 4.3 0.06 C4.51 0.1, 4.72 0.16, 4.92 0.23 C5.12 0.31, 5.32 0.4, 5.5 0.51 C5.68 0.62, 5.86 0.75, 6.02 0.9 C6.19 1.04, 6.34 1.2, 6.48 1.37 C6.61 1.54, 6.74 1.72, 6.84 1.92 C6.95 2.11, 7.04 2.31, 7.11 2.52 C7.18 2.73, 7.24 2.95, 7.28 3.17 C7.31 3.39, 7.32 3.72, 7.33 3.83 C7.34 3.94, 7.34 3.72, 7.33 3.83" stroke="none" stroke-width="0" fill="#40c057"></path><path d="M7.33 3.83 C7.33 4.06, 7.31 4.28, 7.28 4.5 C7.24 4.72, 7.18 4.94, 7.11 5.14 C7.04 5.35, 6.95 5.56, 6.84 5.75 C6.74 5.94, 6.61 6.13, 6.48 6.3 C6.34 6.47, 6.19 6.63, 6.02 6.77 C5.86 6.91, 5.68 7.04, 5.5 7.15 C5.32 7.26, 5.12 7.36, 4.92 7.44 C4.72 7.51, 4.51 7.57, 4.3 7.61 C4.09 7.65, 3.88 7.67, 3.67 7.67 C3.45 7.67, 3.24 7.65, 3.03 7.61 C2.82 7.57, 2.61 7.51, 2.41 7.44 C2.21 7.36, 2.02 7.26, 1.83 7.15 C1.65 7.04, 1.47 6.91, 1.31 6.77 C1.15 6.63, 0.99 6.47, 0.86 6.3 C0.72 6.13, 0.6 5.94, 0.49 5.75 C0.39 5.56, 0.29 5.35, 0.22 5.14 C0.15 4.94, 0.09 4.72, 0.06 4.5 C0.02 4.28, 0 4.06, 0 3.83 C0 3.61, 0.02 3.39, 0.06 3.17 C0.09 2.95, 0.15 2.73, 0.22 2.52 C0.29 2.31, 0.39 2.11, 0.49 1.92 C0.6 1.72, 0.72 1.54, 0.86 1.37 C0.99 1.2, 1.15 1.04, 1.31 0.9 C1.47 0.75, 1.65 0.62, 1.83 0.51 C2.02 0.4, 2.21 0.31, 2.41 0.23 C2.61 0.16, 2.82 0.1, 3.03 0.06 C3.24 0.02, 3.45 0, 3.67 0 C3.88 0, 4.09 0.02, 4.3 0.06 C4.51 0.1, 4.72 0.16, 4.92 0.23 C5.12 0.31, 5.32 0.4, 5.5 0.51 C5.68 0.62, 5.86 0.75, 6.02 0.9 C6.19 1.04, 6.34 1.2, 6.48 1.37 C6.61 1.54, 6.74 1.72, 6.84 1.92 C6.95 2.11, 7.04 2.31, 7.11 2.52 C7.18 2.73, 7.24 2.95, 7.28 3.17 C7.31 3.39, 7.32 3.72, 7.33 3.83 C7.34 3.94, 7.34 3.72, 7.33 3.83" stroke="#000000" stroke-width="2" fill="none"></path></g><g stroke-linecap="round" transform="translate(30.042642498467558 280.7745690708671) rotate(0 3.6666641235351562 3.8333282470703125)"><path d="M7.33 3.83 C7.33 4.06, 7.31 4.28, 7.28 4.5 C7.24 4.72, 7.18 4.94, 7.11 5.14 C7.04 5.35, 6.95 5.56, 6.84 5.75 C6.74 5.94, 6.61 6.13, 6.48 6.3 C6.34 6.47, 6.19 6.63, 6.02 6.77 C5.86 6.91, 5.68 7.04, 5.5 7.15 C5.32 7.26, 5.12 7.36, 4.92 7.44 C4.72 7.51, 4.51 7.57, 4.3 7.61 C4.09 7.65, 3.88 7.67, 3.67 7.67 C3.45 7.67, 3.24 7.65, 3.03 7.61 C2.82 7.57, 2.61 7.51, 2.41 7.44 C2.21 7.36, 2.02 7.26, 1.83 7.15 C1.65 7.04, 1.47 6.91, 1.31 6.77 C1.15 6.63, 0.99 6.47, 0.86 6.3 C0.72 6.13, 0.6 5.94, 0.49 5.75 C0.39 5.56, 0.29 5.35, 0.22 5.14 C0.15 4.94, 0.09 4.72, 0.06 4.5 C0.02 4.28, 0 4.06, 0 3.83 C0 3.61, 0.02 3.39, 0.06 3.17 C0.09 2.95, 0.15 2.73, 0.22 2.52 C0.29 2.31, 0.39 2.11, 0.49 1.92 C0.6 1.72, 0.72 1.54, 0.86 1.37 C0.99 1.2, 1.15 1.04, 1.31 0.9 C1.47 0.75, 1.65 0.62, 1.83 0.51 C2.02 0.4, 2.21 0.31, 2.41 0.23 C2.61 0.16, 2.82 0.1, 3.03 0.06 C3.24 0.02, 3.45 0, 3.67 0 C3.88 0, 4.09 0.02, 4.3 0.06 C4.51 0.1, 4.72 0.16, 4.92 0.23 C5.12 0.31, 5.32 0.4, 5.5 0.51 C5.68 0.62, 5.86 0.75, 6.02 0.9 C6.19 1.04, 6.34 1.2, 6.48 1.37 C6.61 1.54, 6.74 1.72, 6.84 1.92 C6.95 2.11, 7.04 2.31, 7.11 2.52 C7.18 2.73, 7.24 2.95, 7.28 3.17 C7.31 3.39, 7.32 3.72, 7.33 3.83 C7.34 3.94, 7.34 3.72, 7.33 3.83" stroke="none" stroke-width="0" fill="#fab005"></path><path d="M7.33 3.83 C7.33 4.06, 7.31 4.28, 7.28 4.5 C7.24 4.72, 7.18 4.94, 7.11 5.14 C7.04 5.35, 6.95 5.56, 6.84 5.75 C6.74 5.94, 6.61 6.13, 6.48 6.3 C6.34 6.47, 6.19 6.63, 6.02 6.77 C5.86 6.91, 5.68 7.04, 5.5 7.15 C5.32 7.26, 5.12 7.36, 4.92 7.44 C4.72 7.51, 4.51 7.57, 4.3 7.61 C4.09 7.65, 3.88 7.67, 3.67 7.67 C3.45 7.67, 3.24 7.65, 3.03 7.61 C2.82 7.57, 2.61 7.51, 2.41 7.44 C2.21 7.36, 2.02 7.26, 1.83 7.15 C1.65 7.04, 1.47 6.91, 1.31 6.77 C1.15 6.63, 0.99 6.47, 0.86 6.3 C0.72 6.13, 0.6 5.94, 0.49 5.75 C0.39 5.56, 0.29 5.35, 0.22 5.14 C0.15 4.94, 0.09 4.72, 0.06 4.5 C0.02 4.28, 0 4.06, 0 3.83 C0 3.61, 0.02 3.39, 0.06 3.17 C0.09 2.95, 0.15 2.73, 0.22 2.52 C0.29 2.31, 0.39 2.11, 0.49 1.92 C0.6 1.72, 0.72 1.54, 0.86 1.37 C0.99 1.2, 1.15 1.04, 1.31 0.9 C1.47 0.75, 1.65 0.62, 1.83 0.51 C2.02 0.4, 2.21 0.31, 2.41 0.23 C2.61 0.16, 2.82 0.1, 3.03 0.06 C3.24 0.02, 3.45 0, 3.67 0 C3.88 0, 4.09 0.02, 4.3 0.06 C4.51 0.1, 4.72 0.16, 4.92 0.23 C5.12 0.31, 5.32 0.4, 5.5 0.51 C5.68 0.62, 5.86 0.75, 6.02 0.9 C6.19 1.04, 6.34 1.2, 6.48 1.37 C6.61 1.54, 6.74 1.72, 6.84 1.92 C6.95 2.11, 7.04 2.31, 7.11 2.52 C7.18 2.73, 7.24 2.95, 7.28 3.17 C7.31 3.39, 7.32 3.72, 7.33 3.83 C7.34 3.94, 7.34 3.72, 7.33 3.83" stroke="#000000" stroke-width="2" fill="none"></path></g><g stroke-linecap="round"><g transform="translate(10.463830399270137 295.6266693264133) rotate(0 111.56720629170468 0)"><path d="M0 0 C83.25 0, 166.5 0, 223.13 0 M0 0 C56.98 0, 113.97 0, 223.13 0" stroke="#000000" stroke-width="2" fill="none"></path></g></g><mask></mask><g stroke-linecap="round" transform="translate(85.48216169954912 326.9514404826077) rotate(0.005729577951308233 36.44942733212201 36.42551194832231)"><path d="M72.9 36.43 C72.9 38.32, 72.75 40.25, 72.45 42.12 C72.15 44, 71.7 45.88, 71.11 47.68 C70.53 49.49, 69.79 51.27, 68.93 52.96 C68.06 54.65, 67.05 56.3, 65.94 57.84 C64.82 59.37, 63.57 60.84, 62.22 62.18 C60.88 63.53, 59.41 64.78, 57.87 65.89 C56.34 67.01, 54.69 68.02, 53 68.88 C51.3 69.74, 49.52 70.48, 47.71 71.07 C45.91 71.66, 44.03 72.11, 42.15 72.4 C40.27 72.7, 38.35 72.85, 36.45 72.85 C34.55 72.85, 32.62 72.7, 30.75 72.4 C28.87 72.11, 26.99 71.66, 25.19 71.07 C23.38 70.48, 21.6 69.74, 19.9 68.88 C18.21 68.02, 16.56 67.01, 15.02 65.89 C13.49 64.78, 12.02 63.53, 10.68 62.18 C9.33 60.84, 8.08 59.37, 6.96 57.84 C5.84 56.3, 4.84 54.65, 3.97 52.96 C3.11 51.27, 2.37 49.49, 1.78 47.68 C1.2 45.88, 0.75 44, 0.45 42.12 C0.15 40.25, 0 38.32, 0 36.43 C0 34.53, 0.15 32.6, 0.45 30.73 C0.75 28.85, 1.2 26.98, 1.78 25.17 C2.37 23.36, 3.11 21.58, 3.97 19.89 C4.84 18.2, 5.84 16.55, 6.96 15.02 C8.08 13.48, 9.33 12.01, 10.68 10.67 C12.02 9.33, 13.49 8.07, 15.02 6.96 C16.56 5.84, 18.21 4.83, 19.9 3.97 C21.6 3.11, 23.38 2.37, 25.19 1.78 C26.99 1.2, 28.87 0.75, 30.75 0.45 C32.62 0.15, 34.55 0, 36.45 0 C38.35 0, 40.27 0.15, 42.15 0.45 C44.03 0.75, 45.91 1.2, 47.71 1.78 C49.52 2.37, 51.3 3.11, 53 3.97 C54.69 4.83, 56.34 5.84, 57.87 6.96 C59.41 8.07, 60.88 9.33, 62.22 10.67 C63.57 12.01, 64.82 13.48, 65.94 15.02 C67.05 16.55, 68.06 18.2, 68.93 19.89 C69.79 21.58, 70.53 23.36, 71.11 25.17 C71.7 26.98, 72.15 28.85, 72.45 30.73 C72.75 32.6, 72.82 35.48, 72.9 36.43 C72.97 37.38, 72.97 35.48, 72.9 36.43" stroke="#000000" stroke-width="2" fill="none"></path></g><g stroke-linecap="round" transform="translate(114.82518740862315 326.9514404826077) rotate(0.005729577951308233 7.0310648152765225 36.42551194832231)"><path d="M14.06 36.43 C14.06 38.53, 14.03 40.67, 13.96 42.75 C13.88 44.83, 13.78 46.9, 13.64 48.88 C13.5 50.87, 13.32 52.81, 13.12 54.64 C12.92 56.46, 12.68 58.22, 12.42 59.84 C12.16 61.45, 11.86 62.97, 11.55 64.33 C11.24 65.68, 10.9 66.92, 10.55 67.97 C10.19 69.03, 9.82 69.93, 9.44 70.65 C9.05 71.38, 8.65 71.93, 8.25 72.3 C7.85 72.66, 7.44 72.85, 7.03 72.85 C6.62 72.85, 6.21 72.66, 5.81 72.3 C5.41 71.93, 5.01 71.38, 4.63 70.65 C4.24 69.93, 3.87 69.03, 3.52 67.97 C3.16 66.92, 2.82 65.68, 2.51 64.33 C2.2 62.97, 1.91 61.45, 1.64 59.84 C1.38 58.22, 1.15 56.46, 0.94 54.64 C0.74 52.81, 0.56 50.87, 0.42 48.88 C0.28 46.9, 0.18 44.83, 0.11 42.75 C0.04 40.67, 0 38.53, 0 36.43 C0 34.32, 0.04 32.18, 0.11 30.1 C0.18 28.02, 0.28 25.95, 0.42 23.97 C0.56 21.99, 0.74 20.04, 0.94 18.21 C1.15 16.39, 1.38 14.63, 1.64 13.01 C1.91 11.4, 2.2 9.88, 2.51 8.52 C2.82 7.17, 3.16 5.93, 3.52 4.88 C3.87 3.83, 4.24 2.92, 4.63 2.2 C5.01 1.48, 5.41 0.92, 5.81 0.55 C6.21 0.19, 6.62 0, 7.03 0 C7.44 0, 7.85 0.19, 8.25 0.55 C8.65 0.92, 9.05 1.48, 9.44 2.2 C9.82 2.92, 10.19 3.83, 10.55 4.88 C10.9 5.93, 11.24 7.17, 11.55 8.52 C11.86 9.88, 12.16 11.4, 12.42 13.01 C12.68 14.63, 12.92 16.39, 13.12 18.21 C13.32 20.04, 13.5 21.99, 13.64 23.97 C13.78 25.95, 13.88 28.02, 13.96 30.1 C14.03 32.18, 14.04 35.37, 14.06 36.43 C14.08 37.48, 14.08 35.37, 14.06 36.43" stroke="#000000" stroke-width="2" fill="none"></path></g><g stroke-linecap="round" transform="translate(99.99754338898447 326.95089759672373) rotate(0.005729577951308233 21.858459585479068 36.42578344947333)"><path d="M43.72 36.43 C43.72 38.53, 43.6 40.67, 43.38 42.75 C43.17 44.83, 42.83 46.9, 42.4 48.88 C41.97 50.87, 41.42 52.81, 40.79 54.64 C40.16 56.46, 39.42 58.22, 38.6 59.84 C37.79 61.45, 36.88 62.97, 35.91 64.33 C34.94 65.68, 33.88 66.92, 32.79 67.97 C31.69 69.03, 30.52 69.93, 29.33 70.65 C28.15 71.38, 26.9 71.93, 25.65 72.3 C24.41 72.66, 23.12 72.85, 21.86 72.85 C20.59 72.85, 19.31 72.66, 18.06 72.3 C16.82 71.93, 15.57 71.38, 14.38 70.65 C13.19 69.93, 12.02 69.03, 10.93 67.97 C9.83 66.92, 8.78 65.68, 7.81 64.33 C6.84 62.97, 5.93 61.45, 5.11 59.84 C4.3 58.22, 3.56 56.46, 2.93 54.64 C2.3 52.81, 1.75 50.87, 1.32 48.88 C0.89 46.9, 0.55 44.83, 0.33 42.75 C0.11 40.67, 0 38.53, 0 36.43 C0 34.32, 0.11 32.18, 0.33 30.1 C0.55 28.02, 0.89 25.95, 1.32 23.97 C1.75 21.99, 2.3 20.04, 2.93 18.21 C3.56 16.39, 4.3 14.63, 5.11 13.01 C5.93 11.4, 6.84 9.88, 7.81 8.52 C8.78 7.17, 9.83 5.93, 10.93 4.88 C12.02 3.83, 13.19 2.92, 14.38 2.2 C15.57 1.48, 16.82 0.92, 18.06 0.55 C19.31 0.19, 20.59 0, 21.86 0 C23.12 0, 24.41 0.19, 25.65 0.55 C26.9 0.92, 28.15 1.48, 29.33 2.2 C30.52 2.92, 31.69 3.83, 32.79 4.88 C33.88 5.93, 34.94 7.17, 35.91 8.52 C36.88 9.88, 37.79 11.4, 38.6 13.01 C39.42 14.63, 40.16 16.39, 40.79 18.21 C41.42 20.04, 41.97 21.99, 42.4 23.97 C42.83 25.95, 43.17 28.02, 43.38 30.1 C43.6 32.18, 43.66 35.37, 43.72 36.43 C43.77 37.48, 43.77 35.37, 43.72 36.43" stroke="#000000" stroke-width="2" fill="none"></path></g><g stroke-linecap="round"><g transform="translate(85.4821618817964 363.37330748820204) rotate(0 36.44942714987451 0.0036449427279876545)"><path d="M0 0 C14.82 0, 29.64 0, 72.9 0.01 M0 0 C27.08 0, 54.16 0.01, 72.9 0.01" stroke="#000000" stroke-width="2" fill="none"></path></g></g><mask></mask><g stroke-linecap="round"><g transform="translate(121.85236039612437 399.80246431354135) rotate(0 0.00012463829330044973 -5.8208115660818294e-8)"><path d="M0 0 C0 0, 0 0, 0 0 M0 0 C0 0, 0 0, 0 0" stroke="#000000" stroke-width="2" fill="none"></path></g></g><mask></mask><g stroke-linecap="round"><g transform="translate(95.09019983280314 387.9709500215595) rotate(0 26.811537403805914 -5.542553110366498)"><path d="M0 0 C2.11 -1.72, 4.21 -3.44, 7.84 -6.4 M0 0 C2.41 -1.97, 4.82 -3.94, 7.84 -6.4 M7.84 -6.4 C12.5 -8.16, 17.17 -9.91, 20.28 -11.09 M7.84 -6.4 C10.68 -7.47, 13.53 -8.54, 20.28 -11.09 M20.28 -11.09 C23.79 -11.09, 27.31 -11.09, 33.26 -11.09 M20.28 -11.09 C24.31 -11.09, 28.34 -11.09, 33.26 -11.09 M33.26 -11.09 C36.86 -9.74, 40.47 -8.4, 45.69 -6.46 M33.26 -11.09 C37.76 -9.41, 42.27 -7.73, 45.69 -6.46 M45.69 -6.46 C48.73 -3.99, 51.77 -1.51, 53.62 0 M45.69 -6.46 C48.23 -4.39, 50.77 -2.32, 53.62 0" stroke="#000000" stroke-width="2" fill="none"></path></g></g><mask></mask><g stroke-linecap="round"><g transform="translate(95.1070078122707 338.7420492700676) rotate(0 26.820101130654848 5.43140924650379)"><path d="M0 0 C2.57 2.04, 5.14 4.08, 7.88 6.27 M0 0 C2.12 1.69, 4.24 3.37, 7.88 6.27 M7.88 6.27 C12.04 7.82, 16.19 9.37, 20.24 10.88 M7.88 6.27 C10.64 7.3, 13.4 8.33, 20.24 10.88 M20.24 10.88 C23.18 10.88, 26.11 10.87, 33.29 10.86 M20.24 10.88 C25.41 10.87, 30.58 10.86, 33.29 10.86 M33.29 10.86 C37.88 9.16, 42.47 7.47, 45.65 6.3 M33.29 10.86 C36.07 9.83, 38.86 8.8, 45.65 6.3 M45.65 6.3 C47.8 4.6, 49.94 2.9, 53.64 -0.02 M45.65 6.3 C48.77 3.83, 51.89 1.36, 53.64 -0.02" stroke="#000000" stroke-width="2" fill="none"></path></g></g><mask></mask><g transform="translate(84.148173867467 445.9177479366026) rotate(0 36.6748046875 11.5)"><text x="36.6748046875" y="0" font-family="Helvetica, Segoe UI Emoji" font-size="20px" fill="#000000" text-anchor="middle" style="white-space: pre;" direction="ltr" dominant-baseline="text-before-edge">Browser</text></g><g stroke-linecap="round"><g transform="translate(265.43031464334035 134.4390845411208) rotate(0 149.49805120037695 0.05358150738720724)"><path d="M0 0 C73.31 0.03, 146.61 0.05, 299 0.11 M0 0 C88.95 0.03, 177.91 0.06, 299 0.11" stroke="#5c940d" stroke-width="2" fill="none"></path></g><g transform="translate(265.43031464334035 134.4390845411208) rotate(0 149.49805120037695 0.05358150738720724)"><path d="M270.8 10.36 C277.71 7.84, 284.63 5.33, 299 0.11 M270.8 10.36 C279.19 7.31, 287.58 4.26, 299 0.11" stroke="#5c940d" stroke-width="2" fill="none"></path></g><g transform="translate(265.43031464334035 134.4390845411208) rotate(0 149.49805120037695 0.05358150738720724)"><path d="M270.81 -10.16 C277.72 -7.65, 284.63 -5.13, 299 0.11 M270.81 -10.16 C279.19 -7.11, 287.58 -4.05, 299 0.11" stroke="#5c940d" stroke-width="2" fill="none"></path></g></g><mask></mask><g transform="translate(374.9793609651283 104.58236886954) rotate(0 50.5908203125 11.5)"><text x="50.5908203125" y="0" font-family="Helvetica, Segoe UI Emoji" font-size="20px" fill="#5c940d" text-anchor="middle" style="white-space: pre;" direction="ltr" dominant-baseline="text-before-edge">Connection</text></g><g stroke-linecap="round"><g transform="translate(268.55852154820514 189.4634629994025) rotate(0 148.27327240632235 0.6659709044142801)"><path d="M0 0 C96.61 0.43, 193.23 0.87, 296.55 1.33" stroke="#000000" stroke-width="2.5" fill="none" stroke-dasharray="8 10"></path></g><g transform="translate(268.55852154820514 189.4634629994025) rotate(0 148.27327240632235 0.6659709044142801)"><path d="M28.24 -10.13 C19.04 -6.83, 9.84 -3.53, 0 0" stroke="#000000" stroke-width="2.5" fill="none"></path></g><g transform="translate(268.55852154820514 189.4634629994025) rotate(0 148.27327240632235 0.6659709044142801)"><path d="M28.14 10.39 C18.98 7, 9.81 3.62, 0 0" stroke="#000000" stroke-width="2.5" fill="none"></path></g></g><mask></mask><g transform="translate(404.67754153188434 160.83152612187678) rotate(0 25.5712890625 11.5)"><text x="25.5712890625" y="0" font-family="Helvetica, Segoe UI Emoji" font-size="20px" fill="#000000" text-anchor="middle" style="white-space: pre;" direction="ltr" dominant-baseline="text-before-edge">Event</text></g><g stroke-linecap="round"><g transform="translate(251.78276034283954 10.368201606454932) rotate(0 0.31978746228082855 233.46278860671646)"><path d="M0 0 C0.23 171.07, 0.47 342.15, 0.64 466.93 M0 0 C0.22 157.98, 0.43 315.97, 0.64 466.93" stroke="#000000" stroke-width="2" fill="none"></path></g></g><mask></mask><g stroke-linecap="round"><g transform="translate(269.08317145331057 245.57156142966687) rotate(0 148.27327240632235 0.6659709044142801)"><path d="M0 0 C96.62 0.43, 193.24 0.87, 296.55 1.33" stroke="#000000" stroke-width="2.5" fill="none" stroke-dasharray="8 10"></path></g><g transform="translate(269.08317145331057 245.57156142966687) rotate(0 148.27327240632235 0.6659709044142801)"><path d="M28.24 -10.13 C19.04 -6.83, 9.84 -3.53, 0 0" stroke="#000000" stroke-width="2.5" fill="none"></path></g><g transform="translate(269.08317145331057 245.57156142966687) rotate(0 148.27327240632235 0.6659709044142801)"><path d="M28.14 10.39 C18.97 7, 9.8 3.62, 0 0" stroke="#000000" stroke-width="2.5" fill="none"></path></g></g><mask></mask><g transform="translate(405.2021914369907 216.93962455214114) rotate(0 25.5712890625 11.5)"><text x="25.5712890625" y="0" font-family="Helvetica, Segoe UI Emoji" font-size="20px" fill="#000000" text-anchor="middle" style="white-space: pre;" direction="ltr" dominant-baseline="text-before-edge">Event</text></g><g stroke-linecap="round"><g transform="translate(269.2700200651625 300.5728689138423) rotate(0 148.27327240632235 0.6659709044142801)"><path d="M0 0 C83.04 0.37, 166.08 0.75, 296.55 1.33" stroke="#000000" stroke-width="2.5" fill="none" stroke-dasharray="8 10"></path></g><g transform="translate(269.2700200651625 300.5728689138423) rotate(0 148.27327240632235 0.6659709044142801)"><path d="M28.24 -10.13 C20.33 -7.3, 12.42 -4.46, 0 0" stroke="#000000" stroke-width="2.5" fill="none"></path></g><g transform="translate(269.2700200651625 300.5728689138423) rotate(0 148.27327240632235 0.6659709044142801)"><path d="M28.14 10.39 C20.26 7.48, 12.38 4.57, 0 0" stroke="#000000" stroke-width="2.5" fill="none"></path></g></g><mask></mask><g transform="translate(405.3890400488426 271.94093203631655) rotate(0 25.5712890625 11.5)"><text x="25.5712890625" y="0" font-family="Helvetica, Segoe UI Emoji" font-size="20px" fill="#000000" text-anchor="middle" style="white-space: pre;" direction="ltr" dominant-baseline="text-before-edge">Event</text></g><g stroke-linecap="round"><g transform="translate(269.32332895036416 356.6201616441331) rotate(0 148.27327240632235 0.6659709044142801)"><path d="M0 0 C117.05 0.53, 234.11 1.05, 296.55 1.33 M0 0 C95.23 0.43, 190.46 0.86, 296.55 1.33" stroke="#c92a2a" stroke-width="2" fill="none"></path></g><g transform="translate(269.32332895036416 356.6201616441331) rotate(0 148.27327240632235 0.6659709044142801)"><path d="M28.24 -10.13 C17.09 -6.13, 5.95 -2.13, 0 0 M28.24 -10.13 C19.17 -6.88, 10.1 -3.63, 0 0" stroke="#c92a2a" stroke-width="2" fill="none"></path></g><g transform="translate(269.32332895036416 356.6201616441331) rotate(0 148.27327240632235 0.6659709044142801)"><path d="M28.14 10.39 C17.04 6.29, 5.93 2.19, 0 0 M28.14 10.39 C19.11 7.05, 10.07 3.72, 0 0" stroke="#c92a2a" stroke-width="2" fill="none"></path></g></g><mask></mask><g transform="translate(354.2997708090443 327.98822476660735) rotate(0 76.7138671875 11.5)"><text x="76.7138671875" y="0" font-family="Helvetica, Segoe UI Emoji" font-size="20px" fill="#c92a2a" text-anchor="middle" style="white-space: pre;" direction="ltr" dominant-baseline="text-before-edge">Close connection</text></g><g stroke-linecap="round"><g transform="translate(581.3015269271568 10) rotate(0 0.31978746228082855 233.46278860671646)"><path d="M0 0 C0.17 125.74, 0.34 251.48, 0.64 466.93 M0 0 C0.25 182.37, 0.5 364.75, 0.64 466.93" stroke="#000000" stroke-width="2" fill="none"></path></g></g><mask></mask></svg>
